<?xml version="1.0" encoding="utf-8"?>
<!-- Generator: Adobe Illustrator 21.1.0, SVG Export Plug-In . SVG Version: 6.00 Build 0)  -->
<svg version="1.1" id="Layer_1" xmlns="http://www.w3.org/2000/svg" xmlns:xlink="http://www.w3.org/1999/xlink" x="0px" y="0px"
	 viewBox="0 0 1440 900" style="enable-background:new 0 0 1440 900;" xml:space="preserve">
<style type="text/css">
	.st0{fill:#3073BA;}
	.st1{fill:#115FAD;}
	.st2{opacity:0.56;fill:#6B9BD2;enable-background:new    ;}
	.st3{fill:#4E84C4;}
	.st4{fill:#4E87C6;}
	.st5{fill:#4884C4;}
	.st6{fill:#4B84C4;}
	.st7{opacity:0.24;fill:#4B85C5;enable-background:new    ;}
	.st8{fill:#558BC9;}
	.st9{fill:#3E7EC1;}
	.st10{opacity:0.25;fill:#5D90CB;enable-background:new    ;}
	.st11{fill:#5189C7;}
	.st12{fill:#2771B9;}
	.st13{opacity:0.31;fill:#76A5D8;enable-background:new    ;}
	.st14{fill:#3D7BBF;}
	.st15{fill:#88B3E0;}
	.st16{fill:#18345D;}
	.st17{fill:#1B4073;}
	.st18{fill:#0E4C8B;}
	.st19{fill:#00539F;}
	.st20{fill:#00539E;}
	.st21{fill:#0E61AE;}
	.st22{fill:#0056A2;}
	.st23{fill:#1661AE;}
	.st24{fill:#095FAB;}
	.st25{fill:#1D6DB6;}
	.st26{opacity:0.29;fill:#588CC9;enable-background:new    ;}
	.st27{opacity:0.65;fill:#5E8FCB;enable-background:new    ;}
	.st28{fill:#2269B3;}
	.st29{fill:#2772B9;}
	.st30{opacity:0.22;fill:#3778BD;enable-background:new    ;}
	.st31{fill:#2C6CB5;}
	.st32{opacity:0.29;fill:#3579BD;enable-background:new    ;}
	.st33{opacity:0.2;fill:#3A7ABE;enable-background:new    ;}
	.st34{fill:#0164B0;}
	.st35{fill:#1C4585;}
	.st36{fill:#1766B1;}
	.st37{fill:#1C4279;}
	.st38{fill:#1B3D6E;}
	.st39{fill:#8BB2DE;}
	.st40{fill:#6293CD;}
	.st41{fill:#00569E;}
	.st42{fill:#084E91;}
	.st43{fill:#1D57A7;}
	.st44{fill:#85B1DF;}
	.st45{fill:#6196CF;}
	.st46{opacity:0.47;fill:#2A72B9;enable-background:new    ;}
	.st47{opacity:0.25;fill:#568FCC;enable-background:new    ;}
	.st48{opacity:0.35;fill:#184786;enable-background:new    ;}
	.st49{opacity:0.38;fill:#3F81C3;enable-background:new    ;}
	.st50{opacity:0.68;fill:#C1DDF4;enable-background:new    ;}
	.st51{fill:#2F77BD;}
	.st52{fill:#5384C4;}
	.st53{fill:#88B5E1;}
	.st54{fill:#70A4D8;}
	.st55{fill:#699AD1;}
	.st56{fill:#357DC1;}
	.st57{fill:#94BBE3;}
	.st58{fill:#7FADDC;}
	.st59{fill:#2E74BB;}
	.st60{fill:#051936;}
	.st61{fill:#194682;}
	.st62{fill:#0D2044;}
	.st63{opacity:0.4;fill:#2F75BC;enable-background:new    ;}
	.st64{fill:#518AC8;}
	.st65{opacity:0.5;fill:#357ABF;enable-background:new    ;}
	.st66{opacity:0.29;fill:#357ABF;enable-background:new    ;}
	.st67{fill:#114C8F;}
	.st68{fill:#1560AE;}
	.st69{fill:#538AC8;}
	.st70{fill:#4983C4;}
	.st71{fill:#6699D1;}
	.st72{fill:#72A1D5;}
	.st73{fill:#4B87C7;}
	.st74{fill:#3D7EC1;}
	.st75{opacity:0.29;fill:#73A2D6;enable-background:new    ;}
	.st76{fill:#172D55;}
	.st77{fill:#1A2D59;}
	.st78{fill:#1C64AC;}
	.st79{fill:#1F386C;}
	.st80{fill:#1B3966;}
	.st81{opacity:0.64;fill:#2B73BA;enable-background:new    ;}
	.st82{opacity:0.38;fill:#4682C3;enable-background:new    ;}
	.st83{fill:#1B68B3;}
	.st84{fill:#0B63AC;}
	.st85{fill:#0E66B2;}
	.st86{fill:#6394CE;}
	.st87{fill:#3E80C3;}
	.st88{fill:#5D93CE;}
	.st89{opacity:0.54;fill:#6FA1D6;enable-background:new    ;}
	.st90{opacity:0.28;fill:#6FA1D6;enable-background:new    ;}
	.st91{opacity:0.22;fill:#6FA1D6;enable-background:new    ;}
	.st92{opacity:0.24;fill:#0057A4;enable-background:new    ;}
	.st93{fill:#3C7ABE;}
	.st94{opacity:0.62;fill:#2B75BB;enable-background:new    ;}
	.st95{fill:#3778BD;}
	.st96{opacity:0.68;fill:#4782C4;enable-background:new    ;}
	.st97{fill:#184786;}
	.st98{fill:#00529C;}
	.st99{opacity:0.35;fill:#1669B3;enable-background:new    ;}
	.st100{opacity:0.33;fill:#1669B3;enable-background:new    ;}
	.st101{opacity:0.45;fill:#1669B3;enable-background:new    ;}
	.st102{fill:#6D9CD3;}
	.st103{fill:#0D4D89;}
	.st104{fill:#84AEDD;}
	.st105{fill:#194798;}
	.st106{fill:#1B3F72;}
	.st107{fill:#A7D0EF;}
	.st108{fill:#4E83C3;}
	.st109{fill:#174273;}
	.st110{fill:#4B87C6;}
	.st111{fill:#17244E;}
	.st112{fill:#1F4182;}
	.st113{fill:#1A4277;}
	.st114{fill:#396EB6;}
	.st115{fill:#1E62AE;}
	.st116{fill:#1D67B2;}
	.st117{fill:#0058A7;}
	.st118{fill:#005194;}
	.st119{fill:#93BBE4;}
	.st120{fill:#0057A5;}
	.st121{fill:#203568;}
	.st122{fill:#045097;}
	.st123{fill:#00519B;}
	.st124{fill:#4E8BC9;}
	.st125{fill:#377ABE;}
	.st126{fill:#598FCB;}
	.st127{fill:#1868B3;}
	.st128{fill:#005EAA;}
	.st129{fill:#256FB8;}
	.st130{fill:#3172B9;}
	.st131{opacity:0.5;fill:#2370B8;enable-background:new    ;}
	.st132{fill:#2670B8;}
	.st133{fill:#1666B2;}
	.st134{fill:#3377BC;}
	.st135{opacity:0.14;fill:#74A4D7;enable-background:new    ;}
	.st136{opacity:0.68;fill:#1868B3;enable-background:new    ;}
	.st137{fill:#1468B3;}
	.st138{fill:#216BB4;}
	.st139{opacity:0.25;fill:#4A82C3;enable-background:new    ;}
	.st140{fill:#206BB5;}
	.st141{fill:#112249;}
	.st142{fill:none;}
	.st143{fill:#3871B8;}
	.st144{fill:#071B3C;}
	.st145{fill:#0C1326;}
	.st146{fill:#0F2247;}
	.st147{fill:#061731;}
	.st148{fill:#162851;}
	.st149{fill:#102348;}
	.st150{fill:#1B3460;}
	.st151{fill:#0A4E90;}
	.st152{opacity:0.63;fill:#0F2247;enable-background:new    ;}
	.st153{opacity:0.4;fill:#152B52;enable-background:new    ;}
	.st154{fill:#1E417D;}
	.st155{fill:#1A3F71;}
	.st156{fill:#05213F;}
	.st157{fill:#F9FCF9;}
	.st158{fill:#1B3E6F;}
	.st159{opacity:0.85;fill:#1C3F73;enable-background:new    ;}
	.st160{fill:#1C325F;}
	.st161{fill:#4384C5;}
	.st162{fill:#104C90;}
	.st163{opacity:0.71;fill:#162750;enable-background:new    ;}
	.st164{fill:#0E4D8F;}
	.st165{fill:#E1F4FD;}
	.st166{fill:#041E39;}
	.st167{fill:#1C3766;}
	.st168{fill:#8C9BCF;}
	.st169{fill:#4476BB;}
	.st170{fill:#B5D0ED;}
	.st171{fill:#232A63;}
	.st172{fill:#0A1330;}
	.st173{fill:#005DA8;}
	.st174{fill:#6690CB;}
	.st175{fill:#00509C;}
	.st176{fill:#5F9BD3;}
	.st177{fill:#8EA7D6;}
	.st178{fill:#FFFFFF;}
	.st179{fill:#7DA7D8;}
	.st180{fill:#245FAC;}
	.st181{fill:#4780C2;}
	.st182{fill:#1D62AF;}
	.st183{fill:#191B4D;}
	.st184{fill:#CEE3F6;}
	.st185{fill:#8FB9E3;}
	.st186{fill:#558AC8;}
	.st187{fill:#1B3968;}
	.st188{fill:#005FA8;}
	.st189{fill:#0E1941;}
</style>
<g id="Layer_2">
</g>
<rect y="0" class="st0" width="1440" height="900"/>
<path id="adva55" class="st1" d="M721.3,327.8l-37.7-2.5c0,0-113.8,20-116.8,19.9c-3-0.1-19.9,4.5-31.7,4.7c0,0-33.4,21.8-35.3,30.8
	c0,0,16.7,14.1,29.1,0c0,0-1.3-15.7,9.7-20.4c0,0,58.2-15.5,65.1-15.1l52.8-7.8L720,335L721.3,327.8z"/>
<path id="adva54" class="st2" d="M365,575.9c0,0,47.9,16.1,11.8-12.9l-15.6-13.1c0,0-15-36.3-15.3-66.2l-9.6-32.7
	c0,0,38.1-73.7,63.3-96.3c0,0,48.7-29.7,73.9-36c25.1-6.3,133.8-34.6,155.6-33.2c0,0-4-7.8-45.2,0c-41.3,7.7-108,20.2-134.1,33.7
	c-26.2,13.5-62.9,37.1-84.8,61.6l-45.6,70.3v32.7C319.5,483.6,320.1,537.3,365,575.9z"/>
<path id="adva53" class="st3" d="M338.1,304c0,0-45.4,29-54,36.5c0,0-13.3,14.2-15.6,18C268.5,358.5,275.8,324.8,338.1,304z"/>
<path id="adva52" class="st4" d="M463.5,264.9c0,0-98.3,30.7-103.6,35.9c0,0-41.2,20.8-44.9,24.2c0,0-30.3,26-34.1,31.7
	c0,0-12.7,16.6-14.2,21.3c0,0,10.4-29.3,23.6-38.8s21.8-21.3,41.2-29.8C331.5,309.3,437.6,266.8,463.5,264.9z"/>
<path id="adva51" class="st5" d="M603.6,249.7c0,0-91.5,12.5-102.9,15.2l-68.2,18.4c0,0-50.2,18.8-56,23.2c0,0-31.2,14.2-33.7,16.4
	c0,0-32.3,23.3-36.2,29.9c0,0-38.1,34.7-38.1,39.1c0,0,28.9-51.7,51.5-60.4c0,0,44.9-28.6,62.4-32.2c0,0,36.6-19.5,53.6-21.8
	c0,0,73.3-22,84.1-19.9L603.6,249.7z"/>
<path id="adva50" class="st6" d="M259.5,423.6c0,0,36.3-54.6,41.7-57.7c0,0,46.6-46.1,50.8-46.8"/>
<path id="adva49" class="st7" d="M332.3,330.6l-42.4,37.7l-20.1,21.3c0,0-10.4,40.8-1.3,49.9c0,0,8.2,6.7,6.8,1.6
	c0,0-2.9-12.9,3.2-25.1c5.2-10.4,19.5-32.6,25.1-40.3c1-1.3,1.6-2.2,2-2.6c2.6-2.5,21-28.2,30.6-34.7c0,0,38.2-24.9,43.7-25.2
	l49.4-23.5c0,0,61.5-15.5,63.8-16c2.2-0.5,83.3-20.4,102.2-19.3l15.8-1.5l-7.6-3.2c0,0-82.8,11.4-94.2,15.2l-46,11.3l-30.9,6.9
	c0,0-38.1,14.8-43.4,17.1"/>
<path id="adva48" class="st6" d="M275.4,441.2c0,0,64.9-101.8,72.9-103.4c0,0,85.2-51.6,96.2-48.9c0,0,65.3-17.2,76.9-18.5
	c0,0,118-19.9,122.8-18.8c0,0-41.7,1-48.7,2.8c0,0-61.8,8.8-72.6,12.5c0,0-46,10.4-51.3,12.2c-5.3,1.8-31.3,5.6-40.6,9.9
	c-9.3,4.4-87,38.8-100.5,54.6C330.5,343.8,263.5,416.1,275.4,441.2z"/>
<path id="adva47" class="st8" d="M295.5,449.9c0,0,29.5-78,40.8-88.9c0,0,61.4-48.1,75.9-54.1l96.4-29.7l79.3-13.9l92.9-13.7
	l-41.3,2l-64.7,9.8c0,0-44.9,6.3-64.5,10.9c-19.5,4.6-66.1,16.5-66.1,16.5s-5.2,0-31,12.1s-36.1,19.8-36.1,19.8l-32.3,19.6l-18,23.2
	l-51.7,77.6C275.4,441.2,276.1,460.7,295.5,449.9z"/>
<path id="adva46" class="st9" d="M295.5,449.9c0,0,43.3-79.3,48.9-83.3c0,0,68.1-65.7,137-73.8c0,0,199-46.9,209.1-36.9l50.4,4.1
	l-60-10.5c0,0-186.9,25.4-198.7,35.3c0,0-82,17.1-105.7,45.6c0,0-36,22.4-40.1,30.5C336.3,361.1,297.8,417.9,295.5,449.9z"/>
<path id="adva45" class="st10" d="M306.7,490.9c0,0,0.9-13.3,5.6-46.5c0,0,26.6-56.7,52.8-81.7c0,0,30-27.8,35.4-31.3
	c5.2-3.5,38.2-18.1,50.7-22.8c12.6-4.7,42-13.7,58-16.7c16-3,106.2-16.2,106.2-16.2l78.4-10.9c0,0-76-0.1-111.6,7.9l-60.4,10.9
	c0,0-71.8,18.1-85.6,25.8c0,0-45.4,20.5-53.9,26.7c0,0-29.3,18.3-37.8,30.6c-8.6,12.3-39.2,65.7-44,74.5
	C295.5,449.9,296.8,468.1,306.7,490.9z"/>
<path id="adva44" class="st11" d="M306.7,490.9c0,0,8.8,0.7,12.8-7.2c4-8,0-32.7,0-32.7s56.1-89.9,60.9-94c0,0,80.9-48.3,107.3-53
	c0,0,145.9-30.3,156.3-26.4l107.2-8.7l-57.5-4l-143.5,20c0,0-76.1,11.8-86.6,19.1c0,0-56.1,20.2-63.3,27.4c0,0-56.1,32.8-88.2,113
	C312.2,444.4,305.8,449.2,306.7,490.9z"/>
<path id="adva43" class="st12" d="M345.9,483.6l-9.6-32.7c0,0,33.7-67.5,63.3-96.3c0,0,53.7-32.1,82.5-38.5
	c0,0,188.4-45.6,226.7-37.6l11-1c0,0,9.8,4.9-21.4,12.2l-76.1,6.4c0,0-120.2,20-128.2,24.1c0,0-68.1,31.2-72.9,36.9
	c0,0-51.3,60.9-55.3,72.2l-9.6,21.8L345.9,483.6z"/>
<path id="adva42" class="st13" d="M378,478.8c0,0-32.4,56.3-32.1,4.8c0.3-51.4,75.4-126.6,75.4-126.6s55.7-35.4,117.1-46.2
	c61.4-10.8,99.2-15.1,99.2-15.1s27.2,1.6,11.1,8.2l-55.2,7.2c0,0-33,4.5-85.7,13.3c0,0-61.1,36.3-71.6,45.9c0,0-51.5,52.7-61.5,71
	C374.7,441.2,363.2,456.6,378,478.8z"/>
<path id="adva41" class="st14" d="M404.6,456.3c0,0,47.8-93.1,84.2-103.2c36.5-10,168.5-45.3,197.4-40.2l-37.7-8.8
	c0,0-133.3,16.4-149.7,22.7c0,0-56.6,25.1-115.7,99.3c0,0-18.8,25.1-10,41.5l4.8,11.3c0,0,7.3,2.2,17.7,0L404.6,456.3z"/>
<path id="adva40" class="st15" d="M432.1,451c0,0,49.5-82,103.1-101.1l205.4-30.8l-20.3-9.6c0,0-66.3,8.2-82,9.6
	c0,0-114,24.6-122.9,26.9c0,0-52.2,21.9-65,39c-12.8,17.1-25.5,30.9-28.6,38.7C418.5,431.5,397,489.7,432.1,451z"/>
<path id="adva31" class="st16" d="M1018.9,516.2c0,0,32.4-29.2,12.7,14.5c0,0-79.5,66.4-116.1,75.5c0,0-76.8,21.6-136.3,23.4
	c-59.7,1.9-109.7-3.2-135-6.9c-25.3-3.7-131.9-34.2-145.9-42.4c-14-8.2-41.9-22.9-42.4-31.1c-0.6-8.2,7.6-12.1,28.5-2.6
	c21,9.5,60.3,23.4,70.3,29.8s48.2,14.5,59,16.5c10.8,1.9,108.7,15.8,108.7,15.8s42.9,1.9,72.7-1.9c29.8-3.8,96.4-16.5,124.3-35.5
	C947.3,552.3,1018.9,516.2,1018.9,516.2z"/>
<path id="adva32" class="st17" d="M674.5,650.6c0,0,131.3,10.2,194-4.4s116.1-35.5,120.5-40.6c4.5-5,67.3-36.8,84.7-54.5
	c17.4-17.7,11.7-24.7,8.6-24.7c-3.1,0-19,10.8-24.7,15.8c-5.7,5-46.9,30.5-46.9,30.5l-42.4,30.5c0,0-89.4,35.1-97.1,33.4
	S720,648.8,720,648.8S682.1,649.4,674.5,650.6z"/>
<path id="adva33" class="st8" d="M348.3,505.3l12.9,44.5l78.8,51.8l59.8,28.4L624.4,658c0,0,98.8,9.3,124.3,8.8l79.7-1.9l82.8-14.1
	c0,0,90.4-32.9,124.2-56.3c0,0,38.7-31.5,2.5-18l-68,38.7l-89.8,31.1l-205.7,4.4l-49.1-4.4l-122.5-32L422.1,572
	c0,0-32-24.1-35.1-29.1s14.4-7.7,17.3-2c0,0,4.9-12.7-13-29c-17.9-16.4-20.5-21-20.5-21s-12.4,15-13.8,14.4
	C355.6,504.9,352.3,508.2,348.3,505.3z"/>
<g id="adva34">
	<path class="st18" d="M1073.8,582.8c0,0,41.5-21.6,42.8-31.7c1.3-10.2-3.2-19.7-17.7-8.9c-14.5,10.8-32.4,36.1-46.9,40.6
		c0,0-33.6,24.7-45,27.9c0,0-53.2,27.9-64,29.8c0,0-25.7,8.9-31.5,10.2c0,0,16.9,1.3,25.2,0c0,0,50.8-13,65.3-23.9
		C1001.7,626.7,1067.2,592.3,1073.8,582.8z"/>
	<path class="st19" d="M645.3,667.9c0,0,188.4,8.2,215.6,0c0,0-6.9-3.2-23.4-3.2C821,664.7,666.9,669.2,645.3,667.9z"/>
</g>
<path id="adva35" class="st20" d="M1126.7,557.2c0,0,11.4-16.2,14.1-16.2c2.7,0,2,22.4-7.1,27.6c0,0-112.9,76.8-119.7,77.8
	c-6.8,1.1-127,46.5-214.4,44.8c-87.6-1.7-132.1,2.7-146.7,0c-14.5-2.7,48.9-10.5,48.9-10.5s119.2-0.1,128.7,0
	c9.4,0.1,119.7-22.2,119.7-22.2s74.1-31.5,91.3-44C1058.7,601.9,1126.7,557.2,1126.7,557.2z"/>
<path id="adva36" class="st21" d="M1153,557.2c0,0-80.6,62.8-93.5,69.5c-12.8,6.8-56.7,35.8-65.2,38.1c-8.6,2.2-51.5,13.1-59.2,15.8
	c-7.7,2.7-100.4,15.5-113.2,17.2s114.1-10.3,114.1-10.3s59.8-13.4,63.9-15.9c4.2-2.7,64.8-37.8,73.9-44.9
	C1082.9,619.7,1162,579.5,1153,557.2z"/>
<path id="adva37" class="st22" d="M1018.5,666.7c0,0,150.1-83.2,149.8-94.8l-3.7-7.4C1164.6,564.7,1049.2,636.7,1018.5,666.7z"/>
<path id="adva38" class="st23" d="M1026.8,677.2l135.8-71.2l2.8-15.8C1165.2,590.2,1046.5,655,1026.8,677.2z"/>
<path id="adva145" class="st24" d="M1021.5,691.9c0,0,111.2-41.2,114.8-53.3C1136.3,638.6,1032.1,687.8,1021.5,691.9z"/>
<path id="adva220" class="st25" d="M352,601.7c0,0-31.2-23.2-35.1-33.4c-3.8-10.2-13.6-27.6-13.6-27.6S351.4,589.1,352,601.7z"/>
<path id="adva219" class="st26" d="M319.5,483.6c0,0,19.5,66.3,32.5,79.2l-101.7-5.8V431.1L319.5,483.6z"/>
<path id="adva218" class="st27" d="M404.6,456.3c22.8-58.4,42.8-27.9,42.8-27.9c-18.1,31.2-15.3,22.7-15.3,42.3
	c0,19.7-14.6,9.2-14.6,9.2"/>
<path id="adva217" class="st28" d="M432.1,664.7c0,0,94,29.6,103.1,27.2C535,691.9,447.9,665.9,432.1,664.7z"/>
<path id="adva216" class="st12" d="M273.2,571.3c0,0,45.4,51.6,61,55.4c0,0-28.9-25.8-31-30.4C301.2,591.6,273.2,571.3,273.2,571.3z
	"/>
<path id="adva215" class="st29" d="M346.3,618.2c0,0-52.2-34.2-62.2-61C284.1,557.2,342.3,604.7,346.3,618.2z"/>
<path id="adva214" class="st30" d="M327.6,615.6c0,0,101.7,49.8,160.2,61.6l148.1,32.9c0,0,27.7-5.8-24.7-15.3
	c-52.4-9.5-87.3-22.1-87.3-22.1s-75.8-21.1-85.3-23.3C429.2,647.2,364.5,617.8,327.6,615.6z"/>
<path id="adva213" class="st31" d="M438.7,649.4c0,0,142.7,37.9,146.8,42.4c0,0,91.6,10.9,105,10.3c13.4-0.5,92.8,2.9,92.8,2.9
	s-86.8-7.1-91.2-7.1s-88.2-6.5-98.2-10.3S458.5,647.7,438.7,649.4z"/>
<path id="adva212" class="st32" d="M303.4,540.9c0,0,98.3,94.6,180.2,116.4l92.3,24.8l18.1,5.6l80.7,9.1c0,0,12.2-5.9-21.7-5.8
	c-33.9,0.1-205.5-54.6-205.5-54.6L400,609l-31.9-20.3C368,588.8,318.1,547.3,303.4,540.9z"/>
<path id="adva211" class="st33" d="M459,636.1c0,0,140,53.6,242.7,44.6h128.7l96.9-17.6c0,0,66.5-16.4,114.3-48.6
	c0,0,35.8-18.5,32.3-31.4c0,0-63.4,47.8-72.1,43.9l-65.3,23.9c0,0-82,24.7-115.6,20.6c0,0-119.5,8.6-134.6,6
	c-15.1-2.6-54.4-8.7-74-12.6C592.9,660.6,488.6,625.9,459,636.1z"/>
<path id="adva30" class="st1" d="M336.3,549.8c0,0,70.6,65.3,81,68.4C417.4,618.2,341,582.3,336.3,549.8z"/>
<path id="adva29" class="st34" d="M447.4,636.5c0,0,145.5,47.3,159.5,43.9C606.9,680.4,469,631.3,447.4,636.5z"/>
<path id="adva28" class="st35" d="M564.2,651.2c0,0,43.1,15.3,48.2,13.4c5-1.9,26-0.5,12.1-6.6C624.4,658,587,644.8,564.2,651.2z"/>
<path id="adva27" class="st1" d="M361.3,549.8c0,0,81.1,71,112.2,73.5C473.5,623.3,388.6,564.4,361.3,549.8z"/>
<path id="adva26" class="st36" d="M417.4,564.7c0,0-15.9-10.8-12.6-14.9c3.3-4.1,15.2,11.1,15.2,11.1S420.8,564,417.4,564.7z"/>
<path id="adva25" class="st37" d="M422.1,572c0,0-4.5-16.7,11.4-3.6c15.8,13.1,70.3,33.5,70.3,33.5s17,5.7,9.4,11.4
	c-7.5,5.7-39.2-14-39.2-14L422.1,572z"/>
<path id="adva24" class="st38" d="M573.7,630.2c0,0,29.9,16.5,66.6,16c4.9,0,8.2-9.3-33.2-16C565.5,623.3,567.9,628.4,573.7,630.2z"
	/>
<path id="adva23" class="st39" d="M593.4,619.6c0,0,22.6,9.5,31.6,10.6c0,0,29.7,4.4,31.3,2.7c0,0-7.4-4.7-16.1-6.2
	C640.3,626.7,607.3,618.2,593.4,619.6z"/>
<path id="adva22" class="st40" d="M395.7,478.8H378l-7.2,12.1l33.6,36.8v13.3c0,0,21.3,26.4,46.3,37.9c0,0,94.7,43.5,156.4,51.3
	c0,0,45.2,6.1,46.8,3.8c0,0-39.6-12.5-49.2-14.1s-119.4-27.3-141.1-48.5L426,540.9c0,0,2.9-23.8-21.4-31.6
	c-24.3-7.8,24.3,7.8,24.3,7.8s-19.8-7.2-11.4-19.8L395.7,478.8z"/>
<path id="adva21" class="st41" d="M468.4,540.2c0,0,122.3,67.5,232.4,65.5c0,0-90.5-17-104.1-21.7
	C596.7,584,487.9,535.1,468.4,540.2z"/>
<path id="adva123" class="st42" d="M765.4,543h12.9l-6.1,13.7c0,0,2.6,12.7-2.6,16.6c0,0,2.1-7.7-2.5-8.6c-4.6-1-14,0.1-18.3-6
	l-41.4,2.7c0,0-17.2-4.2-20-3.2l4.5-5.8l8.9-1.2l8,2.8h32.7l10.3-4.8L765.4,543z"/>
<path id="adva122" class="st43" d="M651.3,447.1l7.8-4.8l2.2-1.4v2.2h4.6l-2,2.6l2.8,1.4l18.4-10.7l3.3-1.1c0,0,10.6-7.9,12.5-14.6
	c0,0,3.1,4.1,1.2,5.6l-7.1,10l0.7,2.6l-17.6,8.1h-7.5l-9.8,7.2h-3.6l-0.9-7.2h-5L651.3,447.1L651.3,447.1z"/>
<path id="adva121" class="st44" d="M835,568.4c0,0,135.1-38.5,141.1-53.7c0,0,11.7-9.6,7.6-13.6c-4.1-4-49.6,8.1-49.6,8.1
	s-116,23-117.6,28.2s37.6,2,37.6,2s-33.7,11.5-37.6,17.4C812.5,562.7,824.1,571.6,835,568.4z"/>
<path id="adva120" class="st45" d="M426,514.7c0,0,19.3-6,12.7-34.8c0,0-16.6,9.6-21.3,17.4C412.7,505.1,417.6,512.3,426,514.7z"/>
<path id="adva119" class="st46" d="M1018.5,464.2c0,0,24.9-21.5,19.3,5.7c0,0,13.7,29.4-19,46.4s-69.4,36.9-69.4,36.9l-38.2,25.7
	L861,594.4L795,607l-35.5,2.2c0,0-3.6-10.8,15.6-14.9c0,0,62.8-7.7,69.2-5.5c6.4,2.2,32.9-16.8,40.2-19.8c7.3-3,72.1-43.1,85.4-42.8
	c13.5,0.4,36.8-22.8,38.4-26.1C1009.9,497,1007.7,471.1,1018.5,464.2z"/>
<path id="adva118" class="st47" d="M772.2,556.6c0,0,13.4,9.2,44.3-19.2l98-24.3l-8.4-15.7l25.8-6.5l7.3-7.3c0,0-17,11.5-21.8,7.2
	c-4.8-4.4-12.8-7.2-12.8-7.2s-0.9,10.8-12.1,7.3l-23.3-12.1l-2.5,12.1c0,0,4.8-7.7,8.9,0c0,0,8,9.6-10.5,18.3
	c0,0-23.3,15.9-31.3,17.1c0,0-35.2,0.1-50.6,6.3L762.9,543h15.3L772.2,556.6z"/>
<path id="adva117" class="st48" d="M752,335.7c19.3-9.4,69.6,2.4,79.5,4.2c9.9,1.8,17.7,6.5,17.7,6.5c16.4,8.8,5.3,18,4.9,11.8
	c-0.4-6.2-10.7-6.4-10.7-6.4c-11.1-12.1-84-14.2-84-14.2L752,335.7z"/>
<path id="adva116" class="st49" d="M862.1,459.2h7.1l4.9,4.9l-4.9,14.6l-2.5,12.1l-8.7-7.3c0,0,5.5-7.7-4-4.8l4-13.7L862.1,459.2z"
	/>
<path id="adva115" class="st50" d="M668.5,436.4l-9.5,5.9l-7.8,4.8h5.1l0.9,7.2h3.6l9.8-7.2h7.5l14.3-8.1h3.3l-12.1,8.1l-13.6,3
	c0,0-4.8,12.2-15.4,6.1V451l-7.5,1.2c0,0,0.2-2.2,1.3-5.1c1.1-2.9,10.9-8.1,10.9-8.1L668.5,436.4z"/>
<path id="adva114" class="st51" d="M635.9,443.1l14.8-4.1c0,0,14.9-4.3,18-2.7l-9.2,2.6l-11.3,6.3l-4,4.7l-17,22.1l-29.1,28.2
	l-6,7.7l-8.6-7.7l-4.9,1.9l-5.5-4.7h-2.7L635.9,443.1z"/>
<path id="adva113" class="st52" d="M673.8,445.6h4.5l11.7-6.6h5.8l-0.7-2.6c0,0,2.5-5.1,4.2-5.7l1.7-4.5l-6.4,6.5l-12.5,9.4
	l-5.7,0.9L673.8,445.6z"/>
<path id="adva112" class="st53" d="M663.8,447.7h4.8l5.2-5.5l9.2-4.7l6.8-3c0,0,1.6-2.8-0.4-2.7l1.8-2.8l-4.9,0.5
	c0,0-13.1,5.3-16,8.8l0.2,1.3l-6.2-0.6c0,0-2.9,1.5-2.9,4.1h4.6l-2,2.6v2H663.8z"/>
<path id="adva111" class="st54" d="M691.2,431.1l0.3,1.3c0,0,8.3-9.5,9.9-13.6c0,0,2.5-3.6,1.8-5.1c0,0-3.2,3-4.2,5l-4.7,8.4
	C694.4,427.2,692.5,427.8,691.2,431.1z"/>
<path id="adva110" class="st55" d="M689.4,431.9l1.8-2.8v-1.9c0,0-5.5-1.2-15.6,0.7c0,0,12-2.6,18.1-1.5c0,0,1.7-0.9,1.3-1.5
	c0,0-0.4-1.6-7.4-1.1l9.1-0.6l-6.2,9.4L689.4,431.9z"/>
<path id="adva109" class="st50" d="M613.7,509.3l29.5-34.1c0,0,26-15.3,29.7-15.8c0,0,17.7-12.3,22.9-20.3l-12.1,8.1l-13.6,3
	l-9.2,6.1c0,0-5.2,2.4-6.3,0v-5.1l-7.5,1.2c0,0-0.5-2.5,1.3-5.1l10.9-8.1c0,0-12.2,4.5-15.2,11c0,0-11.3,7.3-15,19.9L611,491
	l-12.8,12.6l1.2,3.1l6.1-1.3L613.7,509.3z"/>
<path id="adva108" class="st56" d="M670.4,428.7c0,0,20.8-3.4,20.8-1.5v1.9c0,0-7.8,0.6-10.3,2.9c0,0-10.9,5-10.7,6.4l0.2,1.3
	l-6.2-0.6c0,0,6.1-0.6,7.3-5.8c0,0-1.4-2.7-7.7,0l-16.6,3.1c0,0-1.3,4.2-6.6,2.7c0,0,8.4-5.9,14-7.2L670.4,428.7z"/>
<path id="adva107" class="st57" d="M635.9,443.1c0,0,10.3-1.8,14.8-4.1l13.1-2.7h4.8c0,0,1.2,1.2,2.9-3.1c0,0,1.1-2.5-7.7,0
	l-16.6,3.1c0,0-3.7,3.8-6.6,2.7c0,0,8.1-6.2,17.4-7.9c0,0,31.3-6.9,35.7-4.8c0,0,8.1-4.7-17-1.5l-20.2,3c0,0-15.8,5.9-19,8.6
	c0,0-19.1,11.1-21,13.6s-10.3,12.2,4.3,6.1l10.6-9L635.9,443.1z"/>
<path id="adva106" class="st58" d="M659.3,420.3c0,0-57,29.5-69.7,29.6c0,0-32.2-5.8,22.7-22l44-15.2l46.8,1.1l-6.6,9.4L659.3,420.3
	z"/>
<path id="adva105" class="st59" d="M821,469.8c0,0,10.2,10.3,14.2,10c0,0,4.7,1,7.8-3.1c0,0,3-2.2,0-6.9s-6.5-5.7-6.5-5.7l0.1,9.9
	c0,0,0.3,3.7-4,3C832.6,477.1,823.4,472.5,821,469.8z"/>
<path id="adva104" class="st60" d="M635.9,373.1l29.9,7.5l27.8-7.5l7.2,3.7c0,0,11.4-4.7,10.4-11.7c0,0-38.7-7.6-47.4-6.9
	c0,0-2.1-10-11.8,0C652.1,358.1,611.3,363.7,635.9,373.1z"/>
<path id="adva103" class="st61" d="M617.2,391.9c0,0-51.7-7.5-50.4-16.8c0,0,1.5-22.2,14.1-21.5c0,0,65.3-15.8,69.8-12.5
	c0,0,39.6,0.6,52-0.1c1.4-0.1,2.5-0.2,3.1-0.3c6.1-1.2,14.2-5.8,14.2-5.8s27.6,46.9-16.6,67.5c0,0-22.1-15-30.6-10
	C672.8,392.4,621.1,386.6,617.2,391.9z"/>
<path id="adva102" class="st62" d="M703.4,402.5c0,0-19.1,6.2-19.7,0V392l-47.7,2.1c0,0-4.7-13.7-16.5-13.5c0,0-20.8-1-22.9-0.1
	c0,0,4.8-6.4,0-7.5c0,0-7.5-7.1-9.2-7.9c0,0-3.5-8,5.9-10.7c0,0,63.1-11.1,67.9-8c0,0,33-2.6,39.6-0.3c0,0,17-0.3,16.4,3.7
	C717.3,349.9,718.7,386.2,703.4,402.5z"/>
<path id="adva101" class="st63" d="M474.3,445.6c0,0,52.3,7.1,54.5,16.8c0,0,8.7,18.2,15.1,16.5c6.4-1.8,30.9-14.6,36.5-6.8
	c5.6,7.8-1.6-14.2-19.3-19.9C561,452.2,516.6,433.8,474.3,445.6z"/>
<path id="adva100" class="st64" d="M588.9,347.3c0,0,62.6-11.2,67.6-9.9c0,0,52.5-5,54.8-2c0,0,7.2-1.8,8.7-4.7l20.5-11.5l-153.6,23
	C586.9,342.1,574.2,349.6,588.9,347.3z"/>
<path id="adva99" class="st11" d="M499.7,370.9l35.3-21.1l-35.3,30.8c0,0-18.8,30.7-21.6,33.9c-2.8,3.2-9.7,8.7-9.7,8.7
	s-8,0.9-4.9,17.7l-24.8,39l-6.6,2.8v-31.6C432.1,451,476,385.2,499.7,370.9z"/>
<path id="adva98" class="st65" d="M490,407.7c0,0,11.8-27.4,25.3-27.3c0,0,8.1-20.8,23.3-20.3l37.3-5.3
	C575.9,354.9,530.1,318.1,490,407.7z"/>
<path id="adva97" class="st66" d="M547.6,365.2c0,0,22.6,13,5.1,21.7c0,0-29.8-0.7-37.4,10C507.8,407.7,513.2,366.9,547.6,365.2z"/>
<path id="adva96" class="st67" d="M523.7,431.1c0,0,35.5,5.8,52.9-8c0,0,12.2,6.3,16.8,5.9c0,0,13.1,0.9,10.3-2.8
	c0,0-17.2-5.3-15.1-10s15.5-3.5,15.5-3.5l19.3-10.3c0,0-39.9,5.1-43.1,2.8s9.2-9.3,6.5-13.3c0,0-14.8-4.7-27.9,3.3
	c0,0-12.3,16.9-30,17.4c0,0-11.3,0.4-21.2-5c0,0,1,11,4.6,12.6C512.4,420.3,529.8,421,523.7,431.1z"/>
<path id="adva95" class="st68" d="M575.9,354.9c0,0-0.4-4.2-12.1-1.2c0,0-39.1-0.7-34.8,26.9c0,0-13.3,9.2-21.2,4.6l-7.9-4.6
	l-21.6,33.9l-9.7,8.7c0,0-11.9,1.9-4.9,17.7L450,462.2c0,0,68.4,10.2,85.1-2.9c0,0,6.9,16.2,29.2,14.9l52.3-24.1l40-22.1l40.2-4.7
	l6.7-20.6c0,0-26-18.2-74.2-10.6C629.2,391.9,569.1,368.5,575.9,354.9z"/>
<path id="adva94" class="st59" d="M463.5,460.3c0,0,46.5,11.3,48.9,23.4c0,0-1.6,18.9,16.6,12.8c18.2-6.1,15.1-17.6,15.1-17.6
	S501.2,451.3,463.5,460.3z"/>
<path id="adva93" class="st69" d="M527.1,509.3c0,0-2.4-18.9,17-11.5c0,0,43.8-4.3,26.4,11.5S527.1,509.3,527.1,509.3z"/>
<path id="adva92" class="st70" d="M556.7,495.3l13.8,2.1l8.1,4.7c0,0-2.9-7.7,13.5,5.9l21.6,1.2v12.1l-12.4-2.8
	c0,0,7.3,16.6,23.7,13.7l4.3,8c0,0-78.9-12.8-102.1-18.4C504,516.1,488,523,488,523s-32-1.1-32.2-19.3c0,0-27.9-15.4,0-31.4
	l-10.7-2.4l11.2-17.6c0,0,41.8-6.6,57.1,9.9l26.8,25.5l40.1-15.7l13.1,6.4l-16,13.3c0,0-6.1-3.4-0.7-9c0,0-11.5-3.6-12.5,1.9
	c0,0,5,4.8,2.7,6.6L556.7,495.3z"/>
<path id="adva91" class="st71" d="M635.9,537.4c0,0,28.5,0.5,32.6,5.5c0,0,1.7-2.9-15-8.2c0,0-20.3-0.6-30.1-7.1l-15.1-6.2
	c-1.2-0.4-2,1.1-1.1,1.8l21.8,16.9l34.6,9L635.9,537.4z"/>
<path id="adva90" class="st72" d="M646.9,558c0,0,17.6,1.5,21.7,5.3c0,0,11.1,7.6,12.3,5.7s-1.2,1.9-1.2,1.9s-6.6,1.3,1.2,7.9
	c0,0,27.2,6.9,30.4,15.5c0,0-24.7-11.1-32.2-10.4c0,0-3.3,8.8-15.3,2.6c0,0-22.4-0.3-31.7-10.4c0,0-4.6-3.8-12.5-7.8
	c0,0-4.1-8.3-12.6-8.3c0,0-23.7-8.3-41.4-6.9c0,0-31.1-6.4-37-15.7c0,0-30.9-8.9-40.7-14.5C487.9,522.9,650.8,539.5,646.9,558z"/>
<path id="adva89" class="st44" d="M487.9,522.9c0,0,133.8,32.5,141.3,41.8l34.6-15.5C663.8,549.2,538.2,513.4,487.9,522.9z"/>
<path id="adva88" class="st73" d="M426,514.7c0,0,11.5-6,12.7-12.5v-22.3c0,0,3.4-17.5,17-7.7c0,0-23.4,16.8-5.8,25.1
	c0,0,10.6,3.6,8.3,14.2l29.5,11.3l71.1,30.3c0,0,55.9-1.7,60.6,15.3c0,0,22.3,19.9,44.3,18.2c0,0,6.6,6.6,13.1,2.2
	c0,0,22.2-2,34.3,5.5c0,0,8.2,3.7,6,8.7c0,0,1.8,10-25.8,1.4l-87.9-17.7c0,0-115.8-49.7-125.5-48.1l-9.7,1.7c0,0-12.5,6.5-18.5,2.8
	C449.9,543,426.1,534.7,426,514.7z"/>
<path id="adva87" class="st74" d="M964.8,502.2l53.8-38.1c0,0-11.1,8.1-10.3,36.1l-26.8,22.6c0,0-25.3,13.1-39.7,14.5L884.5,569
	l-40.2,19.8l-69.2,5.5c0,0-10.3-7.7,8.1-15.5l51.7-10.4l54.4-15.3c0,0,79.1-24.8,86.7-38.5C976.1,514.7,1002.6,493.7,964.8,502.2z"
	/>
<path id="adva86" class="st75" d="M816.5,556.8l37.6-17.4l-37.6-2c0,0-20.5,22-28.5,19.8l-15.7-0.5c0,0,1.7,11.5-5.8,22.1
	c0,0-19.3,4.2-13.4,21.9h8.7c0,0,23.9-5.1,21.5-21.9l51.7-10.4C835,568.4,816.5,576.3,816.5,556.8z"/>
<path id="adva85" class="st76" d="M700.8,582.8c0,0,57.4-8,58-2.5c0,0,17-1.9,8.3-15.7c0,0-18.4-3.3-18.3-6l-41.4,2.7
	c0,0-9.9-2.9-20-3.2c0,0,2.8,8.2,0,12.4c0,0-11.9-1.4-6.6,8.4L700.8,582.8z"/>
<path id="adva84" class="st77" d="M691.9,556.6v-4.3l8.9-1.2l8,2.8h32.7l10.3-4.8h-5.5l-5.6,3.7h-29.4l-9-2.7l1.4-2.2l8.9-5h5.2
	l10.2-4.5c0,0,4.5-9.1,3.6-10.8c0,0-2.8-4.8-3.8-6c0,0-2.8,2.8,0.3,6l-1.2,7.6c0,0-0.2,3.6-4.9,4.6c0,0-6.7,1.7-8.2,1.3
	c-1.5-0.4,1.5,0.4,1.5,0.4s-6.6-0.6-9.3,1.4c0,0-4.9,2.2-4.9,5.2c0,0-8.2,1.9-11,1.9C689.8,550.1,684.8,554.9,691.9,556.6z"/>
<path id="adva83" class="st78" d="M727.4,556.6h17.9c0,0,4.5-3,6.5-3.2c0,0,3.1-1.1,0.2-2.1l4.1-2.2c0,0-4-0.2-9.3,2.4
	c0,0-1.8,3.5-5.2,2.5L727.4,556.6z"/>
<polygon id="adva822" class="st79" points="711.3,558.6 718.9,558.6 717.6,556.6 "/>
<path id="adva821" class="st80" d="M767.2,546.1c0,0,5.6-0.9,5,0c0,0,0.3,1.9,1.4,1.4c0,0,0.9-1.2,0-2.5
	C773.7,545,770.9,542.5,767.2,546.1z"/>
<path id="adva81" class="st81" d="M851.1,497.4c0,0-1.1-6.1,4.6-3.6c5.6,2.5,2.2-8,11.1-2.9c8.9,5,6.4,10.6,2.5,14.4
	c-4.1,3.8-24.8,19-23.3,13C847.5,512.5,857.9,502.9,851.1,497.4z"/>
<path id="adva80" class="st82" d="M874.1,464.2l-4.9,14.6l23.3,12.1c0,0,6.6,1.8,10.4,0l1.7-7.2l27.4,7.3c0,0,2.7-4.2,7.3-7.3
	l-3.6-24.4c0,0-6.9,13.8-18.2,13.9C917.4,473.1,882.3,471.4,874.1,464.2z"/>
<path id="adva79" class="st83" d="M746.8,526.4l25.4,2.9l-20.3,9.3c0,0-4.3,8.8,31.2-5.9l50.6-6.3l-9.9-5.1c0,0,10.9-5.7,23.3-13.3
	c12.5-7.6-3-10.9-3-10.9s-11.5,6.9-18.7,10.9l-26.1,11.9C799.5,520,762.5,518.4,746.8,526.4z"/>
<path id="adva78" class="st84" d="M819.1,475.5c0,0-15.5,13.9-11.4,15.4c0,0,16.2-6.4,17.9,0.3c0,0,3.7,5.7,6.5,6.2
	c0,0,9.8-4.3,8.8-6.5c-1.1-2.4,0-8.8,0-8.8s-12,2.1-16.9-2.2L819.1,475.5z"/>
<path id="adva77" class="st85" d="M763,420.4c0,0,13.4,1.7,15.5,2.8c2.1,1-7.1,3.2-7.1,3.2s37.8,14,38.8,16.9
	c0,0,16.2,12.9,15.1,15.7c-1.2,2.8-0.1,8.1-18.6-7.3c0,0-6.6,1.5-13.7-0.5c-6.9-2-14.2-3.6-18.8-7.9c0,0-1.4-3.8,3.1-2.2l-5.2-7.8
	c0,0-6.7-0.2-8-6.5L763,420.4z"/>
<path id="adva76" class="st86" d="M778.3,438.4l18.2,7.3c0,0,4.6-0.3,6.5,0s10.9,8.7,10.9,8.7s6.6,2.5,4.7,0c0,0-13-10.4-15.6-12
	c0,0-11.5-1.2-13.7-3.8c0,0-4.7,1.4-6.2,0c0,0-5.8-1.4-4.9-4.3c0,0-6.1-4-8.2-5L778.3,438.4z"/>
<path id="adva75" class="st87" d="M814.3,462c0,0,17.6,11.8,17.6,12.5c0,0-6.4-10.8-8.9-11.4c-2.5-0.6-12.7-7.2-14.6-6.9
	C806.5,456.4,814.3,462,814.3,462z"/>
<path id="adva74" class="st88" d="M774.5,443.1c0,0,11.3,9.4,15,10.2c0,0,16.1,0,19.1,2.8c0,0,7.2,3.2,12.2,6.3
	c2.7,1.6,4.7,3.3,4.7,4.4c0,0,8.1,9.7,11,7.2c0,0,6.5-6.7,3.4-9c0,0-17.4-12.9-23.5-17.4c0,0,9.2,7.5,9,11.1c0,0,0.7,3.1-1.2,2.8
	c0,0-1.4,1.6-3.4-0.4c0,0-12-8.2-14-9.5c0,0-9.9-0.3-13.7-0.5C793.3,451,776,446.7,774.5,443.1z"/>
<path id="adva73" class="st89" d="M810.4,443.1c0,0-2.1-17.4-5.3-19.6c-3.2-2.1-15.7-10-15.7-10l-30-0.9l0.3,7.7l21.3,3.7l-9.2,2.1
	C771.6,426.3,786,438.4,810.4,443.1z"/>
<path id="adva72" class="st90" d="M858.2,465.1c0,0-9.2-7.7-18.7-5.9c0,0,6.8-6.6,0-9.3c0,0-9.4,3.7-14,0c0,0-10.8-15-9.7-18.8
	c1-3.8,6.3,5.7,9.7,3c0,0-25.4-21.8-36.1-20.5c0,0-9.8,2-30-0.9c0,0-1,4,0.3,7.7c0,0,19.1,1.6,21.3,3.7c0,0-3.6,2.2-9.2,2.1
	c0,0-3.4,2.9,7.6,4.8c0,0,25.3,8.3,31.2,12l29.6,22H858.2z"/>
<path id="adva71" class="st91" d="M854.1,431.1c0,0,34.5,4.1,26,12c-8.6,7.9-14.8,13.6-29.1,7.9C836.8,445.2,815,438.2,854.1,431.1z
	"/>
<path id="adva70" class="st92" d="M793.9,412.7c0,0,51.2,22.2,60.3,18.4c9.1-3.8,0-18.4,0-18.4s65.1-34,63.2-10.3l-48.2,56.8h-7.1
	l-4,5.9l-18.7-5.9c0,0,6.8-10.4-7.9-8.2l-6.1-1c0,0-9.7-6.3-9.7-18.8l9.7,3c0,0,2.5,2.8-9.7-7.8
	C815.7,426.3,796.5,418.8,793.9,412.7z"/>
<path id="adva69" class="st93" d="M819.1,416.4c0,0,31,14.3,35.1,4.4c4.1-9.9-8.3-9.9-8.3-9.9s21.9-4.9,15.1-9.6c0,0-7.5-9.4-22,0
	c0,0-16.7,9.3-25,4.1c0,0-17.4-5.7-25.8-2.8c-8.3,3-29.4,5.2-29.4,5.2S802.4,418.8,819.1,416.4z"/>
<path id="adva68" class="st94" d="M881.5,453.4c0,0,17.1,26.7,46.7,8.8c0,0,8.3-19.5,18.2-12.2s25.7-4.6,35.5-4.4
	c0,0,17.3-5.9,2.7-21.9c0,0-23.7-7.2-28.3-21.2s-15.6-21.5-28-29.4c0,0-10.2-1.6-4.7,22.2C923.5,395.3,900.5,463,881.5,453.4z"/>
<path id="adva67" class="st62" d="M732.4,333.6c0,0,129.8-6.1,143.4,36.2c0,0,19.1,9.1-9.6,14.6c0,0-37.8,7.4-50.5,7.4
	s-34.2,10.3-36.2-5.1c0,0,32.1-18.1-12.9-9.9c-45,8.1-33,1.6-33,1.6L732.4,333.6z"/>
<path id="adva66" class="st95" d="M889.4,391.9c0,0,21.8-13.5,28-5c0,0,21.7,13.1-17.3,13.7C861,401.1,889.4,391.9,889.4,391.9z"/>
<path id="adva65" class="st96" d="M928.2,360.3l27.5,15l17.5,8.8C973.3,384,947.3,360.9,928.2,360.3z"/>
<path id="adva64" class="st97" d="M752,335.7l-0.2-7.6c0,0,76.6-2,91.3,3.7l37.2,20c0,0,26.8,17.6,31.1,28.6
	c0,0-26.7,10.8-53.6,11.4l-104.7,10.6l-1.4-15.7c0,0,18.5,0.2,14.8-2.8c-3.7-3-16.6,0-13.4-3.5c3.2-3.5,48.5-9.3,40.5,0.1
	c0,0-14.1,1.4-14.1,6.2c0,0,10.9,8.6,23.6,5.1l17.9-1.6c0,0,11.4-10.4,22.6-6.8c0,0,18.2-3,22.7,1c0,0,14.6-5.6,9.6-14.6
	c0,0-24.7-26.7-37.8-28.8C838,341.2,779.9,328.1,752,335.7z"/>
<path id="adva63" class="st98" d="M687.6,558c0,0,0.3-6.8,2.4-8l4.5-0.5h-12.1c0,0,5.3,9.9,4,14.2l-0.1,4.7c0,0-5.5,0.5-7.7,3
	c0,0-3.6,2,1.1,6.2l1.3,1.2c0,0-4.4-7.4,3.8-8.4h2.9C687.6,570.4,689.8,567.9,687.6,558z"/>
<path id="adva62" class="st99" d="M1001.5,416.3c0,0,9.5,24.7,16.9,33.7c0,0,8.7,4.3,8.3-6.8c0,0,18.2,6.3-8.2,21.1l-53.8,38.1
	l11.3-43l-37,24.4l-3.6-24.4c0,0-10.8,18.2-29.4,14c-18.5-4.2-37.8-4.1-32.8-17.1c5-13.1,48.5-47.9,44-53.6
	c-4.5-5.8-21.2-6.8-37.2,0c-16,6.8-26,10.3-26,10.3s8.6,16.7,0,18.4c-8.6,1.7-23.8-9.9-38.5-12.5c-14.6-2.6-23.1-8.4-26.4-5
	c-3.3,3.3-30-0.9-30-0.9l-6.1-10.3c0,0,140.6-10.5,158.1-22c0,0-22.7-27.4-31.1-28.6c0,0-5.2-4.6,7.9-1
	c13.1,3.6,41.6,13.4,41.6,13.4s-33.6-17.7-42-19.5c0,0-52.3-18.7-62.1-18.6c-9.8,0.1-69.2-8.7-73.5-4.7c-4.4,4,88.9-18,154.3,25.3
	C906.2,346.8,989,371.4,1001.5,416.3z"/>
<path id="adva61" class="st100" d="M939.1,373.1c0,0,22.7,29.1,30.8,34.6C969.9,407.7,988.4,408.6,939.1,373.1z"/>
<path id="adva60" class="st101" d="M950.2,373.1c0,0,48.2,35.4,46.7,53.2C996.8,426.3,1008.1,394,950.2,373.1z"/>
<g id="zel">
	<path class="st102" d="M707.6,590c0,0,40.2-6.6,41.4-4.3c0,0,6,2.6-2.1,7.4c0,0,10.5,3.2,9.3,8.3c0,0,3.7,6.5-0.9,6.4
		c0,0-33.7-0.1-36.3-1.1c0,0-2.6-6.2,1.3-8.8C720.2,598,708.4,592.4,707.6,590z"/>
	<path class="st103" d="M738.1,605.7l-18-2.6V598l-10.5-9.5l-2.1,1.5c0,0,9.6,7.7,10,9.4c0,0-1.5,6.7-2.6,7.3l21.8,2.5L738.1,605.7z
		"/>
	<path class="st103" d="M757.2,604c0,0,1.5,2.4,2.1,1.1c0,0,2.1-2.6,0.7-4.4c0,0-4.1-3.8-4,0.6"/>
	<path class="st104" d="M718.9,590.2c0,0,28.8,5.8,29.3,9l4.9,1.5l-1.4-5.6c0,0,1.9-5.3-3.5-6.7
		C748.2,588.5,726.6,586.1,718.9,590.2z"/>
	<path class="st105" d="M746.8,593.1c0,0,3.7,4.5,4.9,2.1c0,0,2.9-5.8-0.5-5.9C751.3,589.2,747,590,746.8,593.1z"/>
	<polygon class="st106" points="759.5,609.1 759.2,607.8 743,607.8 741.8,607 737.7,607 737,609.1 	"/>
	<path class="st107" d="M729.9,586.7l19-1l2.4,3.6l-8.2-1.8C743,587.5,736.5,589.3,729.9,586.7z"/>
	<path class="st108" d="M746.8,605.5h8C754.8,605.5,756,609.2,746.8,605.5z"/>
	<path class="st109" d="M683.7,579.6l17.1,3.2c0,0,49.5-7.3,57-3.5c0,0,11.9-1.2,1.5,2.6l-52.6,7.4L683.7,579.6z"/>
	<path class="st110" d="M727.4,596.5c0,0-1.8,6.1-2.8,5.8c-1-0.2,22.2,3.2,22.2,3.2s3.1-0.7,4.1-5.6l-31.9-9.7
		C718.9,590.2,716.3,596.8,727.4,596.5z"/>
	<polygon class="st111" points="709.7,588.5 720,587.7 720,586.7 729,586.7 729,585.7 718.7,585.7 718.7,587.1 708.9,586.8 
		708.7,587.7 705.6,587.7 705.6,588.6 	"/>
	<polygon class="st112" points="729.9,584.6 737.4,584.6 750.9,585.2 752,586.4 752.7,588.6 750.9,587.5 748.9,585.7 730.2,585.7 
		729.9,586.7 729,584.3 	"/>
	<path class="st113" d="M757.8,579.3c0,0-33.4,1.2-35,2.1c0,0-15.4,2-17.2,4l24.3-0.9c0,0,27.6-1.8,29-4.3
		C760.3,577.9,757.8,579.3,757.8,579.3z"/>
	<polygon class="st114" points="740.9,582.4 752.9,582.4 752.9,583.7 754.8,583.7 754.8,584.6 756,584.6 752.7,588.6 750.9,585.2 
		745,585 729.9,584.6 729,584.3 729,583.6 738.1,583.6 737.6,582.4 	"/>
	<polygon class="st115" points="757.9,580.5 747.5,580.3 747.5,581 758.2,581.5 	"/>
	<path class="st116" d="M720.2,598l5.7,0.9l1.6-2.4c0,0-10.5,0.9-8.4-6.3l-7.7-0.3L720.2,598z"/>
	<g>
		<path class="st117" d="M729.9,647.8c0,0-15.6-2.6-14.9-7.2l8.3-6.9l-8.3-3.6h11.3c0,0,1.8,4.5,1.1,6c0,0-8.3,2.2-7.5,4.1
			c0,0,8.3,1.5,9.1,1.8C729.9,642.2,729.9,647.8,729.9,647.8z"/>
		<path class="st118" d="M729.9,634.5c0,0,16-2.9,19-0.7c0,0,6.4,2.6,5.9,5.2l1.2,7.3l3.5-1.2c0,0,1.6-5.5,0-7.3
			c0,0-6.2-7.6-9.6-7.6h-23.5C726.4,630.2,727.4,638.7,729.9,634.5z"/>
		<path class="st119" d="M721.7,638.2c0,0,27.5-5,30.3-2.1c0,0,2.9-2.1,4,8.2L738,647l-9.1-2.7v-2.5l-9.1-1.8
			C720,640.1,718.8,638.6,721.7,638.2z"/>
		<path class="st120" d="M731.4,680.5c0,0,4.9-4.6,6.4-3.3l15.3,1.6l7.1-1.6l0.2-3.3l-3-0.9l-2.7-1.4v3.8l-11.5,0.6h-11.8l-2.4-2
			c0,0,6.7-1.1,6.9-1.1s3.3-1.4,3.3-1.4H729c0,0-1.8,3.6-4.5,3.2l-2.1-1.5l-2.4,2.9c0,0,6.1-0.6,7.3,0v5.6L731.4,680.5z"/>
		<path class="st121" d="M724.2,696.8c0,0,32-1.8,33.2,0c0,0,4.6,5.5,4.4,2.9l-2.4-5.1v-4c0,0-2.5-0.4-4.7,3.2l-32-2.9
			c0,0,3.4,1.6,1.1,3.2c0,0-4.3-0.4-3.8,2.8C720.2,696.8,718.4,699.6,724.2,696.8z"/>
		<path class="st22" d="M725.4,708.6c0,0,3.7,0.7,3.7,0c0-0.7-2.4-2.4-1.8-2.4s-2.6-2.2-2.6-2.2S722.4,706.6,725.4,708.6z"/>
		<path class="st122" d="M732.4,717.1c0,0,15.5,3.3,20,1.8c0,0,5.8-1.5,5.6-2.8l-8.3,1.6L732.4,717.1z"/>
		<path class="st123" d="M754.8,712.8c0,0,7.2-2.2,7.1-4.9c0,0,2-5.7-4-4c0,0,2.2,3.5-0.4,6.2h-19.7
			C737.8,710.3,742.6,713.8,754.8,712.8z"/>
		<path class="st124" d="M737.8,710.3h19.7l0.4-6.2l-24.9-1C732.9,703.1,743.9,707.5,737.8,710.3z"/>
		<polygon class="st125" points="740.9,699.2 757.1,699.2 757.5,696.8 740.9,696.8 		"/>
		<path class="st126" d="M733.1,679.1h18.3v1.4C751.4,680.6,732,681.7,733.1,679.1z"/>
	</g>
</g>
<path id="adva16" class="st127" d="M660.6,304c0,0,69.9-12.7,75.3-8.2c0,0,5.2,9.5,0.2,12.7l-49.8,4.4L660.6,304z"/>
<path id="adva15" class="st128" d="M1116.8,524.5c0,0,14.6-8.4,6.5,12.9C1123.3,537.4,1111.5,547.1,1116.8,524.5z"/>
<path id="adva14" class="st129" d="M1085.8,539.5c0,0-18.8,23.1,5.5,9.2s29.4-31.5,35.5-42c0,0,4.1-44.6-4.5-56.7
	c0,0-9.1-11.7-12,15.2C1110.3,465.1,1113.9,515.2,1085.8,539.5z"/>
<path id="adva13" class="st130" d="M1006.9,431.1c0,0,17,37.8,19.9,12c2.9-25.9-63.3-82.6-83.9-91.3c-20.7-8.7-102.2-38.8-117.3-39
	c-15.1-0.1-73.5-4.1-73.5-4.1v12.6c0,0,60.2-4.3,73.5,4.7c0,0,72.3,12.7,85.8,23.7C911.3,349.9,995.3,378.3,1006.9,431.1z"/>
<path id="adva12" class="st131" d="M1021.5,490.9c0,0,6.2-39.4,5.1-47.8c-1.1-8.3-12.7-29.2-12.7-29.2s-16.9-25.9-44-44
	s-27.2-18.2-27.2-18.2s87.3,37.5,92.9,79.3c0,0,17.9,30.8,15,78.1S1021.5,490.9,1021.5,490.9z"/>
<path id="adva11" class="st36" d="M825.5,256.7c0,0,205.5,35.7,237.2,64.2c0,0,64,36.9,64,41.9c0,0-15.2-25.4-46.3-41.9
	c-31.1-16.5-100.8-38.9-114.8-43.2C951.6,273.3,839.4,257.6,825.5,256.7z"/>
<path id="adva10" class="st132" d="M778.3,256.6l139.1,19.9l95.1,27.8c0,0,84.1,28.9,105.9,66.5l43.5,53.3c0,0,8.4,4.7,11.3,24.8
	c2.9,20.1-0.4,61.3,9.1,48.1c9.5-13.1-1.6-68.1-1.6-68.1s-92.4-98.3-101.9-101.3c-9.4-3-143.4-54.6-174.7-55.8
	C904.1,272,836.8,253.8,778.3,256.6z"/>
<path id="adva9" class="st133" d="M745.4,252.3c0,0,226.5,37.4,229.1,43.5c0,0,104.7,48.7,106.6,54.1c0,0,44.4,41.5,45.6,47.1
	c0,0,26,26.2,29.7,45.9c0.9,4.4,6.5,5.8,9.3,2.2c2.2-2.8,3.5-6.6,1.5-11.9c-5-13.4-62.8-79.7-69.2-83.3
	c-6.3-3.6-104-54.9-117.3-58.8C967.5,287.2,779.6,249.2,745.4,252.3z"/>
<path id="adva8" class="st134" d="M783.2,264.2c0,0,264.7,48.3,298.5,100.2c0,0,67.7,71.8,71.9,96c0,0,12,39.4,0,66.1
	c0,0-14.9,7.9-13,23.4c0,0,10.7,32.7,24.6,3.3c13.9-29.4-8.8-110.3-8.8-110.3s-40.6-81.1-75.4-93c0,0-130.2-80.9-208.2-79.1
	c0,0-102.4-15.2-109.3-14.1C756.7,257.6,729.9,262.7,783.2,264.2z"/>
<path id="adva7" class="st135" d="M753.1,633.3c0,0,10.7,3.8,5.8,9.7l69-6.9c0,0,44.6-0.7,60.6-8.4c0,0,69.6-17,85.2-33.2
	c0,0,60.3-37.4,73.9-53.5c0,0,23.8-14.5,29.1-27.2l9.2-22.8v-58.4l-47.9-54.6l-30.4-24.2l-16.4-12.4l-63-26.7L846,295.8l-45.3-8.6
	l-49.5,1.9c0,0-9,6.3,8.2,6.8l56.2,2.9c0,0,59.1,6.8,106.4,23.1c0,0,15.7,5.5,23.8,10.4c0,0,75.6,30.7,74.2,39.3
	c0,0,49.1,45.9,51.4,59c0,0,12,30.7-21,78.7c0,0-2.5,12.7-12.7,21.9c0,0-69.1,58.9-80.6,63.2c0,0-65.1,24.9-86.6,29.1
	C870.7,623.3,764.2,636.4,753.1,633.3z"/>
<path id="adva6" class="st136" d="M667.7,304.2c0,0,69.9-12.7,75.3-8.2c0,0,5.2,9.5,0.2,12.7l-49.8,4.4L667.7,304.2z"/>
<path id="adva5" class="st137" d="M759.5,268.9c0,0,113.5,15.2,117.9,17.7S951,304,951,304s64.7,23.8,64,26.9c0,0,43.1,23.4,45,29.8
	c0,0,40,38.3,40,41.6s23.4,21.9,22.2,47.6c0,0,24.7-4.2,17.1-18.8c-7.6-14.5-63.4-75.3-73.5-81.4c-10.2-6.1-61.5-33-70.3-37
	c-8.9-4.1-88.4-34.3-111.6-32C883.8,280.9,810.1,259.2,759.5,268.9z"/>
<path id="adva4" class="st138" d="M1123.3,537.4c0,0,8.8-15.8,18.9-20.8c0,0-11.7-57.5-5.9-63.4c5.8-5.9,31.7-19,17.3,73.1
	C1153.7,526.4,1123.3,561.6,1123.3,537.4z"/>
<path id="adva3" class="st139" d="M725.8,277.2l45.8,1.2l71.8,6.5l106.8,26.3c0,0,39.8,15.1,47.3,19.7c7.4,4.6,64.1,43.3,64.1,43.3
	l46.8,51.3c0,0,2.4,60.5-5,83.7c0,0-3.6,14.2-12.3,18.3l-17.1,23.6l-73.8,46.8c0,0-66.9,42.8-97.9,40.6l-33.6,7.6L656.6,654
	l-92.3-9.5c0,0,21.4,16,71.7,24.4c0,0,180.6,4.8,225-1c44.4-5.8,96.1-23.1,96.1-23.1s51.4-17,78.9-35.3c0,0,56.6-39.7,72.7-48.6
	c0,0,24.7-44.3,33.6-44.3c0,0-10.3-46.4-5.9-63.4c0,0-35.2-71.4-67.2-90.4l-54.1-31.7c0,0,1.8-0.5-8.1-4.8l-45.5-18.4l-10.4-3.8
	c0,0-43.3-9.6-45.6-10.2c-2.4-0.5-27.9-7.3-27.9-7.3l-117.9-17.7C759.5,268.9,734,270.9,725.8,277.2z"/>
<path id="adva2" class="st140" d="M1076.6,513.7c0,0,10.2,27.3,22.9,5.7c12.7-21.6,12.1-89.4,8.9-93.9c-3.2-4.5-38.7-49.5-56.4-57.7
	c0,0-65.3-47.6-84.3-52c-19-4.5-121.1-34.2-140.8-32.4c0,0-105.5-7.9-106.8-5.9c-1.3,2-0.6,10.3,4.5,11.5c5,1.3,68.1-2.6,76.3-1.9
	c8.2,0.6,144,27.3,150.3,36.1c0,0,55.2,21.6,56.4,30.5c0,0,59.7,48.9,59,53.2c0,0,20.3,20.3,19.3,25.3c-1,5,2.9,52.2,0,58.4
	C1083,496.9,1080.4,506.1,1076.6,513.7z"/>
<path id="adva1" class="st141" d="M732.9,295.4c0,0,88.7,1.2,123,8.9c34.2,7.7,83.1,21.1,90,28c6.9,6.9,71,29.8,74.2,39.3
	c0,0,41.6,37.4,51.4,59c8.2,18.2-7.6,66-21,78.7l-5.7-45c0,0-8.9-47.9-26.6-61.7c-17.7-13.8-43.7-35.9-55.2-41.7
	c-11.4-5.7-90-38.7-109-43.1s-117.9-9.3-117.9-9.3L732.9,295.4z"/>
<g id="amudgroup">
	<path id="mask" class="st142" d="M874.1,529.2l-323.3,1.9l123-236.2c0,0,47.2-26.9,58-26.6l19.5,0.6l51.8,31.8L874.1,529.2z"/>
	<g id="amud">
		<path class="st143" d="M725.2,302.3l0.2,14.9l10.4,3.3l4,2.9l3.4-2.4l0.2-4.2l1.2,0.7l0.9-7.8h-1.3v1.5h-1.7c0,0,0.1,6.1-4.8,6.2
			l-9.8-2.2l9.5,0.6l2.9-4.6l-7.2-4.7l-6.7-5L725.2,302.3z"/>
		<path class="st144" d="M725.5,323.8l-9.7,73.1l1.8,3.6c0,0-0.9,2.4,0.7,3.5c0,0,3.2,6.4,4-1.6l6.9,4.7h8.3c0,0,5.8,1.4,11.1-7.8
			v4.8l1.1-0.1v-15.9l-2.1-0.2l4.3-66.5l-9.5,10.6C742.3,332,735.5,324.7,725.5,323.8z"/>
		<path class="st145" d="M701.5,418.8c0,0,4-8,7.6-19.9c0,0,6.8-26,7.2-30.3l3.7-33.8c0,0,3.6-7.5,3.5-26.2c0,0-1.8-7.9-1.1-10.3
			c0,0,4,8.9,3.1,18.5l-3.1,29l-3.7,21l-1.4,25.2l-3.7,10.2c0,0-1.1,9.4,8.8,12c0,0,23.1,4.5,26.4-10.3l0.2-17.4l-1.9,0.1l1.9-79.2
			l3,13.7l1.3,81.1c0,0,1.8,0.7,2.9,9c0,0-4.1,12.2-14.5,12.7c0,0-4.9,5.8-11.8,3.6L701.5,418.8z"/>
		<path class="st146" d="M672.4,468.1c0,0,0.1,11.8,4.3,11.8l9.6-1l1.6,5.8l-1.6,10.6c0,0,29,2.6,31.4,8.2l12,7.1
			c0,0-4.8,8.6-12.5,10.7c-7.7,2.1,0.6,6.4,0.6,6.4h10c0,0,5.3,2-1.7,4.9l-43.7-3.4l-37.3-18.7c0,0,14.9-10,14.1-14.1
			c0,0-3.3-7.5-2.9-10.2L672.4,468.1z"/>
		<path class="st147" d="M742.3,518.5c0,0,24.3-1.3,29.2,2.8c0,0,30.3,3.4,37-8.1c0,0,4.9-12.4,0-12.9c0,0-16.5,0.6-18.5-2.1
			c-2-2.8-3.5-5.6,3.8-9.6c0,0,14.8-9.6,14.6-15.2L774.4,443c0,0-1.1-2.6-7.9-6.2l-7.1-5.9v-10.7l-0.6-3.4l-1.5-2.6l-0.3,5.1
			c0,0-8.3,9.7-19.2,9.9c0,0-15.4,0.9-20.1-1.7h-5.9c0,0,0,12.9-3.6,17.3c0,0-11.9,2.8-14.5-2l-21.4,24.9c0,0,4.9,6.4,8.6,11.8v15
			l20,1.5c0,0,21.6,4.9,19.3,12.8C720.2,509.3,729.7,510.6,742.3,518.5z"/>
		<path class="st148" d="M729.7,510.6v-5.2l5.5-5l-4-2.6c0,0-1.8-2.8,6.7,0l12.6,5.8v4.3l-4.3,0.9L729.7,510.6z"/>
		<path class="st148" d="M723.5,486.9c0,0,12.4,5.7,14.2,4c0,0-5.8-8.6-9.9-6.2C723.5,486.9,723.5,486.9,723.5,486.9z"/>
		<path class="st149" d="M750.5,483.6l-3.7-7.1c0,0-23.3,7.7-23.4,10.4c-0.1,2.7,17.5,7.1,27,0c0,0,9.9-9.3,12.6-10.4
			c0,0-3.6,10.6-1.7,12.7c0,0-6.2,12.5,6.7,10.9c0,0,21.7-10,24.5-14.4c0,0,5.1-0.5,7.6-3.8c0,0,5.7-4.2,4.9-6.9l-30.7-32L761,427.8
			c0,0-2.7-1.1-1.6,3.2c1.1,4.3,7.1,15.9,7.1,15.9l7.6,6.3l-1.9,8.1l4.6,6.6l-4.6,4l-3-4c0,0-6.2-5-6.2,1.7L750.5,483.6z"/>
		<path class="st150" d="M674.5,462.1l-27,17.7l3.1,11l5.8,0.7c0,0-2.1,8.3-4.6,8.6c0,0-10.8,6.3,0.3,16.4l30.3,12.6L720,532
			c0,0-41.8-10.4-45.6-10.5c-3.8,0-15.6-5.8-18.1-11.1c0,0-7.3,0-2.1-7.1c5-7.1,8-6.5,5.1-11.9c-2.9-5.3-4-4.7,1.2-10
			C665.6,476.2,672.3,476.2,674.5,462.1z"/>
		<path class="st151" d="M629.2,514.7l16-4.1l-1.9-5.2l7.4-8.1v-6.4l5.8,0.7c0,0-11.5,16.2-7.9,20.6l34,17l37.6,2.9l-60.8-2.9
			l1.7-4.8l-17.9,0.4L629.2,514.7z"/>
		<path class="st152" d="M686.3,495.3l-9.6-15.4c0,0-1.6-11.7-7.3-6.3c-5.8,5.3-13.5,9.5-8.4,14.1S686.3,495.3,686.3,495.3z"/>
		<path class="st153" d="M775.1,503.5c0,0,10.7-1,11.3,3.1c0,0-0.3,5.7-7.7,4.8c0,0-20.2-0.6-25.3,1.7l-11,5.2c0,0,40.4,6,44,4.4
			c0,0,20.1-2.4,22.1-9.6c0,0,1.8-10.3,0-12.9l-18.5-2.1c0,0-6.5-3.7,3.8-9.6c0,0,10.5-3.8,11.3-6.9c0.7-3.1-0.7,3.1-0.7,3.1
			s3.3-6.4-11.8,1.2c0,0-19.1,12.9-24.5,14.4C762.9,501.7,775.1,503.5,775.1,503.5z"/>
		<path class="st154" d="M759.5,420.4c0,0,11.8,15.6,15,18c0,0,2.7,6.2-4.6,0.5C769.9,438.9,760.2,423.8,759.5,420.4z"/>
		<path class="st155" d="M701.5,418.8c0,0,23,13.3,36.3,10.7c0,0,17.1-3.1,19.2-9.9l-1.1-8.2c0,0-5.2,13.3-14.5,12.7
			c0,0-5.8,6-11.8,3.6L701.5,418.8z"/>
		<path class="st61" d="M713.5,402.5c0,0,1.5,11.8,8.8,12c0,0,23.1,3.8,26.4-10.3v-4.8c0,0-4.9,7.9-11.1,7.8h-8.3l-6.9-4.7
			c0,0-0.5,4.4-2.5,2.8c0,0-3.8-2-2.2-4.7c0,0-1-6.3-1.8-3.6L713.5,402.5z"/>
		<path class="st156" d="M693.7,443.1c0,0,18.2,13.9,18.2-15.2l-2.9-1.6l-6.8-3.2C702.2,423.1,703.8,435.2,693.7,443.1z"/>
		<polygon class="st157" points="705.3,443.1 703.4,437.4 709.1,433.2 709.1,439.7 		"/>
		<polygon class="st157" points="711.8,417.9 714.3,417.9 714.3,416.3 715.1,414.5 715.1,412.7 713.5,412.7 712.7,415 		"/>
		<path class="st158" d="M727.4,332c0,0,10.4,0.5,8.9,5.5l-7.6,10.3c0,0-1.3,24.5,0.5,27.5c0,0,5.9,12.2,8.3,12.9
			c0,0-7.6-2.8-10.3-7.6c0,0-1.5-7.4-4-7.5c0,0-2.9-4.1-4.5,0c0,0,1-6,3.3-5.9c0,0,3.3-11.7,3.1-21.9l-3.1,1
			C722.3,346.1,721.6,332.2,727.4,332z"/>
		<path class="st159" d="M733.9,386.3c0,0,9.6-3.3,9.5-8.4l2.9-44.5l-4-1.4l6.4-7.1l-1.9,56.4l-9.2,13.9c0,0-1.2,5.7-7.7,1.7
			C723.3,392.9,733.9,386.3,733.9,386.3z"/>
		<path class="st160" d="M723.5,375.2v7.7l5.3,5.2l1.2,8.9c0,0,7.3,3.7,5.6-8.9l-8.1-7.6c0,0,0.5-7.4-4-7.5V375.2z"/>
		<path class="st161" d="M721.3,376.2l-1.2,22.3l-2.6,2c0,0-2.4,4.1,2.2,4.7c0,0,1.5,1.8,2.5-2.8l6.9,4.7c0,0,13.6,1.8,19.5-7.8
			v-8.8l-1.9,1.2l-0.5,8.9c0,0-6,4-10.5,3.5l-7.5-1.7v-8.3l-6-4.7l1.1-6.4C723.5,382.9,724,372.7,721.3,376.2z"/>
		<path class="st162" d="M728.7,388.2l-5.3-5.2l-1.1,6.4l6,4.7v8.3l7.5,1.7c0,0,8-0.4,10.5-3.5c2.5-3.1,0.5-8.9,0.5-8.9l1.9-1.2
			v13.7l1.1-0.1v-15.9l-2.1-0.2l-0.9-6.6l-9.2,13.9c0,0-6.1,4.5-7.7,1.7L728.7,388.2z"/>
		<path class="st163" d="M741.5,335.8c0,0,0.2,43.5-1.5,43.5s-9.4-1.9-10-6.2c0,0,1,12.5,7.7,12.2c0,0,4-1.5,5.5-5.7
			c1.5-4.2,3.2-46.2,3.2-46.2l-8.7-5.2L741.5,335.8z"/>
		<path class="st164" d="M725.5,323.8l16.8,8.2l6.4-7.1l1.1-8.6l-3.5,8.6c0,0-1,3.5-4,2.8L725.5,323.8z"/>
		<path class="st165" d="M726.2,322.4V319c0,0,12.4,4.1,13.5,4.3c0,0,7.7-4.6,7.7-7.5l2.5-0.6v1.2l-4.3,9.9c0,0-0.6,2-4.7,1.1
			L726.2,322.4z"/>
		<path class="st166" d="M723.5,322.4v-41.1l1.1-6.5l1.1-2.6l0.6-2.5l1.6-0.5l-0.6-5.2l2.5,0.9l3.3,4h6l3.4-4l1,1.5v3.4l0.6,1.2
			c0,0,1.7,6.8,1.6,9.8l0.6,3l-2.8,0.4l-1.1-2.9l-1.5-0.9l0.3-2.9c0,0,1-6.4-1-6.8l-8.8,3.5l-5.7,2.9l1.9,0.3l-2.2,2.7l-0.1,36.9
			l10.4,3.3l4,2.9l-13.5-4.3v3.4H723.5z"/>
		<path class="st167" d="M727.8,288.5h-2.2V285l2.2-0.5V280l-2.2,0.4l2.2-2.7l-1.9-0.3l3-1.5l11.4-4.9c0,0,3,0.9,1,6.8l-0.3,2.9
			l1.5,0.9l1.1,2.9l5.2,11.5l1.1,10.5h-1.1c0,0,1.5-8.4-4.3-12.5l-6.2-4.1l-10.5,0.4L727.8,288.5L727.8,288.5z"/>
		<polygon class="st168" points="725.5,281.4 725.5,284.2 727,284.6 727,280.2 725.5,280.3 		"/>
		<path class="st169" d="M725.5,289.9l10.6,3.7l8.6,2l4.2,7.4c0,0,1.7-6.6-4.3-9.4l-6.2-4.1L725.5,289.9z"/>
		<path class="st170" d="M725.5,288.5c0,0,18.3,5.8,19.7,8.3l3.5,6.3v9.2l0.9-0.4l0.2,1.3h-2.6v-7.5c0,0-2.7-6.9-5.7-8.3
			c0,0-7.5-0.9-9.4-1.1C732.1,296.4,724,294.9,725.5,288.5z"/>
		<path class="st171" d="M741.3,301.6v-2.1h2.5c0,0,5,2.8,3.4,13.8l0.1,2.6c0,0-1.1,3.4-2.9,4.1l-1.4,1.1l0.2-4.2c0,0,1.2,2,1.5-0.4
			c0,0,0.9-11.3,0.4-12.1C745.3,304.3,742.5,300.6,741.3,301.6z"/>
		<path class="st172" d="M728.3,295.8c0,0,3.7,3.2,5.6,3.6c0,0,3.6,2.4,3.7,0.7c0,0-0.1-3.3-2.8-3.5
			C734.8,296.7,730.2,296.2,728.3,295.8z"/>
		<path class="st173" d="M735.2,300.8c0,0,2.2,1.4,3.4,1.5c0,0,1.4,1.2,1.3,0l1.4-0.7c0,0-0.5-2.1,0-2.1c0.5,0,1.7,0,1.7,0v-1.2
			c0,0,0-0.6-2.5-1l-5.8-0.6c0,0,3.2,0.7,2.4,4.1L735.2,300.8z"/>
		<path class="st174" d="M725.3,294.9h3c0,0,10.7,7.7,11.2,7.9c0,0,1.1-1.8,2.8-1.3l3,2.8v4.5h-4c0,0,2.7-2.5-6.1-5.7L725.3,294.9z"
			/>
		<path class="st157" d="M742.3,311.2h1.7v-1.5h1.3l-0.3-2.4l-1.8,0.4C743.2,307.8,741.8,309.7,742.3,311.2z"/>
		<path class="st175" d="M725.3,298.6c0,0,11.9,6.6,12.3,8.7c0,0,2.5,2,2.5,4c0,0-1.5,4.1-2.9,4.6c0,0-7.9-2.2-9-2.6
			c0,0-2.4,0.3-0.5,1.9c0,0,8.2,2.2,9.8,2.2c0,0,4.5-0.3,4.6-3.2c0,0,1-6.8-1.8-8.4l-12-8.2C728.3,297.4,724.4,292.6,725.3,298.6z"
			/>
		<path class="st176" d="M726.2,302.9c0,0,10.7,4.6,10.3,7.4c0,0-2,3.7-6.5,3l7.4,2.6l2.9-4.6c0,0-1.9-8.4-14.8-12.6
			C725.3,298.6,724,300,726.2,302.9z"/>
		<path class="st177" d="M728.1,316.6c0,0,6.6,3,8.1,2.7c0,0,2.6,0.5,4-0.9c0,0,1.3-1.2,2-0.7c0,0,1.3-1,1.6-1.7
			c0,0-0.5-1.9-1.9-0.6c0,0-4.6,4.2-6.5,2.7C735.2,318,730.9,315.6,728.1,316.6z"/>
	</g>
</g>
<g id="serif">
	<g>
		<path class="st141" d="M725.9,256.9l-23.1-2.8c-9.9-1.1-14.9-11.3-14.9-31c0-17.5,3.4-26.5,10.4-26.5c1.1,0,2,1.4,2.8,4.5
			c1.1,3.7,2,6.2,3.4,7.3c1.7,1.1,6.8,2,16.1,2.8c9.3,0.6,15.5,1.7,18,3.4c9.6,5.6,14.4,15.8,14.4,30.7c0,3.1,0,5.1-0.3,6.8
			C752.5,255.2,732.9,258,725.9,256.9z"/>
	</g>
	<path class="st178" d="M699.2,248.4c0,0-11.5-16.5-7.8-28.8c0,0,6.7,25.9,11.9,25.3c5.1-0.5,9,6.5,9,6.5L699.2,248.4z"/>
	<path class="st179" d="M704.6,240.8c0,0-12.1-17.3-10.8-23.9c1.3-6.6,10.8,18.5,10.8,18.5s0.9,4.3,4.5,5.5
		C712.7,242,711.3,246.8,704.6,240.8z"/>
	<path class="st180" d="M698.3,201.4c0,0,1,10.8,5.1,11.3c4.2,0.5,17.3,1.8,17.3,1.8l-8.3,7.2c0,0-3.3,8.4-2.9,11.2
		c0.3,2.8-15.3-18.6-15.7-20.1C693.2,211.1,689,202.1,698.3,201.4z"/>
	<path class="st40" d="M707,238c0,0-4.2-5-3-7.2c1.2-2,7.2,6,6.9,7.2C710.7,239.1,709.6,240.6,707,238z"/>
	<path class="st178" d="M695.6,198.3c0,0,4.5,0.7,5.9,6.5c1.4,5.8,7.7,6.1,7.7,6.1l15.8,1.8l-4.3,0.7c0,0-14.9,0.4-16.8-2.2
		c-1.8-2.7-5.2-6.7-5-8.8C699.1,200.3,695.6,198.3,695.6,198.3z"/>
	<path class="st181" d="M689.7,209.4c0,0-1.5,13.5-1.1,15.5c0.4,2,1.4,17,3.7,20.7c2.4,3.7,3.3,4.1,3.3,4.1l-4.2-13.6
		c0,0-2.8-14.5-0.7-20.4C692.7,209.8,689.7,209.4,689.7,209.4z"/>
	<path class="st182" d="M698.5,251.6l4.5,2.6l12.6,1.5C715.6,255.6,703.8,251.8,698.5,251.6z"/>
</g>
<g id="drop">
	<path class="st180" d="M716.3,232.6c0,0,0.3-2.9,3.8-3.5c0,0,10.8,2.1,15.5,3.5c0,0,7.7-1.4,9.6,1.4c0,0,9.7-2.9,6,2.7
		c0,0,2.6,3.6-14.1,6.1c0,0-7.7,2.1-15.8-3.5c0,0-2.6,3.2-1.5,4.6l7.2,3.4l1.7,0.7c0,0,0.9,2.6-2.7,1l-9.6-5.1L716.3,232.6
		L716.3,232.6z"/>
	<path class="st182" d="M716,251.4l11.1,12.6l2.5,0.9l3.3,4h6l3.4-4c0,0,1.4,0.7,1,4.9l2,7.8h1.5l-3.1-13c0,0,12.5-13.8,12.3-15.4
		v-2.7l-1.2,0.4c0,0-0.6,1.8-0.9,3.3l-10.8,13.4c0,0-6.8,2-9.1,1.3h-2.8c0,0-2.9-0.7-2.9-2l-9.8-11.7
		C718.5,251.2,712,243.6,716,251.4z"/>
	<path class="st178" d="M717.4,247.9v2.1l12.2,14.9c0,0,7.4,1.7,13.6-1.3l10.9-13.5l-0.5-3.7h-2.5c0,0-3.6,6.4-10.9,6.8l-13.1,0.1
		C727,253.4,719.6,247.7,717.4,247.9z"/>
	<path class="st183" d="M716.3,243.7c0,0,8.1,5.5,12.4,5.9c0,0,12.9,0.5,14.3,0c0,0,6.7-1,7.9-3.3c1.2-2.4-1.3,4.8-10.9,6.8
		c0,0-10.2,2.2-13.1,0.1l-9.5-5.6C717.4,247.9,716.6,246.6,716.3,243.7z"/>
	<path class="st184" d="M753.5,240.2c0,0-5.7,6.7-9.1,7.3c0,0-3.5,2-1.4,2.1c0,0,8.4-0.7,10.9-5.9c0,0,1.7,0.4,1-5.3
		C754.9,238.4,753.1,236.7,753.5,240.2z"/>
	<path class="st185" d="M721.3,239.2c0,0,7.7,6.1,15.8,3.5c0,0,11.8-0.5,14.1-6.1c0,0,2.4-2.6,2.2,3.5c0,0-2.5,4.9-9.1,7.3
		c0,0-12.3,2-17.5,0C727,247.5,710,242.9,721.3,239.2z"/>
	<path class="st179" d="M728.7,249.7c0,0,6.4,3.3,14.3,0c0,0,3.7,0.5,3.1-2.9c0,0-10.5,2.5-14.9,1.6
		C726.9,247.6,725,249.5,728.7,249.7z"/>
	<path class="st40" d="M734.8,240.3c0,0,12.7-2.4,14.1-4.3l2.4,0.5c0,0-10.4,6.4-14.1,6.1C733.5,242.3,734.8,240.3,734.8,240.3z"/>
	<path class="st186" d="M720.2,226.3l18.8,0.5l7.4,1.7l5,0.5v1.7h-6.8c0,0-2.1-2.5-11.5-2.2h-10.6L720.2,226.3z"/>
	<path class="st187" d="M721.3,224.1c0,0,7.2-7.6,15.8-4.9c0,0,12.2,4.6,14.1,10c0,0-7.6-0.5-12.3-2.2l-18.8-0.5L721.3,224.1z"/>
	<path class="st188" d="M723.5,221.4c0,0,7.7-5.2,11.9-4.4c0,0,9.8,3.7,11.8,6.3l2.5,3.1c0,0-12.4-8.1-15.6-7.8
		C730.5,218.8,723.9,220.1,723.5,221.4z"/>
	<polygon class="st189" points="716.3,243.7 716.2,235.4 714.7,236.1 714.7,243.8 	"/>
	<path class="st181" d="M713.5,249.1c0,0-2.8-16.6,0-20.4c0,0,3.2-12.9,10.7-13.9c0,0,9-3.4,13.4-1.4c0,0,12.5,4.8,12.2,8.9
		c0,0,3.7,5,3.7,7.7c0,0-0.4,2-2.2-0.7l-6.8-10.6c0,0-6.1-4.4-8.8-3.8l-9,0.6c0,0-9.6,4.9-10.4,8.6c0,0-2.8,8.3-3,11.5
		C713.4,235.4,713.5,246.2,713.5,249.1z"/>
	<path class="st178" d="M716.3,230.3v-6.5c0,0,4.7-7.2,10.4-8.6c0,0,10.5-1.9,12.2,0c0,0,10.4,5,10.6,11c0,0-12.6-10.2-15.6-9.4
		C733.9,216.9,722.4,218.4,716.3,230.3z"/>
</g>
</svg>
