<?xml version="1.0" encoding="utf-8"?>
<!-- Generator: Adobe Illustrator 21.0.2, SVG Export Plug-In . SVG Version: 6.00 Build 0)  -->
<svg version="1.1" id="Layer_1" xmlns="http://www.w3.org/2000/svg" xmlns:xlink="http://www.w3.org/1999/xlink" x="0px" y="0px"
	 width="1440px" height="900px" viewBox="0 0 1440 900" style="enable-background:new 0 0 1440 900;" xml:space="preserve">
<style type="text/css">
	.st0{fill:none;stroke:#FF0000;stroke-width:7;stroke-miterlimit:10;}
	.st1{fill:#FF0000;}
	.st2{fill:none;stroke:#0000FF;stroke-width:7;stroke-miterlimit:10;}
	.st3{fill:#0000FF;}
	.st4{fill:none;stroke:#FF00F9;stroke-width:7;stroke-miterlimit:10;}
	.st5{fill:#00FF00;}
	.st6{fill:#00FFFF;}
</style>
<g id="igulim">
	<circle id="igul" class="st0" cx="306" cy="247.9" r="96.5"/>
	<circle id="igul2" class="st1" cx="306" cy="247.9" r="30.5"/>
</g>
<g id="ribuim">
	<rect id="ribua" x="1046.9" y="165.9" class="st2" width="163" height="163"/>
	<rect id="ribua2" x="1103.9" y="222.9" class="st3" width="49" height="49"/>
</g>
<g id="polym">
	<polygon id="poly" class="st0" points="715.8,557.4 623.3,624.7 658.6,733.3 773,733.3 808.3,624.7 	"/>
	<polygon id="poly2" class="st1" points="715.8,621.9 683.9,645.2 696.1,682.8 735.5,682.8 747.7,645.2 	"/>
</g>
<g id="teeth">
	<g id="saw1">
		<polygon class="st4" points="643.6,217.1 589.2,311.4 698,311.4 		"/>
		<polygon class="st4" points="715.4,217.1 661,311.4 769.8,311.4 		"/>
		<polygon class="st4" points="788.4,217.1 734,311.4 842.8,311.4 		"/>
	</g>
	<g id="saw2">
		<polygon class="st4" points="750.9,278.9 805.4,184.6 696.5,184.6 		"/>
		<polygon class="st4" points="679.1,278.9 733.6,184.6 624.7,184.6 		"/>
	</g>
</g>
<g id="ribuim2">
	<rect id="ribua4" x="225.5" y="666.3" class="st5" width="160" height="59.8"/>
	<rect id="ribua3" x="225.5" y="576.3" class="st5" width="160" height="59.8"/>
</g>
<g id="igulim2">
	<circle id="igul3" class="st6" cx="1059.8" cy="714.3" r="34.3"/>
	<circle id="igul4" class="st6" cx="1128.4" cy="714.3" r="34.3"/>
	<circle id="igul5" class="st6" cx="1196.2" cy="714.3" r="34.3"/>
	<circle id="igul6" class="st6" cx="1196.2" cy="645.3" r="34.3"/>
	<circle id="igul7" class="st6" cx="1128.4" cy="645.4" r="34.3"/>
	<circle id="igul8" class="st6" cx="1059.8" cy="645.4" r="34.3"/>
	<circle id="igul9" class="st6" cx="1059.8" cy="576.8" r="34.3"/>
	<circle id="igul11" class="st6" cx="1128.4" cy="576.8" r="34.3"/>
	<circle id="igul10" class="st6" cx="1196.2" cy="576.3" r="34.3"/>
</g>
</svg>
