<?xml version="1.0" encoding="utf-8"?>
<!-- Generator: Adobe Illustrator 21.0.2, SVG Export Plug-In . SVG Version: 6.00 Build 0)  -->
<svg version="1.1" id="Layer_1" xmlns="http://www.w3.org/2000/svg" xmlns:xlink="http://www.w3.org/1999/xlink" x="0px" y="0px"
	 width="1920px" height="1080px" viewBox="0 0 1920 1080" style="enable-background:new 0 0 1920 1080;" xml:space="preserve">
<style type="text/css">
	.st0{fill:#FFFFFF;}
	.st1{fill:none;}
	.st2{display:none;}
	.st3{display:inline;}
	.st4{fill:none;stroke:#000000;stroke-miterlimit:10;}
</style>


<g id="Layer_1_1_">
	<g id="mem_1_">
		<g id="mem">
			<path class="st1" d="M1174.8,230.8H587.1v205.6h101l-93.7,433.2h293.2l66.9-433.2h64.5c25.6,0,37.7,12.2,37.7,35.3v221.4h-74.2
				v176.4h350.4V389c0-43.8-15.8-81.5-46.2-111.9C1256.3,246.6,1218.6,230.8,1174.8,230.8z"/>
		</g>
	</g>
	<g id="mask_1_" class="st2">
		<g id="mask" class="st3">
			<path class="st4" d="M0.5,0.5v1080h1920V0.5H0.5z M1328.1,863.1H977.6V686.6h74.2V465.2c0-23.1-12.2-35.3-37.7-35.3h-64.5
				l-66.9,433.2H589.5l93.7-433.2h-101V224.3h587.7c43.8,0,81.5,15.8,111.9,46.2s46.2,68.1,46.2,111.9L1328.1,863.1L1328.1,863.1z"
				/>
		</g>
	</g>
</g>
</svg>
