<?xml version="1.0" encoding="utf-8"?>
<!-- Generator: Adobe Illustrator 21.0.2, SVG Export Plug-In . SVG Version: 6.00 Build 0)  -->
<svg version="1.1" xmlns="http://www.w3.org/2000/svg" xmlns:xlink="http://www.w3.org/1999/xlink" x="0px" y="0px" width="1536px"
	 height="864px" viewBox="0 0 1536 864" style="enable-background:new 0 0 1536 864;" xml:space="preserve">
<style type="text/css">
	.st0{fill:#FFFFFF;}
	.st1{fill:#6B6B6B;}
	.st2{fill:none;}
	.st3{fill:none;stroke:#000000;stroke-width:28;stroke-miterlimit:10;}
</style>
<g id="Layer_2">
	<rect class="st0" width="1536" height="864"/>
</g>
<g id="Layer_1">
	<g id="bg">
		<rect x="1415.5" y="485.4" class="st1" width="205.4" height="4.7"/>
		<rect x="350" y="69.1" class="st1" width="267.8" height="11.6"/>
		<rect x="31" y="415.2" class="st1" width="236.5" height="10.3"/>
		<rect x="303.1" y="765.1" class="st1" width="208.4" height="8"/>
		<rect x="1028.4" y="420.3" class="st1" width="132.7" height="5.1"/>
		<rect x="1331.8" y="131.5" class="st1" width="519.1" height="12.5"/>
		<rect x="1303.3" y="131.5" class="st1" width="14.2" height="14.2"/>
		<rect x="1282" y="131.5" class="st1" width="14.2" height="14.2"/>
		<rect x="1260.7" y="131.5" class="st1" width="14.2" height="14.2"/>
		<rect x="1239.3" y="131.5" class="st1" width="14.2" height="14.2"/>
		<rect x="185.9" y="302.2" class="st1" width="494.7" height="9.3"/>
	</g>
	<g id="bg2">
		<rect x="1213.3" y="197.1" width="455.1" height="4.7"/>
		<rect x="-137.8" y="372.5" width="362.7" height="4.7"/>
		<rect x="-47.7" y="211.3" width="630.5" height="4.7"/>
		<polygon points="1734.7,425.5 1488.2,425.5 1488.2,425.5 		"/>
		<rect x="1289.1" y="415.2" width="28.4" height="10.3"/>
		<rect x="-104.6" y="114.2" width="1000.3" height="4.7"/>
		<rect x="1146.9" y="90.5" width="440.9" height="7.1"/>
		<rect x="-272.9" y="732.8" width="1507.5" height="4.7"/>
		<rect x="950.2" y="702" width="661.3" height="7.1"/>
		<rect x="1028.4" y="815.8" width="583.1" height="7.1"/>
		<rect x="-126" y="557.4" width="393.5" height="4.7"/>
		<polygon points="598.4,557.4 637.3,557.4 637.3,557.4 		"/>
		<polygon points="1213.3,585.9 1213.3,585.9 1213.3,585.9 		"/>
		<rect x="1376.8" y="456.9" width="234.7" height="7.8"/>
		<rect x="1376.8" y="396.2" width="5.9" height="5.9"/>
		<rect x="1213.3" y="585.9" width="14.2" height="14.2"/>
		<rect x="568.5" y="794.4" width="381.6" height="7.1"/>
		<rect x="224.8" y="628.5" width="8.3" height="8.3"/>
		<rect x="4.4" y="749.4" width="298.7" height="7.1"/>
		<rect x="310.3" y="749" width="7.9" height="7.9"/>
		<rect x="327.1" y="749" width="7.9" height="7.9"/>
		<rect x="343.7" y="749" width="7.9" height="7.9"/>
		<rect x="1303.3" y="278.5" width="271.8" height="7.8"/>
		<rect x="1220.4" y="537.5" width="425.9" height="4.7"/>
		<rect x="395.5" y="636.8" width="1712.3" height="11.4"/>
		<rect x="310.3" y="362.1" width="327" height="10.4"/>
		<rect x="978.7" y="349.4" width="201.3" height="4.7"/>
		<rect x="-68.6" y="49.1" width="1205.9" height="6.3"/>
		<rect x="1415.5" y="377.3" width="188.1" height="7"/>
		<rect x="-97.1" y="475.9" width="411.3" height="4.7"/>
		<rect x="1079.4" y="144" width="133.9" height="3.2"/>
		<rect x="1270.1" y="38.1" width="61.6" height="3.2"/>
		<rect x="318.1" y="856.8" width="193.3" height="4.7"/>
		<rect x="497.2" y="480.6" width="246.6" height="9.5"/>
	</g>
	<g id="bg3">
		<rect x="1538.8" y="513.8" width="56.9" height="1.6"/>
		<rect x="1466.1" y="559.8" width="88.5" height="2.4"/>
		<polygon points="590.5,286.2 83.1,286.2 83.1,286.2 		"/>
		<rect x="331.1" y="174" width="289.5" height="4.7"/>
		<rect x="31" y="278.5" width="184.9" height="3.9"/>
		<rect x="996.7" y="260.9" width="110.6" height="4.7"/>
		<rect x="1259" y="166.1" width="352.4" height="7.9"/>
		<rect x="996.7" y="475.9" width="273.4" height="2.4"/>
		<rect x="1466.1" y="756.9" width="229.2" height="8.2"/>
		<polygon points="1538.8,842.6 1580.7,842.6 1580.7,842.6 		"/>
		<rect x="314.2" y="531.2" width="239.9" height="6.3"/>
		<rect x="-18" y="618.1" width="321.1" height="1.6"/>
		<rect x="620.5" y="80.8" width="48.8" height="3.2"/>
		<rect x="961.9" y="83.9" width="6.5" height="6.5"/>
		<rect x="480.8" y="278.5" width="7.8" height="7.8"/>
		<rect x="267.5" y="156.6" width="35.6" height="9.5"/>
		<rect x="215.4" y="156.6" width="35.6" height="9.5"/>
		<rect x="65.4" y="156.6" width="35.6" height="9.5"/>
		<rect x="1314" y="569.1" width="35.6" height="9.5"/>
		<rect x="1271.3" y="569.1" width="35.6" height="9.5"/>
		<rect x="1359.1" y="569.1" width="35.6" height="9.5"/>
		<rect x="1415.6" y="569.1" width="35.6" height="9.5"/>
		<rect x="1472.1" y="569.1" width="35.6" height="9.5"/>
		<rect x="1528.6" y="569.1" width="35.6" height="9.5"/>
		<rect x="1064.6" y="197.1" width="4.7" height="4.7"/>
		<rect x="925.6" y="197.1" width="123.5" height="2.4"/>
		<rect x="343.7" y="447" width="3.9" height="3.9"/>
		<rect x="350" y="447" width="3.9" height="3.9"/>
		<rect x="358.3" y="447" width="3.9" height="3.9"/>
		<rect x="366.2" y="447" width="3.9" height="3.9"/>
		<rect x="1079.4" y="539.9" width="81.8" height="2.4"/>
		<rect x="1234.6" y="337" width="160" height="2.4"/>
		<polygon points="459.5,842.6 4.4,842.6 4.4,842.6 		"/>
	</g>
	<g id="kari">
		<g>
			<path d="M895.4,669.1c-13.2-0.7-25.5-8.7-31-21.8c-7.6-18.1,0.9-39,19-46.6c54-22.7,90.3-73.1,94.6-131.5
				c3.1-41.3-10.1-81.2-37.2-112.6s-64.6-50.3-105.9-53.3c-43.1-3.2-85.8,11.9-117.3,41.5c-14.3,13.4-36.8,12.7-50.3-1.6
				c-13.4-14.3-12.7-36.8,1.6-50.3c22.6-21.1,48.7-37.2,77.7-47.7c30-10.9,61.5-15.2,93.5-12.8c30.4,2.2,59.5,10.4,86.4,24.2
				c26,13.3,48.9,31.4,68.1,53.6c19.2,22.2,33.6,47.5,43,75.2c9.7,28.7,13.5,58.6,11.2,89.1c-3.1,42.4-18,82.8-43,116.9
				c-24.3,33.1-57.2,59-95,74.9C905.9,668.5,900.6,669.3,895.4,669.1z"/>
			<path d="M823.8,488.3c19.6,0,35.6,15.9,35.6,35.6v222.9c0,19.6-15.9,35.6-35.6,35.6s-35.6-15.9-35.6-35.6v-223
				C788.3,504.2,804.2,488.3,823.8,488.3z"/>
		</g>
		<circle class="st2" cx="824" cy="456.9" r="154.7"/>
		<circle class="st3" cx="824" cy="456.9" r="4368.9"/>
	</g>
	<g id="lokari">
		<path d="M897.2,668.4c-13.2-0.6-25.6-8.5-31.1-21.5c-7.8-18,0.6-39,18.6-46.7c53.8-23.2,89.7-73.9,93.5-132.3
			c2.7-41.3-10.9-81.1-38.1-112.2S875,306,833.7,303.3c-43.1-2.8-85.7,12.7-117,42.5c-14.2,13.6-36.7,13-50.3-1.2s-13-36.7,1.2-50.3
			C690,273,716,256.7,744.9,246c29.9-11.1,61.4-15.7,93.4-13.6c30.4,2,59.6,9.9,86.6,23.5c26.1,13.1,49.2,30.9,68.5,53
			c19.4,22.1,34,47.2,43.6,74.8c10,28.6,14,58.5,12,89c-2.8,42.4-17.3,82.9-42,117.2c-24,33.3-56.6,59.5-94.3,75.8
			C907.7,667.7,902.4,668.7,897.2,668.4z"/>
		<rect x="-1477.9" y="-1845.1" class="st3" width="4603.8" height="4603.8"/>
	</g>
</g>
</svg>
