<?xml version="1.0" encoding="utf-8"?>
<!-- Generator: Adobe Illustrator 21.0.2, SVG Export Plug-In . SVG Version: 6.00 Build 0)  -->
<svg version="1.1" xmlns="http://www.w3.org/2000/svg" xmlns:xlink="http://www.w3.org/1999/xlink" x="0px" y="0px" width="1366px"
	 height="768px" viewBox="0 0 1366 768" style="enable-background:new 0 0 1366 768;" xml:space="preserve">
<style type="text/css">
	.st0{fill:#FFFFFF;}
	.st1{fill:#ED1E24;stroke:#DF1F26;stroke-miterlimit:10;}
	.st2{display:none;fill:#ED1E24;stroke:#DF1F26;stroke-miterlimit:10;}
	.st3{fill:#FF0000;stroke:#FF0000;stroke-miterlimit:10;}
	.st4{stroke:#000000;stroke-miterlimit:10;}
</style>
<g id="Layer_2_1_">
	<rect y="0" class="st0" width="1366" height="768"/>
</g>
<g id="Layer_1">
	<g id="Layer_2">
		<circle id="o39" class="st1" cx="323.7" cy="525.4" r="0.3"/>
		<circle id="o38" class="st1" cx="431.5" cy="485" r="0.3"/>
		<circle id="o37" class="st1" cx="898.6" cy="141.6" r="0.3"/>
		<circle id="o36c" class="st1" cx="890.7" cy="347.3" r="0.3"/>
		<circle id="o36b" class="st1" cx="740.7" cy="265.5" r="0.3"/>
		<circle id="o36" class="st1" cx="467.4" cy="242.6" r="0.3"/>
		<circle id="o35" class="st1" cx="287.7" cy="40.7" r="0.3"/>
		<circle id="o34" class="st1" cx="215.9" cy="262.8" r="0.3"/>
		<circle id="o33" class="st1" cx="611.4" cy="579.9" r="0.3"/>
		<circle id="o32" class="st1" cx="1110.3" cy="440" r="0.3"/>
		<circle id="o31" class="st1" cx="503.3" cy="606.2" r="0.3"/>
		<circle id="o30" class="st1" cx="1113" cy="231.3" r="0.3"/>
		<circle id="o29" class="st1" cx="108.1" cy="565.8" r="0.3"/>
		<circle id="o28" class="st2" cx="179.9" cy="384" r="0.1"/>
		<circle id="o27" class="st1" cx="1078.3" cy="20.5" r="0.3"/>
		<circle id="o26" class="st1" cx="259.9" cy="680.5" r="0.3"/>
		<circle id="o25" class="st1" cx="1329.8" cy="424.4" r="0.3"/>
		<circle id="o24" class="st1" cx="1042.3" cy="586" r="0.3"/>
		<circle id="o23" class="st1" cx="862.7" cy="505.2" r="0.3"/>
		<circle id="o22" class="st1" cx="182.4" cy="426.1" r="0.3"/>
		<circle id="o21" class="st1" cx="395.5" cy="343.6" r="0.3"/>
		<circle id="o20" class="st1" cx="359.6" cy="182" r="0.3"/>
		<circle id="o19" class="st1" cx="970.5" cy="666.8" r="0.3"/>
		<circle id="o18" class="st1" cx="1150.1" cy="646.6" r="0.3"/>
		<circle id="o17" class="st1" cx="1293.9" cy="707.1" r="0.3"/>
		<circle id="o16" class="st1" cx="1222" cy="545.6" r="0.3"/>
		<circle id="o15" class="st1" cx="1186.1" cy="283" r="0.3"/>
		<circle id="o14" class="st1" cx="1257.9" cy="81.1" r="0.3"/>
		<circle id="o13" class="st1" cx="1365.7" cy="161.8" r="0.3"/>
		<circle id="o12" class="st1" cx="72.1" cy="121.4" r="0.3"/>
		<circle id="o11" class="st1" cx="611.1" cy="60.9" r="0.3"/>
		<circle id="o10" class="st1" cx="695.2" cy="352.5" r="0.3"/>
		<circle id="o9" class="st1" cx="533.4" cy="307" r="0.3"/>
		<circle id="o8" class="st1" cx="36.2" cy="727.3" r="0.3"/>
		<circle id="o7" class="st1" cx="1006.4" cy="444.6" r="0.3"/>
		<circle id="o6" class="st1" cx="826.7" cy="747.5" r="0.3"/>
		<circle id="o5" class="st1" cx="633.6" cy="734.8" r="0.3"/>
		<circle id="o4" class="st1" cx="589.6" cy="419.9" r="0.3"/>
		<circle id="o3" class="st1" cx="754.9" cy="101.2" r="0.3"/>
		<circle id="o2" class="st1" cx="144" cy="0.3" r="0.3"/>
		<circle id="o1" class="st1" cx="18.5" cy="453.9" r="0.3"/>
	</g>
	<g id="Layer_3">
		<rect id="K13" x="696.8" y="1622.3" class="st3" width="13.9" height="50.9"/>
		<rect id="K12" x="696.8" y="1622.3" class="st3" width="13.9" height="50.9"/>
		<rect id="K12_1_" x="230" y="1737.8" class="st3" width="9.7" height="43.2"/>
		<rect id="K11" x="523.9" y="877.3" class="st3" width="6.8" height="41"/>
		<rect id="K10" x="1116.9" y="1471.3" class="st3" width="6.8" height="41"/>
		<rect id="K9" x="377.9" y="1098.4" class="st3" width="12.1" height="70"/>
		<rect id="K8" x="892" y="1197" class="st3" width="12" height="60.5"/>
		<rect id="K2" x="387.2" y="242.5" class="st3" width="6.8" height="41"/>
		<rect id="K5" x="831.2" y="698.3" class="st3" width="6.8" height="41"/>
		<rect id="K6" x="234.9" y="445.4" class="st3" width="7.5" height="28.9"/>
		<rect id="K3" x="621.7" y="378.9" class="st3" width="12" height="60.5"/>
		<rect id="K1" x="1276.5" y="595.8" class="st3" width="60.5" height="6.5"/>
		<rect id="K7" x="1597.7" y="462.4" class="st3" width="30.3" height="11.3"/>
		<rect id="K4" x="978.5" y="265.5" class="st3" width="90" height="9.7"/>
	</g>
	<g id="Layer_1_1_">
		<g>
			<path class="st4" d="M589.3,296.7c2.1,0,3.8-1.7,3.8-3.8l-0.2-213.7c0-3.1,1.9-4.4,3.9-5.6l0,0l-1.7,0.1
				c-2.1,0.1-4.2,0.4-6.2,0.9c-12.4,3.2-21.1,13-21.1,25.6v196.5H589.3z"/>
			<rect x="583.1" y="372.5" class="st4" width="194.8" height="5.2"/>
			<path class="st4" d="M791.4,395.2c-3.3-0.1-6.1-2.7-6.1-6.1c0,0,0,0,0-0.1v-12.6c0-2.2-1.8-3.9-3.9-3.9h-8h-11.7h-1.1h-5.2
				l0.2,0.1c1.4,0.7,2.7,1.7,3.7,2.8l0,0c0.8,0.8,1.2,1.9,1.2,3.1V398c0,2.2,1.8,0,3.9,0h1.1h6.9h0.9h11.9h6.4h10.2l-0.6-1.6
				L791.4,395.2z"/>
			<path class="st4" d="M606.5,374.8c-3.3-0.1-6.1-2.9-6.1-6.3c0,0,0,0,0-0.1v-69.5c0-2.2-1.8-3.9-3.9-3.9h-8h-11.7h-1.1h-5.2
				l0.2,0.1c1.4,0.7,2.7,1.7,3.7,2.8l0,0c0.8,0.8,1.2,1.9,1.2,3.1v72.7c0,2.2,1.8,3.9,3.9,3.9h1.1h6.9h0.9h11.9h6.4h10.2V375
				L606.5,374.8z"/>
			<path class="st4" d="M727,616.9c-3.3-0.1-6.1-2.7-6.1-6.1c0,0,0,0,0-0.1v-69.5c0-2.2-1.8-3.9-3.9-3.9h-8h-11.7h-1.1H691l0.2,0.1
				c1.4,0.7,2.7,1.7,3.7,2.8l0,0c0.8,0.8,1.2,1.9,1.2,3.1v72.5c0,2.2,1.8,3.9,3.9,3.9h1.1h6.9h0.9h11.9h6.4h5.8
				c3.2-0.1,5.1-0.4,6.3-0.7c1.6-0.5,0-1,0.7-1.9l0,0L727,616.9z"/>
			<path d="M740.3,540.9v69.5c0,0,0,0,0,0.1c0,3.3-2.8,6-6.1,6.1l-13.7,1.3l1.1,0.9l21-0.8l11.1-12.3l0.4-21.8v-40.1L740.3,540.9z"
				/>
			<path class="st4" d="M744.5,396.5c-2.1,0-3.8,1.7-3.8,3.8l0.2,213.7c0,3.1-1.9,4.4-3.9,5.6l0,0l1.7-0.1c2.1-0.1,4.2-0.4,6.2-0.9
				c12.4-3.2,21.1-13,21.1-25.6V396.5H744.5z"/>
			<path class="st4" d="M799.3,395.4c2.1,0,3.8,1.7,3.8,3.8L803,520.6c0,3.1,1.9,4.4,3.9,5.6l0,0l-1.7-0.1c-2.1-0.1-4.2-0.4-6.2-0.9
				c-12.4-3.2-21.1-13-21.1-25.6V395.4H799.3z"/>
			<path class="st4" d="M716.8,140.6c-1.7-0.9-3.2-2-4.5-3.4l0,0c-0.9-1-1.5-2.3-1.5-3.7v-18.7c0-2.6-2.1-4.7-4.7-4.7h-1.4h-8.3
				h-1.1H681h-7.7H661l0,0c-1.6,0.2-3.2,0.5-4.8,0.9c-15,3.9-25.4,16.1-25.4,31.2v230.4H661V116.9c0-1.5,0.4-2.6,0.9-3.6l11.6,0.2
				c4,0.1,7.3,3.3,7.4,7.3v0.1V136c0,2.6,2.1,4.7,4.7,4.7h9.6h14.1h1.4h6.3L716.8,140.6z"/>
		</g>
		<polygon id="a224" class="st4" points="1339.9,603 1366,603.3 1366,598.2 1339.9,597.9 		"/>
		<polygon id="a223" class="st4" points="55.1,768 62.9,768 77.2,753.7 69.4,753.7 		"/>
		<polygon id="a222" class="st4" points="37.1,78.3 0,78.3 0,83.4 37.1,83.3 		"/>
		<polygon id="a221" class="st4" points="1289.5,597.3 1289.5,602.5 1339.9,603 1339.9,597.9 		"/>
		<path id="a220" class="st4" d="M82.6,605.6l4.5,0.1c1.9,0,3.5,1.6,3.5,3.5l0,0v7.3c0,1.2,1,2.3,2.3,2.3h4.6h6.8h0.7h3l-0.1-0.1
			c-0.8-0.4-1.5-1-2.2-1.6l0,0c-0.5-0.5-0.7-1.1-0.7-1.8v-9c0-1.2-1-2.3-2.3-2.3H102h-4h-0.5h-6.9H87h-4.4h-1.5v1.5v34.4h1.5V605.6z
			"/>
		<path id="a219" class="st4" d="M1136.4,727.5v1.5v1.5v4.4v3.7v6.9v0.5v4v0.7c0,1.2,1,2.3,2.3,2.3h9c0.7,0,1.3,0.3,1.8,0.7l0,0
			c0.7,0.6,1.2,1.4,1.6,2.2l0.1,0.1v-3v-0.7v-6.8v-4.6c0-1.2-1-2.3-2.3-2.3h-7.3l0,0c-1.9,0-3.5-1.6-3.5-3.5l-0.1-4.5h29.8v-3h-31.4
			V727.5z"/>
		<polygon id="a218" class="st4" points="1366,473.5 1366,455.4 1316.6,455.3 1316.6,473.5 		"/>
		<polygon id="a217" class="st4" points="87.5,83.3 87.5,78.3 37.1,78.3 37.1,83.3 		"/>
		<rect id="a216" x="81.1" y="639.9" class="st4" width="1.5" height="47.8"/>
		<polygon id="a215" class="st4" points="1366,344.1 1366,342.6 1339.9,342.5 1339.9,344.1 		"/>
		<polygon id="a214" class="st4" points="1366,75.6 1347.6,94 1347.6,101.9 1366,83.6 		"/>
		<polygon id="a213" class="st4" points="1306.6,473.5 1316.6,473.5 1316.6,455.3 1306.6,455.3 1281.7,455.3 1281.7,473.5 		"/>
		<polygon id="a212" class="st4" points="82.6,740.4 82.6,687.8 81.1,687.8 81.1,741.9 69.4,753.7 77.2,753.7 123.7,707.2 
			115.9,707.2 		"/>
		<path id="a211" class="st4" d="M1337.9,103.7L1337.9,103.7l-9.5,9.5V63.1v-1.5h-1.5h-4.4h-3.7h-6.9h-0.5h-4h-0.7
			c-1.2,0-2.3,1-2.3,2.3v9c0,0.7-0.3,1.3-0.7,1.8l0,0c-0.6,0.7-1.4,1.2-2.2,1.6l-0.1,0.1h3h0.7h6.8h4.6c1.2,0,2.3-1,2.3-2.3v-7.3
			l0,0c0-1.9,1.6-3.5,3.5-3.5l4.5-0.1v50.6h1l-2.5,2.5l-16.6,16.6v8l16.6-16.6l6.7-6.7l15.5-15.5v-8L1337.9,103.7z"/>
		<path id="a210" class="st4" d="M1361.3,656.4L1361.3,656.4c0,0.2,0,0.5,0,0.8v7.3l0,0c0,1.1-0.5,2.1-1.4,2.7v-0.5h-29.8v3h29.8
			l0,0h1.4h4.7v-13.2V655v-1.5h-4.7V656.4z"/>
		<path id="a209" class="st4" d="M224.4,695.5v-2v-1l0,0l-0.1-8.1v-3.7l-0.1-6.9v-0.5v-4v-0.7c0-1.2-1-2.3-2.3-2.2l-9,0.1
			c-0.7,0-1.3-0.2-1.8-0.7l0,0c-0.7-0.6-1.2-1.3-1.6-2.1l-0.1-0.1v3v0.7l0.1,6.8v4.6c0,1.2,1,2.3,2.3,2.2l7.3-0.1l0,0
			c1.9,0,3.5,1.6,3.5,3.5l0.2,8.3H198v3L224.4,695.5L224.4,695.5z"/>
		<rect id="a208" x="1167.7" y="727.5" class="st4" width="46.8" height="3"/>
		<rect id="a207" y="485" class="st4" width="37.1" height="24.3"/>
		<rect id="a206" x="1301.1" y="666.7" class="st4" width="29.1" height="3"/>
		<path id="a205" class="st4" d="M1207.8,517.9h-2h-1l0,0l-8.1,0.1h-3.7l-6.9,0.1h-0.5h-4h-0.7c-1.2,0-2.3,1-2.2,2.3l0.1,9
			c0,0.7-0.2,1.3-0.7,1.8l0,0c-0.6,0.7-1.3,1.2-2.1,1.6l-0.1,0.1h3h0.7l6.8-0.1h4.6c1.2,0,2.3-1,2.2-2.3l-0.1-7.3l0,0
			c0-1.9,1.6-3.5,3.5-3.5l8.3-0.2V548h3v-30.1H1207.8z"/>
		<path id="a204" class="st4" d="M1307.3,332.4c0,0.2,0,0.3,0,0.5v8.9c0,1.2,1,2.2,2.2,2.2h0.7h3.9h0.5h6.8h3.6h14.7v-1.6h-14.9
			c-1.9,0-3.5-1.6-3.5-3.5l0,0v-7.2c0-1.2-1-2.2-2.2-2.2h-4.6h-6.7h-0.1h-0.5h-3h-14.9v3L1307.3,332.4L1307.3,332.4z"/>
		<path id="a203" class="st4" d="M1328.4,202.3l-0.2,8.3c-0.1,1.9-1.6,3.5-3.5,3.5l0,0l-7.3-0.1c-1.2,0-2.3,1-2.3,2.2v4.6l-0.1,6.8
			v0.7v3l0.1-0.1c0.4-0.8,1-1.5,1.6-2.1l0,0c0.5-0.4,1.1-0.7,1.8-0.7l9,0.1c1.2,0,2.3-1,2.3-2.2v-0.7v-4v-0.5l0.1-6.9v-3.7l0.1-8.1
			l0,0v-1v-2h-28.9v3h27.3V202.3z"/>
		<rect id="a202" x="1204.8" y="548" class="st4" width="3" height="31.9"/>
		<polygon id="a201" class="st4" points="1281.7,473.5 1281.7,455.3 1221.6,455.2 1221.6,473.5 		"/>
		<path id="a200" class="st4" d="M1271.5,666.7v2.2v0.1v14.6h14.3v-13.4c0-0.2,0-0.4,0.1-0.6h15.2v-3h-29.6V666.7z"/>
		<polygon id="a199" class="st4" points="1247,0 1245.5,0 1245.4,32.6 1247,32.6 		"/>
		<polygon id="a198" class="st4" points="1288.9,152.7 1274,167.6 1274,175.6 1288.9,160.7 1308.9,140.7 1308.9,132.7 		"/>
		<path id="a197" class="st4" d="M65.9,509.3c2.1,0,3.8-1.7,3.8-3.8v-1.1v-6.7v-0.9v-11.7v-6.2V470h4.8h3.6H85h0.5h3.9h0.7
			c1.2,0,2.2-1,2.2-2.2v-8.9c0-0.7,0.3-1.3,0.7-1.8l0,0l0.1-0.1l3.1,0.1c1.9,0,3.5,1.6,3.5,3.5l0,0l0.5,9.4c0,0.3,0.1,0.6,0.2,0.9
			v0.4c0.1,1.2,0.2,2.4,0.5,3.6c1.8,7.1,7.5,12.1,14.6,12.1H134v-14.4h-30.4c-0.7,0-1.2-0.2-1.7-0.4c0.2,0,0.3,0.1,0.5,0.1h4.6h6.7
			h0.7h3l-0.1-0.1c-0.8-0.4-1.5-1-2.1-1.6l0,0c-0.5-0.5-0.7-1.1-0.7-1.8l-0.5-11.1c0-1.2-1-2.2-2.2-2.2H111h-3.9h-0.5h-6.8h-3.6
			h-0.8h-3h-0.7h-1.4H85h-4.6c-1.2,0-2.2,1-2.2,2.2v7.2l0,0c0,1.9-1.6,3.4-3.5,3.5l-6,0.1v0.3h-1.5L67,479c-0.1,3.3-2.7,6-5.9,6
			c0,0,0,0-0.1,0H37.1v24.3H65.9z"/>
		<path id="a196" class="st4" d="M1235.4,72.2L1235.4,72.2v-10c0.2,0,0.3,0,0.5,0h8.9c1.2,0,2.2-1,2.2-2.2v-0.7v-3.9v-0.5v-6.8v-3.6
			V32.6h-1.6v11.8c0,1.9-1.6,3.5-3.5,3.5l0,0h-7.2c-1.2,0-2.2,1-2.2,2.2v4.6v6.7v0.1V62v3v7.1v10.7h3V72.2H1235.4z"/>
		<rect id="a195" x="1214.5" y="727.5" class="st4" width="45.6" height="3"/>
		<path id="a194" class="st4" d="M1170.7,473.5h0.4h24.3h21.4h4.8v-18.3h-4.8h-3.7c-0.9,0-8.9-0.2-17.6-0.3v-13.5h-24.7
			L1170.7,473.5z"/>
		<polygon id="a193" class="st4" points="1239.1,596.8 1239.1,601.9 1289.5,602.5 1289.5,597.3 		"/>
		<polygon id="a192" class="st4" points="115.9,707.2 123.7,707.2 136,694.9 136,695.5 198,695.5 198,692.5 138.4,692.5 
			170.2,660.7 162.4,660.7 		"/>
		<polygon id="a191" class="st4" points="1207.8,596.4 1207.8,579.8 1204.8,579.8 1204.8,596.4 1183.9,596.2 1183.9,601.3 
			1239.1,601.9 1239.1,596.8 		"/>
		<path id="a190" class="st4" d="M125.4,121.2L125.4,121.2h-5.9H119h-4h-0.7c-1.2,0-2.3,1-2.3,2.3v9c0,0.7-0.3,1.3-0.7,1.8l0,0
			c-0.6,0.7-1.4,1.2-2.2,1.6L109,136h3h0.7h6.8h4.6c1.2,0,2.3-1,2.3-2.3v-7.3l0,0v-0.1h15.4v-5.1H125.4L125.4,121.2z"/>
		<polygon id="a189" class="st4" points="182.5,487 182.5,472.5 134,472.6 134,487 		"/>
		<path id="a188" class="st4" d="M1198.7,139.9h2.9h3.6h6.8h0.5h3.9h0.7c1.2,0,2.2-1,2.2-2.2v-8.9c0-0.7,0.3-1.3,0.7-1.8l0,0
			c0.1-0.1,0.1-0.1,0.2-0.2h9.9h16.8v-1v-0.4v-6v-3.6V109v-0.5v-3.9v-0.7c0-1.2-1-2.2-2.2-2.2h-8.9c-0.2,0-0.3,0-0.5,0V82.9h-3v15.5
			v3v0.7v6.7v2.7v1.8c0,1.2,1,2.2,2.2,2.2h7.2l0,0c1.9,0,3.4,1.6,3.5,3.5l0.1,6.1H1230h-7.9h-3h-0.7h-3.6h-3.1h-4.6
			c-1.2,0-2.2,1-2.2,2.2v7.2l0,0c0,1.9-1.6,3.4-3.5,3.5l-6,0.1v0.4v1.1v22.5h3v-22.2H1198.7z"/>
		<polygon id="a187" class="st4" points="1242.3,199.3 1241.6,199.3 1241.6,199.4 1239.1,199.4 1239.1,202.4 1245.9,202.4 
			1245.7,202.3 1301.1,202.3 1301.1,199.3 1250.3,199.3 1274,175.6 1274,167.6 		"/>
		<polygon id="a186" class="st4" points="141.7,83.2 141.7,78.3 87.5,78.3 87.5,83.3 		"/>
		<polygon id="a185" class="st4" points="1216.8,199.4 1213.9,199.4 1213.9,202.4 1216.8,202.4 1239.1,202.4 1239.1,199.4 		"/>
		<path id="a184" class="st4" d="M198.1,186.2v1.1v0.4l6,0.1c1.9,0,3.5,1.6,3.5,3.5l0,0v7.2c0,1.2,1,2.2,2.2,2.2h4.6h6.7h0.7h3
			l-0.1-0.1c-0.8-0.4-1.5-1-2.1-1.6l0,0c-0.5-0.5-0.7-1.1-0.7-1.8v-8.9c0-1.2-1-2.2-2.2-2.2H219h-3.9h-0.5h-6.8h-3.6h-2.9v-21.4h-3
			v21.5H198.1z"/>
		<path id="a183" class="st4" d="M1229.6,295.7v2.9v3.6v6.8v0.5v3.9v0.7c0,1.2,1,2.2,2.2,2.2h8.9c0.7,0,1.3,0.3,1.8,0.7l0,0
			c0.1,0.1,0.1,0.1,0.2,0.2v26.7h0.5h1h6h3.6h6.8h0.5h3.9h0.7c1.2,0,2.2-1,2.2-2.2v-8.9c0-0.2,0-0.3,0-0.5h20.9h0.6v-3h-0.6H1271h-3
			h-0.7h-6.7h-2.7h-1.8c-1.2,0-2.2,1-2.2,2.2v7.2l0,0c0,1.9-1.6,3.4-3.5,3.5l-6.1,0.1v-23.1v-3v-0.7v-3.6v-3.1v-4.6
			c0-1.2-1-2.2-2.2-2.2h-7.2l0,0c-1.9,0-3.4-1.6-3.5-3.5l-0.1-6h-0.4h-1.1h-15.7v3h15.5L1229.6,295.7L1229.6,295.7z"/>
		<path id="a182" class="st4" d="M285.3,731.9l0.2-8.4c0.1-1.9,1.6-3.5,3.5-3.5l0,0l7.3,0.1c1.2,0,2.3-1,2.3-2.2v-4.6l0.1-6.8v-0.7
			v-3l-0.1,0.1c-0.4,0.8-1,1.5-1.6,2.1l0,0c-0.5,0.4-1.1,0.7-1.8,0.7l-9-0.1c-1.2,0-2.3,1-2.3,2.2v0.7v4v0.5l-0.1,6.9v3.7l-0.1,8.2
			h-0.2v3h27.1v-3L285.3,731.9L285.3,731.9z"/>
		<polygon id="a181" class="st4" points="1170.8,441.4 1195.5,441.4 1195.6,419.9 1170.9,419.9 		"/>
		<polygon id="a180" class="st4" points="1198.7,199.4 1198.7,167.3 1198.7,162.4 1195.7,162.4 1195.7,167.3 1195.7,199.4 
			1180.7,199.4 1180.7,202.4 1196.9,202.4 1198.7,202.4 1213.9,202.4 1213.9,199.4 		"/>
		<rect id="a179" x="310.7" y="731.9" class="st4" width="32.7" height="3"/>
		<path id="a178" class="st4" d="M200,540.7h-2h-1l0,0l-8.1,0.1h-3.7l-6.9,0.1h-0.5h-4h-0.7c-1.2,0-2.3,1-2.2,2.3l0.1,9
			c0,0.7-0.2,1.3-0.7,1.8l0,0c-0.6,0.7-1.3,1.2-2.1,1.6l-0.1,0.1h3h0.7l6.8-0.1h4.6c1.2,0,2.3-1,2.2-2.3l-0.1-7.3l0,0
			c0-1.9,1.6-3.5,3.5-3.5l8.3-0.2v37h3v-38.6L200,540.7L200,540.7z"/>
		<polygon id="a177" class="st4" points="1171,393 1170.9,419.9 1195.6,419.9 1195.7,393 1195.7,377.3 1171,377.3 		"/>
		<rect id="a176" x="141.7" y="121.2" class="st4" width="29.5" height="5.1"/>
		<polygon id="a175" class="st4" points="1145.6,199.4 1143.1,199.4 1143.1,202.4 1145.6,202.4 1180.7,202.4 1180.7,199.4 		"/>
		<polygon id="a174" class="st4" points="200,623.1 200,579.3 197,579.3 197,626.1 162.4,660.7 170.2,660.7 219.3,611.6 
			219.3,603.8 		"/>
		<path id="a173" class="st4" d="M26.1,240.4l8.3,0.2c1.9,0.1,3.5,1.6,3.5,3.5l0,0l-0.1,7.3c0,1.2,1,2.3,2.2,2.3h4.6l6.8,0.1h0.7h3
			l-0.1-0.1c-0.8-0.4-1.5-1-2.1-1.6l0,0c-0.4-0.5-0.7-1.1-0.7-1.8l0.1-9c0-1.2-1-2.3-2.2-2.3h-0.7h-4h-0.5l-6.9-0.1h-3.7l-8.1-0.1
			l0,0h-1h-2v29.9h3L26.1,240.4L26.1,240.4z"/>
		<path id="a172" class="st4" d="M1271.5,700.5L1271.5,700.5c0,0.5-0.1,1-0.3,1.5v-1.4h-32.1v5.1h22.9h5.9h3.3h0.3h0.3v21.9h-11.7v3
			h11.7l0,0h7.4l0,0h6.5V729v-0.5v-1v-24.1l0,0v-19.8h-14.3L1271.5,700.5L1271.5,700.5z"/>
		<polygon id="a171" class="st4" points="26.1,316.9 26.1,268.8 23.1,268.8 23.1,316.9 23.1,318.2 23.1,319.9 46.5,319.9 
			46.5,316.9 		"/>
		<path id="a170" class="st4" d="M1022.7,368.3v3.6l0.1,6.8v0.5v3.9v0.7c0,1.2,1,2.2,2.3,2.2l8.9-0.1c0.7,0,1.3,0.2,1.8,0.7l0,0
			c0.7,0.6,1.2,1.3,1.6,2.1l0.1,0.1v-3v-0.7l-0.1-6.7v-4.6c0-1.2-1-2.2-2.3-2.2l-7.2,0.1l0,0c-1.9,0-3.4-1.6-3.5-3.5l-0.2-9.9
			l-1.5,0.7L1022.7,368.3z"/>
		<polygon id="a169" class="st4" points="189.1,487 189.1,487 219.3,487 219.3,472.5 189.1,472.4 189.1,472.5 182.5,472.5 
			182.5,487 		"/>
		<rect id="a168" x="46.5" y="316.9" class="st4" width="46.5" height="3"/>
		<path id="a167" class="st4" d="M1145.7,344.7c0,2.1,1.7,3.8,3.8,3.8h7.8h11.5h1.1h1.2l-0.1,28.7h24.7v-10.7
			c0-12.3-8.5-21.9-20.7-25.1c-1.7-0.4-3.4-0.7-5.1-0.8v-12.7h-24.3L1145.7,344.7L1145.7,344.7z"/>
		<polygon id="a166" class="st4" points="1134.9,595.6 1134.9,600.8 1183.9,601.3 1183.9,596.2 		"/>
		<polygon id="a165" class="st4" points="198,83.1 198,78.3 141.7,78.3 141.7,83.2 		"/>
		<path id="a164" class="st4" d="M247.1,584.9c-5.2,0-10.1,2-13.9,5.6c-2.4,2.2-5.2,5-9.8,9.1l-4.2,4.2v7.8l11-11h0.9h38.5v-15.7
			L247.1,584.9L247.1,584.9z"/>
		<rect id="a163" x="1190" y="700.6" class="st4" width="49" height="5.1"/>
		<polygon id="a162" class="st4" points="1022.6,357 1022.6,358.6 1024.1,358.6 1041,358.6 1041,357 		"/>
		<path id="a161" class="st4" d="M219.9,137.9L219.9,137.9h-7c0-0.2,0-0.3,0-0.5v-14c0-1.2-1-2.2-2.2-2.2H210h-4h-0.5h-6.8h-0.2H195
			h-5.8h-18v5.1h27.1c-0.1,0.7-0.2,1.4-0.2,1.7v36.9h3V141h4.4h1.3h5.4h0.7h3h18.4v-3h-14.4V137.9z"/>
		<rect id="a160" x="1138.8" y="700.6" class="st4" width="51.3" height="5.1"/>
		<polygon id="a159" class="st4" points="1083.6,595.1 1083.6,600.2 1134.9,600.8 1134.9,595.6 		"/>
		<rect id="a158" x="269.7" y="584.9" class="st4" width="49.1" height="15.7"/>
		<polygon id="a157" class="st4" points="234.3,137.9 234.3,140.9 242.4,140.9 242.4,140.9 262.1,140.9 262.1,137.9 		"/>
		<rect id="a156" x="1145.7" y="304" class="st4" width="24.3" height="24"/>
		<path id="a155" class="st4" d="M1100,642.5v-1.1V641l-6-0.1c-1.9,0-3.5-1.6-3.5-3.5l0,0v-7.3c0-1.2-1-2.3-2.3-2.3h-4.6h-6.8h-0.7
			h-3l0.1,0.1c0.8,0.4,1.5,1,2.2,1.6l0,0c0.5,0.5,0.7,1.1,0.7,1.8v9c0,1.2,1,2.3,2.3,2.3h0.7h4h0.5h6.9h3.7h2.9v29.2h3L1100,642.5
			L1100,642.5z"/>
		<polygon id="a154" class="st4" points="241.5,83.1 241.5,78.3 198,78.3 198,83.1 		"/>
		<path id="a153" class="st4" d="M1116.9,199.4v-0.2h-5.8h-3.6h-6.8h-0.5h-3.9h-0.7c-1.2,0-2.2,1-2.2,2.2v8.9c0,0.1,0,0.3,0,0.4
			h-16.2v3h13.5c0,0,0,0-0.1,0l-0.1,0.1h3h0.7h6.7h4.6c1.2,0,2.2-1,2.2-2.2v-7.2l0,0c0-0.7,0.2-1.4,0.6-2h35v-3H1116.9z"/>
		<polygon id="a152" class="st4" points="367.2,731.9 343.4,731.9 343.4,734.9 372,734.9 372,734.7 372.4,734.8 400.5,706.7 
			392.5,706.7 		"/>
		<polygon id="a151" class="st4" points="1041,357 1041,358.6 1061.1,358.6 1061.1,356.9 		"/>
		<path id="a150" class="st4" d="M263.1,83l4.1,0.4c1.2,0.1,2.3-0.8,2.5-2.1l0.6-8.6l0,0c0.2-1.9,1.9-3.3,3.8-3.2l9.9,0.8
			c0.2,0.4,0.3,0.8,0.3,1.4l-0.1,31.3h14.5V83.9c0-7.3-5-12.9-12.2-14.8c-1.2-0.3-2.4-0.5-3.6-0.5l-1-0.1c0.6,0.4,1.2,0.8,1.7,1.3
			l-3.5-1.4l-5.8-0.5l-3.7-0.3l-6.8-0.6h-0.5l-3.9-0.3l-0.7-0.1c-1.2-0.1-2.3,0.8-2.5,2.1l-0.8,8.9c0,0.3-0.1,0.5-0.2,0.7h-13.9v4.8
			L263.1,83z"/>
		<path id="a149" class="st4" d="M1037.4,594.6c-1-1.1-1.6-2.5-1.6-4.1c0,0,0,0,0-0.1v-10.6h-24.5v15.8c0,2.1,1.7,3.9,3.9,3.9h1.1
			h2.5l64.9,0.7v-5.1L1037.4,594.6z"/>
		<path id="a148" class="st4" d="M1069.9,353.4L1069.9,353.4c0,1.9-1.6,3.5-3.5,3.5h-5.3v1.6h5.1h3.6h6.8h0.5h3.9h0.7
			c1.2,0,2.2-1,2.2-2.2V336h-14.2v17.4H1069.9z"/>
		<path id="a147" class="st4" d="M230.9,487c7.3,0,14.1-4.8,14.8-12.2c0.1-0.8,0.1-1.6,0-2.3l0,0v-39.9h-3v39.9h-23.4V487H230.9z"/>
		<polygon id="a146" class="st4" points="1058.3,210.8 1030.1,210.8 1030.1,213.7 1058.3,213.7 1076.9,213.7 1076.9,210.8 		"/>
		<polygon id="a145" class="st4" points="1100,700.6 1100,671.7 1097,671.7 1097,700.6 1075.4,700.6 1075.4,705.7 1138.8,705.7 
			1138.8,700.6 		"/>
		<path id="a144" class="st4" d="M1139.7,273.1c3.3,0.1,6,2.7,6,5.9c0,0,0-0.9,0-1.7V304h24.3v-8.2h35.6h8.3v-3h-8.3H1170v-21.2
			c0-2.1-1.7-3.8-3.8-3.8h-1.1h-6.7h-0.9h-0.1h-11.7h-6.2h-0.6v5.3L1139.7,273.1z"/>
		<polygon id="a143" class="st4" points="118,305.6 118,316.9 93,316.9 93,319.9 118,319.9 118,319.8 153.4,319.8 153.4,305.6 		"/>
		<rect id="a142" x="1033.6" y="700.6" class="st4" width="41.8" height="5.1"/>
		<rect id="a141" x="1011.3" y="548" class="st4" width="24.5" height="31.9"/>
		<rect id="a140" x="998.7" y="210.8" class="st4" width="31.4" height="3"/>
		<path id="a139" class="st4" d="M284.2,134.4c0,0.6,0.2,2,0.5,3.5H262v3h23.7c0.2,0.3,0.4,0.5,0.6,0.5h12.4v-0.5h11.8v-3h-11.8V103
			h-14.5V134.4z"/>
		<path id="a138" class="st4" d="M360.1,642.8v4v1.9v3.7v6.9v0.5v4v0.7c0,1.2,1,2.3,2.3,2.3h9c0.7,0,1.3,0.3,1.8,0.7l0,0
			c0.7,0.6,1.2,1.4,1.6,2.2l0.1,0.1v-3V666v-6.8v-4.6c0-1.2-1-2.3-2.3-2.3h-7.3l0,0c-1.9,0-3.5-1.6-3.5-3.5l-0.1-6l0,0v-9.2h-1.5
			v9.2L360.1,642.8L360.1,642.8z"/>
		<path id="a137" class="st4" d="M985.3,210.8c0-0.1,0-0.3,0-0.4v-8.9c0-1.2-1-2.2-2.2-2.2h-0.7h-3.9H978h-6.8h-3.6h-2.5h-3.3H956
			v1.5h5.6l0,0l6,0.1c1.9,0,3.5,1.6,3.5,3.5l0,0v7.2c0,1.2,1,2.2,2.2,2.2h4.6h6.7h0.7h3l-0.1-0.1c0,0,0,0-0.1,0h10.6v-3L985.3,210.8
			L985.3,210.8z"/>
		<path id="a136" class="st4" d="M1092.5,316.3C1092.5,316.4,1092.5,316.4,1092.5,316.3c0,1.9-1.6,3.5-3.5,3.5l-6,0.1l0,0h-6.3h-4.6
			c-1.2,0-2.2,1-2.2,2.2V336h14.2v-12.5c0-0.7,0.3-1.3,0.7-1.8l0,0c0.1-0.1,0.2-0.1,0.4-0.2h3.7h3.6h6.8h0.5h3.9h0.7
			c1.2,0,2.2-1,2.2-2.2V311h-14.2v5.3H1092.5z"/>
		<path id="a135" class="st4" d="M330.8,253.4c0,7.3,5,12.9,12.2,14.8c1.2,0.3,2.4,0.5,3.6,0.5l1,0.1c-1.2-0.7-2.3-1.4-2.3-3.2V229
			h-14.5L330.8,253.4L330.8,253.4z"/>
		<polygon id="a134" class="st4" points="360.1,600.6 360.1,633.6 361.6,633.6 361.6,600.6 389.1,600.6 389.1,584.9 318.8,584.9 
			318.8,600.6 		"/>
		<path id="a133" class="st4" d="M955.4,199.2h-40.7l0.1-6c0-1.9,1.6-3.5,3.5-3.5l0,0h7.2c1.2,0,2.2-1,2.2-2.2V183v-2.5
			c0.5-0.1,0.9-0.1,1.5-0.1l48,0.1v-18.2h-27.4c-11.3,0-20.2,5.2-24.1,13c-0.4,0.3-0.9,0.5-1.5,0.5h-8.9c-1.2,0-2.2,1-2.2,2.2v0.7
			v3.9v0.5v6.8v3.6v5.8v1.5h42.2h0.6v-1.5h-0.5L955.4,199.2L955.4,199.2z"/>
		<polygon id="a132" class="st4" points="1119.6,272.8 1129.4,272.8 1138.8,273 1138.8,267.8 1129.4,267.8 1119.6,267.8 
			1110.1,267.8 1110.1,272.8 		"/>
		<polygon id="a131" class="st4" points="423.7,600.6 423.7,596.9 425.7,540.9 410.6,540.9 409.3,584.9 389.1,584.9 389.1,600.6 		
			"/>
		<polygon id="a130" class="st4" points="999.1,180.3 1010.6,180.4 1010.6,162.1 999.1,162.1 977.3,162.1 977.3,180.3 		"/>
		<path id="a129" class="st4" d="M1082.9,304.7c0,1.2,1,2.2,2.2,2.2h0.7h3.9h0.5h4.5c-1.2,0-2.2,1-2.2,2.2v1.9h14.2v-0.7v-3.5h-0.1
			v-1.5l-6-0.1c-1.9,0-3.5-1.6-3.5-3.5l0,0v-19.1h-14.2V304.7z"/>
		<polygon id="a128" class="st4" points="330.8,229 345.4,229 345.4,183.2 330.8,183.2 		"/>
		<path id="a127" class="st4" d="M1048.3,180.4c0.2,0,0.6,0,1.2,0v-18.3h-38.9v18.3H1048.3z"/>
		<polygon id="a126" class="st4" points="427.2,501.8 411.8,501.8 410.6,540.9 425.7,540.9 		"/>
		<polygon id="a125" class="st4" points="1082.9,272.8 1082.9,282.7 1097.1,282.7 1097.1,272.8 1110.1,272.8 1110.1,267.8 
			1063.7,267.8 1063.7,272.8 		"/>
		<polygon id="a124" class="st4" points="330.8,140.9 330.8,183.2 345.4,183.2 345.4,176.1 345.5,176.1 345.5,82.9 340.4,82.9 
			340.4,137.9 310.7,137.9 310.7,140.9 		"/>
		<rect id="a123" x="988.9" y="700.6" class="st4" width="44.7" height="5.1"/>
		<path id="a122" class="st4" d="M1074.9,540.6h5.9h3.1h0.6h6.9h0.5h4h0.7c1.2,0,2.3-1,2.3-2.3v-9c0-0.7,0.3-1.3,0.7-1.8l0,0
			c0.6-0.7,1.4-1.2,2.2-1.6l0.1-0.1h-3h-0.7h-6.8h-4.6c-1.2,0-2.3,1-2.3,2.3v7.3l0,0c0,0.8-0.3,1.6-0.8,2.2h-12.6v3L1074.9,540.6
			L1074.9,540.6z"/>
		<path id="a121" class="st4" d="M1078.7,180.7v2.6c0,2.1,1.7,3.8,3.8,3.8h1.1h6.7h0.9h11.7h0.7h0.7h3.9h0.5h0.4h6.4h3.5h0.1h5.8
			l0,0h2.4v-36.6H1113v22h-4.2h-5.8V166c0-2.1-1.7-3.8-3.8-3.8h-7.8h-1v-0.1h-40.8v18.3C1053.9,180.5,1068.3,180.8,1078.7,180.7z"/>
		<path id="a120" class="st4" d="M304.8,531.5h-47.6h-1.5v1.5v4.4v3.7v6.9v0.5v4v0.7c0,1.2,1,2.3,2.3,2.3h9c0.7,0,1.3,0.3,1.8,0.7
			l0,0c0.7,0.6,1.2,1.4,1.6,2.2l0.1,0.1v-3v-0.7V548v-4.6c0-1.2-1-2.3-2.3-2.3h-7.3l0,0c-1.9,0-3.5-1.6-3.5-3.5l-0.1-4.5h47.6h3
			v-1.5v-17h-3v16.9L304.8,531.5L304.8,531.5z"/>
		<polygon id="a119" class="st4" points="245.7,417.4 245.7,413.3 245.7,413.3 245.7,408.2 245.7,408.2 245.7,408.1 245.7,385.8 
			231.2,385.8 231.2,419.6 242.7,419.6 242.7,432.6 245.7,432.6 		"/>
		<polygon id="a118" class="st4" points="1035.8,540.6 1071.1,540.6 1071.1,537.6 1035.8,537.6 1035.7,508 1011.3,508 1011.3,548 
			1035.8,548 		"/>
		<polygon id="a117" class="st4" points="1127.5,134.4 1127.5,123.9 1113.1,123.9 1113,134.4 1113,150.6 1127.5,150.6 		"/>
		<polygon id="a116" class="st4" points="1039.6,272.8 1063.7,272.8 1063.7,267.8 1039.6,267.8 1035,267.8 1035,272.8 		"/>
		<polygon id="a115" class="st4" points="1127.5,91.3 1127.5,87 1127.5,82.9 1113,82.9 1113.1,87 1113.1,87 1113.1,123.9 
			1127.5,123.9 		"/>
		<path id="a114" class="st4" d="M245.6,324.9v-3.4v-0.7c0-1.2-1-2.2-2.2-2.2h-32.9c-0.7,0-1.3-0.3-1.8-0.7l0,0
			c-0.1-0.1-0.1-0.2-0.2-0.4v-3.7v-3.6v-6.8v-0.5V299v-0.7c0-1.2-1-2.2-2.2-2.2h-8.9h-3.5v0.1h-1.5l-0.1,6c0,1.9-1.6,3.5-3.5,3.5
			l0,0h-35.4v14.2h38.3c1.2,0,2.2-1,2.2-2.2V317v-4v-0.5V308c0,1.2,1,2.2,2.2,2.2h7.2l0,0c1.9,0,3.4,1.6,3.5,3.5l0.1,6l0,0v6.3v4.6
			c0,1.2,1,2.2,2.2,2.2H231c0,0.5,0,1,0,1.6v14.1h14.4L245.6,324.9z"/>
		<polygon id="a113" class="st4" points="415.6,683.5 392.5,706.7 400.5,706.7 423.7,683.5 		"/>
		<path id="a112" class="st4" d="M1127.5,62.5c0-7.2-5-12.8-12.1-14.6c-1.2-0.3-2.4-0.5-3.6-0.5h-0.7c-0.2-0.1-0.5-0.1-0.7-0.1h-8.3
			v14.5h10.5l0.4,21.3h14.5L1127.5,62.5L1127.5,62.5z"/>
		<rect id="a111" x="1006.3" y="267.8" class="st4" width="28.7" height="5.1"/>
		<path id="a110" class="st4" d="M319.5,468.9H318l-0.1,6c0,1.9-1.6,3.5-3.5,3.5l0,0H307c-1.2,0-2.3,1-2.3,2.3v1.9v2.8v6.8v0.7v3
			v18.7h3v-21.7c0.2,0,0.3,0,0.5,0h9c1.2,0,2.3-1,2.3-2.3v-0.7v-4v-0.5v-6.9v-3.7v-2.9h23.9v-3L319.5,468.9L319.5,468.9z"/>
		<rect id="a109" x="1011.3" y="468.1" class="st4" width="24.5" height="39.9"/>
		<polygon id="a108" class="st4" points="1086.4,47.1 1084.9,47.1 1065.3,47.1 1061.1,47.1 1061.1,61.6 1065.3,61.6 1102.1,61.6 
			1102.1,47.1 		"/>
		<rect id="a107" x="340.4" y="32.6" class="st4" width="5.1" height="50.3"/>
		<path id="a106" class="st4" d="M1035.7,436.6c0-1.2-1-2.2-2.2-2.2h-34.4V449h12.1v19.1h24.5V436.6z"/>
		<path id="a105" class="st4" d="M427.8,483.7c-0.4-7.2-5.8-12.6-13.1-14c-0.9-0.2-1.8-0.2-2.7-0.3l0,0h-0.4c-0.2,0-0.3,0-0.5,0
			h-0.7l-8.8-0.2c-3.3-0.1-6-2.7-6-6c0,0,0,0,0-0.1v-30.5h-24.5v35.5c0,0.3,0,0.5,0.1,0.8h-27.9v3h30.9c0.2,0,0.5,0.1,0.7,0.1h1.1
			h6.8h0.9h11.8h6.3h10v-1.3c0.3,0.4,0.5,1,0.6,1.7l-0.9,29.3h15.4L427.8,483.7z"/>
		<polygon id="a104" class="st4" points="1006.3,272.8 1006.3,267.8 975.8,267.8 972.4,267.8 972.4,272.8 		"/>
		<rect id="a103" x="933" y="700.6" class="st4" width="55.9" height="5.1"/>
		<polygon id="a102" class="st4" points="245.7,374.8 245.7,374.8 245.7,371.9 245.7,371.9 245.6,348.5 231.2,348.5 231.2,385.8 
			245.7,385.8 		"/>
		<rect id="a101" x="972.4" y="434.4" class="st4" width="26.7" height="14.6"/>
		<path id="a100" class="st4" d="M919.6,569.9v1.5v0.1h4.4h1.6c1.9,0,3.5,1.6,3.5,3.5l0,0v7.3c0,1.2,1,2.3,2.3,2.3h4.6h6.8h0.7h3
			l-0.1-0.1c-0.8-0.4-1.5-1-2.2-1.6l0,0c-0.5-0.5-0.7-1.1-0.7-1.8v-9c0-1.2-1-2.3-2.3-2.3h-0.7h-4H936h-1.9c0.1-0.2,0.1-0.4,0.1-0.6
			v-12.8h-14.6V569.9z"/>
		<path id="a99" class="st4" d="M395.7,394.4c0-2.1-1.7-3.9-3.9-3.9h-7.9h-11.6h-1.1H366l0.2,0.1c1.4,0.7,2.6,1.7,3.7,2.8l0,0
			c0.8,0.8,1.2,1.9,1.2,3v36.1h24.5L395.7,394.4L395.7,394.4z"/>
		<polygon id="a98" class="st4" points="1010.6,47.2 1010.6,61.6 1061.1,61.6 1061.1,47.1 		"/>
		<rect id="a97" x="340.4" y="0" class="st4" width="5.1" height="32.6"/>
		<rect id="a96" x="246.2" y="363.7" class="st4" width="56.2" height="3"/>
		<path id="a95" class="st4" d="M436.3,670.9c1.1-1.1,2.5-1.7,4-1.7h21.2v-5l-24.1-0.1c-1.5,0-3,0.6-4.1,1.7l-17.7,17.7h8
			L436.3,670.9z"/>
		<path id="a94" class="st4" d="M963.9,332.8H961h-3.6h-6.8H950h-3.9h-0.7c-1.2,0-2.2,1-2.2,2.2v8.9c0,0.7-0.3,1.3-0.7,1.8l0,0
			c-0.6,0.7-1.3,1.2-2.1,1.6l-0.1,0.1h3h0.7h6.7h4.6c1.2,0,2.2-1,2.2-2.2V338l0,0c0-1.9,1.6-3.4,3.5-3.5l6-0.1V334v-1.1v-23h-3
			L963.9,332.8L963.9,332.8z"/>
		<path id="a93" class="st4" d="M976.9,47.2c-0.7,0-1.2-0.2-1.7-0.4c0.2,0,0.3,0.1,0.5,0.1h4.6h6.7h0.7h3l-0.1-0.1
			c-0.8-0.4-1.5-1-2.1-1.6l0,0c-0.5-0.5-0.7-1.1-0.7-1.8l-0.5-11.1c0-1.2-1-2.2-2.2-2.2h-0.7h-3.9H980h-7h-3.6h-0.8h-3H965h-1.4
			h-5.3h-4.6c-1.2,0-2.2,1-2.2,2.2v7.2l0,0c0,1.9-1.6,3.4-3.5,3.5l-6,0.1v0.3h-1.5l-0.2,10.2c-0.1,3.3-2.7,6-5.9,6c0,0,0,0-0.1,0
			H933v24.3h6.2c2.1,0,3.8-1.7,3.8-3.8V79v-6.7v-0.9V59.6v-6.2v-8.7h4.8h3.6h6.8h0.5h3.9h0.7c1.2,0,2.2-1,2.2-2.2v-8.9
			c0-0.7,0.3-1.3,0.7-1.8l0,0l0.1-0.1l3.1,0.1c1.9,0,3.5,1.6,3.5,3.5l0,0l0.5,9.4c0,0.3,0.1,0.6,0.2,0.9V46c0.1,1.2,0.2,2.4,0.5,3.6
			c1.8,7.1,7.5,12.1,14.6,12.1h21.7V47.2H976.9z"/>
		<rect id="a92" x="376.4" y="0" class="st4" width="3" height="52.5"/>
		<path id="a91" class="st4" d="M312.8,279.1v-5.8v-0.6v-3v-6.8v-0.5v-3.9v-0.7c0-1.2-1-2.2-2.2-2.2h-8.9c-0.7,0-1.3-0.3-1.8-0.7
			l0,0c-0.6-0.6-1.2-1.3-1.6-2.1l-0.1-0.1v3v0.7v6.7v4.6c0,1.2,1,2.2,2.2,2.2h7.2l0,0c1.9,0,3.4,1.6,3.5,3.5l0.1,6l0,0V295h1.5
			L312.8,279.1L312.8,279.1z"/>
		<rect id="a90" x="892" y="59.6" class="st4" width="41" height="24.3"/>
		<path id="a89" class="st4" d="M463.8,727.9c-1.2,0-2.2,1-2.2,2.2v12.4h38.9v-14.6L463.8,727.9z"/>
		<polygon id="a88" class="st4" points="919.6,556.5 934.2,556.5 934.1,511.9 919.6,511.9 		"/>
		<path id="a87" class="st4" d="M922.6,287.4L922.6,287.4l26.5,0.1h3h0.7h5.4h1.3h4.4v22.4h3v-35.3c0-0.2-0.1-0.9-0.2-1.7h5.8v-5.1
			H970h-3.4h-0.2h-6.8h-0.5H955h-0.7c-1.2,0-2.2,1-2.2,2.2v14c0,0.2,0,0.3,0,0.5h-11.8v-0.1h-18.6v3H922.6z"/>
		<polygon id="a86" class="st4" points="376.4,64.6 376.4,66.6 376.4,67.6 413.8,67.6 413.8,64.6 379.4,64.6 379.4,52.5 376.4,52.5 
					"/>
		<rect id="a85" x="364.5" y="375.1" class="st4" width="3" height="14.5"/>
		<path id="a84" class="st4" d="M326.9,323.4c-6.6,0-11.8,4.1-14.1,10.2V295h-1.5v40l0,0v2.5v12.9h0.2c0.2,1,1.1,1.8,2.2,1.8
			l7.2-0.1l0,0c1.9,0,3.4,1.6,3.5,3.5l0.2,8.2h-22.2v3h23.7v-3l0,0l-0.1-8.1v-3.6l-0.1-6.8v-0.5v-3.9v-0.7c0-1-0.7-1.9-1.6-2.1h19.1
			v-14.5h-16.5L326.9,323.4L326.9,323.4z"/>
		<polygon id="a83" class="st4" points="500.4,727.9 500.4,742.5 555.9,742.5 555.9,727.9 		"/>
		<path id="a82" class="st4" d="M885.5,283.5c0,2.1,1.7,3.8,3.8,3.8h7.8h7.4v0.1h17v-3h-11.8v-3.1v-0.2v-1.8v-16.7v-4.1h-24.3
			L885.5,283.5L885.5,283.5z"/>
		<polygon id="a81" class="st4" points="890.6,768 905.2,768 905.2,742.5 890.6,742.5 		"/>
		<rect id="a80" x="940.9" y="434.4" class="st4" width="31.5" height="14.6"/>
		<polygon id="a79" class="st4" points="509.8,669.2 509.8,664.4 461.5,664.2 461.5,669.2 		"/>
		<path id="a78" class="st4" d="M477.4,289.9h5.9h0.6h3h6.9h0.5h4h0.7c1.2,0,2.3-1,2.3-2.3v-9c0-0.7,0.3-1.3,0.7-1.8l0,0
			c0.6-0.7,1.4-1.2,2.2-1.6l0.1-0.1h-3h-0.7h-6.8h-4.6c-1.2,0-2.3,1-2.3,2.3v7.3l0,0c0,1.9-1.6,3.5-3.5,3.5l-6,0.1l0,0h-8.6v1.5h8.6
			L477.4,289.9L477.4,289.9z"/>
		<polygon id="a77" class="st4" points="520,669.2 520,669.2 534.5,669.2 534.5,619.8 520,619.8 520,664.4 509.8,664.4 509.8,669.2 
					"/>
		<polygon id="a76" class="st4" points="343.4,323.4 343.4,337.9 364.5,337.9 364.5,375.1 367.5,375.1 367.5,337.9 400.8,338 
			400.8,323.4 		"/>
		<path id="a75" class="st4" d="M876.2,59.6h-1.5l-0.1,44.4c0,1.9-1.6,3.5-3.5,3.5l0,0h-7.2c-1.2,0-2.2,1-2.2,2.2v4.6v6.7v0.1v0.5v3
			v7.1v6.2h3v-6.2v-10c0.2,0,0.3,0,0.5,0h8.9c1.2,0,2.2-1,2.2-2.2v-0.7v-3.9v-0.5v-6.8V104V84H892V59.6H876.2z"/>
		<polygon id="a74" class="st4" points="919.6,511.9 934.1,511.9 934.1,473.5 919.6,473.5 		"/>
		<polygon id="a73" class="st4" points="890.6,742.5 905.2,742.5 905.2,714.5 890.6,714.5 		"/>
		<polygon id="a72" class="st4" points="400.8,323.4 400.8,338 441.7,338 441.7,323.4 		"/>
		<rect id="a71" x="430.8" y="288.4" class="st4" width="38" height="1.5"/>
		<polygon id="a70" class="st4" points="905.2,700.6 905.2,661.7 890.7,661.7 890.6,714.5 905.2,714.5 905.2,705.7 933,705.7 
			933,700.6 		"/>
		<polygon id="a69" class="st4" points="885.5,258.7 909.8,258.7 909.8,234.5 909.8,231.5 909.8,226 885.5,226 		"/>
		<path id="a68" class="st4" d="M905.2,643.9h0.3h3.7h6.9h0.5h2.3h1.6h0.7c1.2,0,2.3-1,2.3-2.3v-9c0-0.7,0.3-1.3,0.7-1.8l0,0
			c0.6-0.7,1.4-1.2,2.2-1.6l0.1-0.1h-3h-0.7H916h-4.6c-1.2,0-2.3,1-2.3,2.3v7.3l0,0c0,0.8-0.3,1.6-0.8,2.2h-32.2v3h14.4v17.8H905
			v-17.8L905.2,643.9L905.2,643.9z"/>
		<path id="a67" class="st4" d="M389.1,303.4h2h1l0,0l8.1-0.1h3.7l6.9-0.1h0.5h4h0.7c1.2,0,2.3-1,2.2-2.3l-0.1-9
			c0-0.7,0.2-1.3,0.7-1.8l0,0c0.1-0.1,0.1-0.1,0.2-0.2h11.8v-1.5H421l0,0h-2.5h-13v0.2c-1,0.2-1.8,1.1-1.8,2.2l0.1,7.3l0,0
			c0,1.9-1.6,3.5-3.5,3.5l-8.3,0.2v-18.3h-3L389.1,303.4L389.1,303.4z"/>
		<path id="a66" class="st4" d="M861.6,158.1v3v0.7v6.7v2.7v1.8c0,1.2,1,2.2,2.2,2.2h7.2l0,0c1.9,0,3.4,1.6,3.5,3.5l0.1,2.7h1.6
			v-2.6v-3.6v-6.8v-0.5V164v-0.7c0-1.2-1-2.2-2.2-2.2h-8.9c-0.2,0-0.3,0-0.5,0v-23h-3L861.6,158.1L861.6,158.1z"/>
		<path id="a65" class="st4" d="M590.7,672.3c-7.3,0-12.9,5-14.8,12.2c-0.3,1.2-0.5,2.4-0.5,3.6l-0.1,1l0,0l-0.4,5.4l-0.4,4.6
			c-0.1,1.2,0.8,2.3,2.1,2.4l7.2,0.6l0,0c1.2,0.1,2.2,0.9,2.8,1.9v23.4h1.7c-0.2,0.5-0.6,0.8-1.3,0.8h-31.3v14.5H575
			c7.3,0,14.1-4.8,14.8-12.2c0.1-1.1,0-2.1,0-3.1l0,0V687h27.1v-14.5h-26.2L590.7,672.3L590.7,672.3z"/>
		<path id="a64" class="st4" d="M764.7,301.4l4.5,0.1c1.9,0,3.5,1.6,3.5,3.5l0,0v7.3c0,1.2,1,2.3,2.3,2.3h4.6h6.8h0.7h3l-0.1-0.1
			c-0.8-0.4-1.5-1-2.2-1.6l0,0c-0.5-0.5-0.7-1.1-0.7-1.8v-9c0-1.2-1-2.3-2.3-2.3h-0.7h-4h-0.5h-6.9H769h-4.4h-1.5v1.5v30.3h1.5
			v-30.2L764.7,301.4L764.7,301.4z"/>
		<polygon id="a63" class="st4" points="781.2,0 762.1,0 762.1,32.6 781.2,32.6 		"/>
		<rect id="a62" x="389.1" y="242.5" class="st4" width="3" height="41"/>
		<polygon id="a61" class="st4" points="909.9,434.4 909.9,449 919.6,449 919.6,473.5 934.1,473.5 934.1,449.2 919.6,449 940.9,449 
			940.9,434.4 		"/>
		<polygon id="a60" class="st4" points="534.5,593.1 520,593.1 520,619.8 534.5,619.8 		"/>
		<path id="a59" class="st4" d="M874.7,184.9h-15.3l0,0h-7.9h-3h-0.7h-3.6h-3.1h-4.6c-1.2,0-2.2,1-2.2,2.2v7.2l0,0
			c0,1.9-1.6,3.4-3.5,3.5l-6,0.1v0.4v1.1v3.3v7.9h3v-7.9v-3.3h2.9h3.6h6.8h0.5h3.9h0.7c1.2,0,2.2-1,2.2-2.2v-8.9
			c0-0.7,0.3-1.3,0.7-1.8l0,0c0.1-0.1,0.1-0.1,0.2-0.2h9.9l0,0H876v-1v-0.4v-3.4h-1.6L874.7,184.9z"/>
		<polygon id="a58" class="st4" points="764.7,349 764.7,331.7 763.2,331.7 763.2,349 763.2,352 764.7,352 792.4,352 792.4,349 		
			"/>
		<path id="a57" class="st4" d="M534.6,570.8h1.8h0.5h4h0.7c1.2,0,2.3-1,2.3-2.3V549h-14.3v16.6l0,0c0,1.9-1.6,3.5-3.5,3.5l-6,0.1
			v1.2v0.4v22.3h14.6L534.6,570.8z"/>
		<polygon id="a56" class="st4" points="837.1,640.9 837.1,611.3 832.1,611.3 832,640.9 832,643.9 876.3,643.9 876.3,640.9 		"/>
		<path id="a55" class="st4" d="M887.4,375.4h2.9h3.7h6.9h0.5h4h0.7c1.2,0,2.3-1,2.3-2.3v-9c0-0.7,0.3-1.3,0.7-1.8l0,0
			c0.6-0.7,1.4-1.2,2.2-1.6l0.1-0.1h-3h-0.7h-6.8h-4.6c-1.2,0-2.3,1-2.3,2.3v7.3l0,0c0,1.9-1.6,3.5-3.5,3.5l-6,0.1v0.4v1.1V404h3
			v-28.6H887.4z"/>
		<path id="a54" class="st4" d="M852.9,229.5h1.5h1.5v-17.9h13.4l10.2,0.2c3.3,0.1,6,2.7,6,5.9c0,0,0-0.9,0-1.7v9.9h24.3V223v-12.7
			c0-2.1-1.7-3.8-3.8-3.8h-1.1h-6.7h-0.9h-0.1h-11.7h-6.2h-10h-13.4h-1.5h-1.5v17.9h-11.5v5.1H852.9z"/>
		<path id="a53" class="st4" d="M445.7,125.6c-0.5,0-1-0.1-1.4-0.3l-0.8-8.7l-0.3-3.7l-0.7-6.8l-0.1-0.5l-0.4-3.9l-0.1-0.7
			c-0.1-1.2-1.2-2.2-2.5-2l-8.9,0.9c-0.7,0.1-1.3-0.1-1.8-0.5l0,0c-0.7-0.6-1.3-1.2-1.8-2l-0.1-0.1l0.3,3l0.1,0.7l0.6,6.7l0.4,4.6
			c0.1,1.2,1.2,2.2,2.5,2l7.2-0.7l0,0c1.9-0.2,3.6,1.3,3.8,3.2l0.7,6l1.5,2.6c-0.7-0.4-1.2-1.1-1.6-1.9l0.1,1
			c0.1,1.2,0.2,2.4,0.5,3.6c1.8,7.2,7.5,12.2,14.8,12.2h9.6v-14.5L445.7,125.6z"/>
		<polygon id="a52" class="st4" points="392.1,222.8 413.8,222.8 413.8,208.2 389.1,208.2 389.1,214.9 389.1,220.6 389.1,242.5 
			392.1,242.5 		"/>
		<polygon id="a51" class="st4" points="781.2,32.6 762.1,32.6 762.1,73.6 781.2,73.6 		"/>
		<path id="a50" class="st4" d="M824.2,337.3h-2.9h-3.7h-6.9h-0.5h-4h-0.7c-1.2,0-2.3,1-2.3,2.3v9c0,0.2,0,0.3,0,0.5h-10.9v3h7.9h3
			h0.7h6.8h2.8h1.9c1.2,0,2.3-1,2.3-2.3v-7.3l0,0c0-1.9,1.6-3.5,3.5-3.5l6-0.1v-1.5v-15.5h-3L824.2,337.3L824.2,337.3z"/>
		<path id="a49" class="st4" d="M543.8,535.4c0-0.7,0.3-1.3,0.7-1.8l0,0c0.1-0.1,0.3-0.3,0.4-0.4h36.5v-3h-51.9v3h0.2
			c-0.1,0.3-0.2,0.6-0.2,1V549h14.3V535.4z"/>
		<polygon id="a48" class="st4" points="616.9,672.3 616.9,686.8 658.5,686.8 658.5,672.3 		"/>
		<polygon id="a47" class="st4" points="824.9,224.4 805,224.4 805,229.5 841.4,229.5 841.4,224.4 827.9,224.4 827.9,210.7 
			824.9,210.7 		"/>
		<polygon id="a46" class="st4" points="461.5,222.7 461.5,208.2 413.8,208.2 413.8,222.8 		"/>
		<path id="a45" class="st4" d="M450.5,67.6h3h0.7h6.8h4.6c1.2,0,2.3-1,2.3-2.3V58l0,0c0-1.9,1.6-3.5,3.5-3.5l6-0.1l0,0h8v-1.5h-8
			h-5.9h-3.7h-0.1h-6.8h-0.5h-4h-0.7c-1.2,0-2.3,1-2.3,2.3v9c0,0.2,0,0.3,0,0.5h-39.7v3L450.5,67.6L450.5,67.6z"/>
		<rect id="a44" x="824.2" y="292.2" class="st4" width="3" height="29.6"/>
		<polygon id="a43" class="st4" points="781.2,73.6 762.1,73.6 762.1,114.6 781.3,114.6 		"/>
		<path id="a42" class="st4" d="M803.2,675.1L803.2,675.1c-0.5,0.5-1.1,0.7-1.8,0.7h-9c-1.2,0-2.3,1-2.3,2.3v0.7v4v0.5v6.9v3.7v2.9
			H766v3h24.2h1.1h0.4l0.1-6c0-1.9,1.6-3.5,3.5-3.5l0,0h7.3c1.2,0,2.3-1,2.3-2.3v-4.6v-6.8v-0.7v-3l-0.1,0.1
			C804.4,673.8,803.8,674.5,803.2,675.1z"/>
		<path id="a41" class="st4" d="M603.6,533.2h3h0.7h6.8h4.6c1.2,0,2.3-1,2.3-2.3v-7.3l0,0c0-1.9,1.6-3.4,3.4-3.5h10.8v-28.5h-14.6
			v26.3c0,0.2,0,0.4,0.1,0.6H614h-0.5h-4h-0.7c-1.2,0-2.3,1-2.3,2.3v9c0,0.2,0,0.3,0,0.5h-25.2v3L603.6,533.2L603.6,533.2z"/>
		<path id="a40" class="st4" d="M534.2,488.6c0,2.1,1.7,3.9,3.9,3.9h1.1h6.8h0.9h11.8h6.3h7.3h2.8h0.2v-50.4c0-0.3-0.5-2.1-1.2-2.1
			h-1.8v47.3l-7.5-0.2c-3.3-0.1-6-2.7-6-6c0,0,0,0.5,0,1V467h-24.5L534.2,488.6L534.2,488.6z"/>
		<path id="a39" class="st4" d="M491.4,222.7h3.4h0.7c1.2,0,2.3-1,2.3-2.3v-21.2h-14.3v8.9c-0.5,0-1.1,0-1.6,0h-20.2v14.5
			L491.4,222.7z"/>
		<path id="a38" class="st4" d="M727.1,696.7v1.8c0,0.2,0.2,0.3,0.6,0.4c-0.4,0.4-0.6,1-0.6,1.6V732l0,0c0,1.9-1.6,3.5-3.5,3.5
			l-11.9,0.1c-0.4-0.5-0.6-1.1-0.6-1.9v-19.2h-14.5v7c0,7.3,5,12.9,12.2,14.8c1.2,0.3,2.4,0.5,3.6,0.5l1,0.1c-0.5-0.3-1-0.6-1.4-1.1
			l4.9,1.3h6.6h3.7h6.9h0.5h4h0.7c1.2,0,2.3-1,2.3-2.3v-33.1c0-0.7,0.3-1.3,0.7-1.8l0,0c0.1-0.1,0.3-0.2,0.4-0.3H766v-3h-38.9V696.7
			z"/>
		<path id="a37" class="st4" d="M823.8,273.1c0.1,0,0.3,0,0.4,0v19h3v-14.8c0-0.3-0.1-1-0.2-1.7c0,0.1,0.1,0.1,0.1,0.2l-0.1-1.3
			c-0.1-1.2-0.3-2.5-0.6-3.6c-1.8-7.2-7.5-12.2-14.8-12.2h-11.2v14.5L823.8,273.1z"/>
		<path id="a36" class="st4" d="M901.6,434.4h-1.5h-12.6V404h-3v30.1c0,0.1,0,0.1,0,0.2h-8.2V449H910v-14.6H901.6z"/>
		<rect id="a35" x="534.2" y="432.6" class="st4" width="24.5" height="34.5"/>
		<polygon id="a34" class="st4" points="558.3,0 558.3,0 544,0 544,0.4 544,32.6 558.3,32.6 		"/>
		<path id="a33" class="st4" d="M774.6,188.8h-7.3l0,0c-1.9,0-3.5-1.6-3.5-3.5l-0.1-6l0,0v-9.9h-1.5v9.9v4v1.9v3.7v6.9v0.5v4v0.7
			c0,1.2,1,2.3,2.3,2.3h9c0.7,0,1.3,0.3,1.8,0.7l0,0c0.7,0.6,1.2,1.4,1.6,2.2l0.1,0.1v-3v-0.7v-6.8v-4.6
			C776.8,189.8,775.8,188.8,774.6,188.8z"/>
		<path id="a31" class="st4" d="M558.7,414.9c0-2.1-1.7-3.9-3.9-3.9h-7.9h-11.6h-1.1H529l0,0h-28.7v1.5h31c0.5,0.4,1.1,0.9,1.5,1.4
			l0,0c0.8,0.8,1.2,1.9,1.2,3v15.6h24.5v-17.6H558.7z"/>
		<polygon id="a30" class="st4" points="800.4,273.2 800.4,258.7 761.1,258.7 761.1,273.2 		"/>
		<path id="a29" class="st4" d="M497.7,187.3c0-0.7,0.3-1.3,0.7-1.8l0,0c0.1-0.1,0.2-0.1,0.4-0.2h3.7h3.7h6.9h0.5h4h0.7
			c1.2,0,2.3-1,2.3-2.3v-9v-3.5h-0.1V169l-6-0.1c-1.9,0-3.5-1.6-3.5-3.5l0,0V157h-14.3v11.3c0,1.2,1,2.3,2.3,2.3h0.7h4h0.5h4.5
			c-1.2,0-2.3,1-2.3,2.3v7.3l0,0c0,1.9-1.6,3.5-3.5,3.5l-6,0.1l0,0h-6.4h-4.6c-1.2,0-2.3,1-2.3,2.3v13.2h14.3v-12L497.7,187.3
			L497.7,187.3z"/>
		<path id="a28" class="st4" d="M695.2,74v-2v-1l0,0l-0.1-8.1v-3.7l-0.1-6.9v-0.5v-4v-0.7c0-1.2-1-2.3-2.3-2.2l-9,0.1
			c-0.7,0-1.3-0.2-1.8-0.7l0,0c-0.7-0.6-1.2-1.3-1.6-2.1l-0.1-0.1v3v0.7l0.1,6.8v4.6c0,1.2,1,2.3,2.3,2.2l7.3-0.1l0,0
			c1.9,0,3.5,1.6,3.5,3.5l0.2,8.3h-19.7v3L695.2,74L695.2,74z"/>
		<path id="a27" class="st4" d="M491.4,411.1L491.4,411.1H489h-13v0.2c-1,0.2-1.8,1.1-1.8,2.2l0.1,7.3l0,0c0,1.9-1.6,3.5-3.5,3.5
			l-8.3,0.2v-49.4h-3v51h2h1l0,0l8.1-0.1h3.7l6.9-0.1h0.5h4h0.7c1.2,0,2.3-1,2.2-2.3l-0.1-9c0-0.7,0.2-1.3,0.7-1.8l0,0
			c0.1-0.1,0.1-0.1,0.2-0.2h11v-1.5L491.4,411.1L491.4,411.1z"/>
		<polygon id="a26" class="st4" points="635.1,455.4 620.5,455.4 620.5,491.7 635.1,491.7 		"/>
		<rect id="a25" x="748.8" y="224.4" class="st4" width="56.2" height="5.1"/>
		<polygon id="a24" class="st4" points="510.8,140.1 526.6,140.1 526.6,125.5 467.4,125.6 467.4,140.1 496.5,140.1 496.5,157 
			510.8,157 		"/>
		<polygon id="a23" class="st4" points="837.1,570.3 832.3,570.3 832.1,611.3 837.1,611.3 		"/>
		<polygon id="a22" class="st4" points="711.1,646.6 696.5,646.6 696.5,672.3 658.5,672.3 658.5,686.8 696.5,686.9 696.5,714.5 
			711,714.5 		"/>
		<rect id="a21" x="630.7" y="71" class="st4" width="43.2" height="3"/>
		<polygon id="a20" class="st4" points="544,54.4 544,73.6 558.3,73.6 558.3,32.6 544,32.6 544,52.9 485.3,52.9 485.3,54.4 		"/>
		<path id="a19" class="st4" d="M462.5,338.1h21.8v-14.7h-11.6h-5.9h-3.7h-3.9h-3h-0.5h-2.9h-1.1H451h-9.4V338h4.3
			c0,0-0.1,0-0.1,0.1l-0.1,0.1h3h0.7h6.8h3h0.2v36.9h3v-37H462.5z"/>
		<path id="a18" class="st4" d="M668,442.1h5.9h3.1h0.6h6.9h0.5h4h0.7c1.2,0,2.3-1,2.3-2.3v-9c0-0.7,0.3-1.3,0.7-1.8l0,0
			c0.6-0.7,1.4-1.2,2.2-1.6l0.1-0.1h-3h-0.7h-6.8h-4.6c-1.2,0-2.3,1-2.3,2.3v7.3l0,0c0,0.8-0.3,1.6-0.8,2.2h-12.6v3H668z"/>
		<polygon id="a17b" class="st4" points="761.1,273.2 761.1,258.7 725.9,258.7 725.9,273.2 		"/>
		<path id="a17" class="st4" d="M837.1,555.4c0.2-0.1,0.5-0.2,0.7-0.2l8.9-0.8c1.2-0.1,2.2-1.2,2.1-2.5l-0.1-0.7l-0.3-3.9v-0.5
			l-0.6-6.8l-0.3-3.7l-0.5-5.8l-1.4-3.5c0.6,0.4,1,1,1.3,1.7l-0.1-1c-0.1-1.2-0.2-2.4-0.5-3.6c-1.8-7.2-7.5-12.2-14.8-12.2h-4.3
			v14.5h16.4c0.6,0,1,0.1,1.4,0.3l0.8,9.9c0.1,1.9-1.3,3.6-3.2,3.8l0,0L834,541c-1.2,0.1-2.2,1.2-2.1,2.5l0.4,4l-0.1,22.8h4.8
			L837.1,555.4L837.1,555.4z"/>
		<polygon id="a16" class="st4" points="841.4,434.5 841.4,449 876.3,449 876.3,434.5 		"/>
		<path id="a15" class="st4" d="M763.6,140.7h15.5c0.1,0,0.1,0,0.1,0h2.1v-2.1c0,0,0,0,0-0.1v-23.9h-19.1v16.6v6.6h-21.5v3h21.5l0,0
			v28.6h1.5L763.6,140.7L763.6,140.7z"/>
		<rect id="a14" x="484.3" y="323.4" class="st4" width="49.1" height="14.7"/>
		<polygon id="a13" class="st4" points="725.9,273.2 725.9,258.7 690.9,258.7 690.9,273.2 		"/>
		<polygon id="a12" class="st4" points="635.1,442.1 664.2,442.1 664.2,439.1 635.1,439.1 635.1,410.6 620.6,410.6 620.5,455.4 
			635.1,455.4 		"/>
		<path id="a11" class="st4" d="M711.1,610.3c0-1.2-1-2.2-2.2-2.2h-12.4v38.5h14.6L711.1,610.3z"/>
		<rect id="a10b" x="708.8" y="224.4" class="st4" width="40" height="5.1"/>
		<path id="a10" class="st4" d="M801.2,511.9v12.4c0,1.2,5.8,2.2,7,2.2l19-0.1v-14.5L801.2,511.9L801.2,511.9z"/>
		<path id="a9" class="st4" d="M791.1,434.5c-1.8,0-2.6-1.1-3.2-2.3l0.1,1c0.1,1.2,0.2,2.4,0.5,3.6c1.8,7.2,7.5,12.2,14.8,12.2h38.2
			v-14.5L791.1,434.5z"/>
		<polygon id="a8" class="st4" points="703.8,140.7 740.6,140.7 740.6,137.7 703.8,137.7 703.8,139.2 699.9,139.2 699.9,140.7 		"/>
		<path id="a7" class="st4" d="M544,102.7c0,1.2,1,2.3,2.3,2.3h0.7h4h0.5h6.9h3.7h5.9v-1.5l-6-0.1c-1.9,0-3.5-1.6-3.5-3.5l0,0V73.6
			H544V102.7z"/>
		<path id="a6" class="st4" d="M590.6,75.9l-6.5,6.4l3.4-1.2l4.4-4.1c1.4-1.3,3.6-1.3,5,0l0,0l5.1,5.2c0.9,0.9,2.3,0.9,3.2,0
			l3.3-3.2l4.8-4.7l0.3-0.3h17.2v-3H611l-5.9-6c-0.9-0.9-2.3-0.9-3.2,0l-0.5,0.5l-2.8,2.8l-0.4,0.4l-4.9,4.8L590.6,75.9z"/>
		<path id="a5" class="st4" d="M571.3,140.1v-12.4c0-1.2-1-2.2-2.2-2.2h-42.5v14.6H571.3z"/>
		<rect id="a4" x="533.4" y="323.4" class="st4" width="48" height="14.7"/>
		<rect id="a3" x="655.3" y="224.4" class="st4" width="53.5" height="5.1"/>
		<polygon id="a2" class="st4" points="658.5,273.2 662,273.2 663.5,273.2 690.9,273.2 690.9,258.7 658.5,258.7 		"/>
		<polygon id="a1" class="st4" points="635.1,377.8 620.6,378 620.6,410.6 635.1,410.6 		"/>
	</g>
</g>
</svg>
