<?xml version="1.0" encoding="utf-8"?>
<!-- Generator: Adobe Illustrator 19.2.0, SVG Export Plug-In . SVG Version: 6.00 Build 0)  -->
<svg version="1.1" xmlns="http://www.w3.org/2000/svg" xmlns:xlink="http://www.w3.org/1999/xlink" x="0px" y="0px"
	 viewBox="0 0 1440 900" style="enable-background:new 0 0 1440 900;" xml:space="preserve">
<style type="text/css">
	.st0{fill:#FEE927;}
	.st1{display:none;}
	.st2{display:inline;fill:#FEE927;}
	.st3{display:inline;fill:#ED1B4E;}
	.st4{display:inline;fill:none;}
	.st5{display:inline;fill:#FDEF2B;}
	.st6{display:inline;fill:#E5D729;}
	.st7{fill:#E5D729;}
	.st8{fill:#ED1B4E;}
	.st9{fill:none;}
	.st10{fill:#FDEF2B;}
	.st11{display:none;fill:#ED1B4E;}
</style>
<g id="reka">
	<rect y="-8.6" class="st0" width="1444.8" height="908.6"/>
</g>
<g id="mim" class="st1">
	<path class="st2" d="M866.4,266.8c-1.9,13.4,5.6,33.7,26.1,53c1.6,1.5,5.5,5.1,11.2,5.6l-4.8,12.9l-17.3,46.4
		c-0.3-0.2-0.5-0.3-0.8-0.5c0,0-3.7-1.5-9.1-6.3c-2.9-2.1-5.8-4.5-8.4-7.1c-20.8-20.2-33.3-53.2-33.3-53.2s2.9-4.7,7.7-11.4
		C846.5,293.6,860.9,273.9,866.4,266.8z"/>
	<path class="st3" d="M907.7,431.6c-1.9,2.5-7.6,10.1-13.8,18.5c-1.2,1.7-2.5,3.4-3.7,5.1l16.9-22.7L907.7,431.6z"/>
	<path class="st4" d="M893.9,450c-1.2,1.7-2.5,3.4-3.7,5.1l8.5-11.6C897.2,445.6,895.6,447.8,893.9,450z"/>
	<path class="st3" d="M1079.6,358.7c-11.1-17.6-34.8-40.7-52.8-51.2c-33.9-19.6-65.7-21.6-126.8,52.3
		c-43.1,52.2-95.3,105.1-95.3,105.1l16.9,22.8l23.8,32l40.3-58.5l4.5-6c1.2-1.7,2.5-3.4,3.7-5.1c1.7-2.3,3.3-4.5,4.8-6.5l10.5-14.3
		l14.3-21.2c13.7-18.7,39.9-57.1,63-47.5c46.9,19.4,81.8,89.4,72,107.8c-7.2,13.4-71.4,14.3-102.7,11.8l-8.6,12.6l-17.3,46.4
		c14.4,8.4,42.8,8.1,66,6.1c27.2-2.4,52.4-15.5,69.9-36.4c3.9-4.6,7.8-9.8,11.7-15.5C1120.5,430.6,1107,402.2,1079.6,358.7z"/>
	<path class="st5" d="M909.3,429.2l-10.5,14.3c4.1-5.6,7.6-10.1,9-12L909.3,429.2z"/>
	<path class="st3" d="M914.8,421.2c-1.9,13.4,5.6,33.7,26.1,53c1.6,1.5,5.5,5.1,11.2,5.6l-4.8,12.9l-17.3,46.4
		c-0.3-0.2-0.5-0.3-0.8-0.5c0,0-3.7-1.5-9.1-6.3c-2.9-2.1-5.8-4.5-8.4-7.1c-20.8-20.2-33.3-53.2-33.3-53.2s2.9-4.7,7.7-11.4
		C894.9,448,909.3,428.3,914.8,421.2z"/>
	<path class="st3" d="M947.2,492.7l8.6-12.6c-1.3-0.1-2.6-0.2-3.8-0.3L947.2,492.7z"/>
</g>
<g id="mara" class="st1">
	<path class="st6" d="M490.1,801.4l-138.7,64.1c-1.8,0.8-11.5,1.1-29.2,0.8c-58.3-1.2-108.8-9.2-151.3-24.1
		c-59.4-20.9-94.7-53.3-105.8-97.2C55.7,708.1,51.3,672,52,636.4c1.9-96.3,36.8-180.6,104.7-252.8c9.2-10,22.4-21.5,39.8-34.7
		c-14.1-11.9-29.1-18.1-45-18.4c-19.1-0.4-37.4,7.6-54.8,24c-6.1,5.5-12.5,13-19.3,22.4c7.1-42,18.1-72.3,32.8-90.9
		c19.3-23.5,48.7-34.9,88.2-34.1c12.6,0.3,28.7,2.7,48.3,7.3c25.9,6.3,42,9.9,48.3,11c19.7,3.1,42.4,4.9,68.1,5.5
		c23.6,0.5,47.6-0.4,71.9-2.5l-42.3,92.8c-4.2-0.1-11.7-0.2-22.4-0.4c-80.2-1.6-145.8,17.6-196.9,57.5
		C118.1,466.3,89.7,527,88.1,605.4c-1.5,76.5,30.5,127.9,96.2,154c38.3,15.4,103.4,24,195.2,25.9l110.9,2.2L490.1,801.4z"/>
	<path class="st6" d="M804.7,464.9c0,0-48.1,32.8-93.9,1.3c-25.5-17.5-59.9-54.7-59.9-54.7L633.3,478l41.3,63.7
		c0,0-96.8,176.6-253.7,108.5c0,0,11,61.1,130.4,73.6S705,544.4,705,544.4s99.2,20.8,140.4-24.7L804.7,464.9z"/>
</g>
<g id="mnich" class="st1">
	<path class="st6" d="M304.1,815.5c-42.3,20.7-84.7,41.5-127.3,62.5c-33.2,12.9-75.2,19.3-125.9,19.3c-83.3,0-143-19.4-179-58.3
		c-34.8-37-52.1-96.8-52.1-179.5c0-100.9,33.5-189.3,100.5-265.5c8.8-10.3,21.4-22.1,38-35.2c-14.1-7.2-28.2-10.8-42.3-10.8
		c-31,0-59.5,19-85.5,57.1c2.8-94.5,45.4-141.7,127.8-141.7c12.8,0,31.9,2.1,57.3,6.3c25.4,4.2,44.6,6.3,57.8,6.3
		c35.1,0,72-3.7,110.9-11.1l-35.7,94.9l-55.4,8c-0.6,6-0.9,11.4-0.9,16.4c0,21,6.1,34.8,18.3,41.3c8.5,4.7,24.6,7.1,48.4,7.1
		l130.2,1.5l-6.2,95H169.7c-32,0-57.4-11.9-76.1-35.7c-17.2-21.9-25.9-49.2-25.9-81.7c0-13.2,1-26,2.9-38.5
		c-8.8,0.3-26.8,7.4-54,21.1c-48.5,25.1-86.3,58.6-113.2,100.5c-27.6,43.2-41.3,91.6-41.3,145.1c0,60.1,22.8,104.6,68.6,133.4
		c37.9,23.8,88.6,35.7,152.2,35.7c5.6,0,79.4-2.3,221.2-6.8V815.5z"/>
	<path class="st6" d="M585.3,529.2h-92.5c-14.7,0-31.6-6.7-50.5-20c-19-13.3-31.6-26.9-37.8-40.7c-5.6,13.2-16.3,26.4-32,39.5
		c-16.6,14.1-31.5,21.2-44.7,21.2h-80.5l-4.5-95.4c4.7,0,23.1-0.6,46.4,0.4c18.5,0.6,33.6,0.6,45.2,0c16.6-0.9,30.8-3.1,42.4-6.5
		c10.4-3.4,21.2-15.9,32.5-37.3c10.7-20.2,18.7-30.3,24-30.3c3.1,0,4.2,4.4,3.3,13.1c-2,14.7-3,20.7-3,17.8
		c0,27.9,23.3,41.8,70,41.8l103.7,0.3L585.3,529.2z M368.8,602.7L411,645l-42.3,42.3L326.5,645L368.8,602.7z M495.6,645l-42.3,42.3
		L411,645l42.3-42.3L495.6,645z"/>
	<path class="st6" d="M845.4,519.6L820,530.6c-6.4,2.8-13.4,4.3-20.4,4.2c-25.3-0.2-60.8-8.2-80.4-16.5c-7.4-3.1-14.1-6.7-19.3-10.8
		c-18.3-14.4-30.1-27.4-35.5-39c-5.9,13.2-16.6,26.3-31.9,39.5c-16.9,14.1-31.8,21.1-44.6,21.1H539v-96.3c47,2.5,79.7,0.8,98.2-5.2
		c9.4-3.1,19.1-16.4,29.1-39.9c9.4-22.2,17.1-33.3,23-33.3c1.6,0,1.1,9.4,2.4,28.2c2.8,43,35,57,67,79.4c3.6,2.5,25.1,17.7,45.9,2.8
		L845.4,519.6z M725.1,196.7l-55.5,55.7l-55.5-55.7l55.5-55.8L725.1,196.7z"/>
</g>
<g id="merhaba" class="st1">
	<path class="st6" d="M-177.4,642.1h-95c-9.5,0-22.9-4.2-40-12.6c-20.6-10.7-35.1-22.5-43.5-35.5c-35.1-55.7-53.8-144.2-56.1-265.4
		l-6.3-314.6l52.5-58.4v323.2c0,123.6,22.5,201,67.6,232.2c13,9.2,30.4,14.1,52.1,14.9c-19.1-0.8,3.8-1.1,68.8-1.1V642.1z"/>
	<path class="st6" d="M81.4,642.1H15.6c-14.1,0-32.3-8.8-54.7-26.3s-36.7-33.4-43.2-47.5c-7.2,16-20.2,32.1-38.9,48.1
		c-20.6,17.2-38.7,25.8-54.4,25.8h-59.5V524.5c66.7,0,106.5-2.1,119.4-6.3c11.4-3.8,23.2-19.9,35.4-48.3
		c11.4-26.9,20.8-40.4,28-40.4c1.1,0,2.3,0.2,3.4,0.6c0-1.1,0,10.1,0,33.6c0,41.1,28.7,61.6,86.3,61.6c5.3,0,12.9,0,22.8,0
		c9.9-0.5,16.9-0.8,21.1-0.8V642.1z M-9.9,770.5l-67.8,67.8l-67.8-67.8l67.8-67.8L-9.9,770.5z"/>
	<path class="st6" d="M514.1,411.7L482,522.9c-60.7,0-103,3.3-127.1,9.7c-17.2,4.6-61.4,24.8-132.8,60.7
		c-64.1,32.5-104,48.7-119.6,48.7H41.3L43,524.5c60.7,0,103-1.9,127.1-5.7c40-6.5,79.2-21.8,117.3-45.9
		c-4.6-6.9-23.5-18.8-56.7-35.9c-33.2-17-54.6-25.5-64.1-25.5c-15.7,0-30.2,3.9-43.5,11.6c-19.8,11.3-32.6,17.9-38.4,19.8
		c-1.1-2.3-1.7-4.6-1.7-6.9c0-29.1,11.1-57.4,33.2-85c23.3-29.1,49.2-43.6,77.8-43.6c18.3,0,48.6,13,91,39
		c46.9,29,78.8,45.5,95.6,49.3C425.3,406.4,469.8,411.7,514.1,411.7z"/>
	<path class="st6" d="M804.7,464.9l-47.2,98.5c-16.4,58.1-52.8,132.5-80.3,174.5c-38.5,58.5-80.9,87.7-127.1,87.7
		c-27.9,0-59.5-9.4-95-28.2c-35.5-18.8-60.7-39.8-75.5-63.2c43.9,10.9,79.4,16.3,106.5,16.3c36.2,0,78.8-18.1,127.6-54.4
		c47.3-35.2,85.9-88.3,100.4-123.1l-61-60.9l22.3-79.1C675.5,433.1,706.1,525.9,804.7,464.9z"/>
	<path class="st6" d="M845.4,519.6c0,0-40.7,37.9-87.9,43.8s47.2-98.5,47.2-98.5L845.4,519.6z"/>
</g>
<g id="mish">
	<polygon class="st7" points="585.7,313.1 629.1,357.5 675.4,311.2 631,265.8 	"/>
	<polygon class="st7" points="490.3,314.9 533.7,359.3 580.1,312.9 535.7,267.6 	"/>
	<polygon class="st7" points="538.8,245.1 582.2,289.5 628.5,243.1 584.1,197.8 	"/>
	<path class="st7" d="M804.7,464.9c0,0-52.8,49.8-119.8-12.1c-18.4-17,10-66.5,0.9-64.9c-8.6,1.4-36.2,104.7-98.2,67.3
		c-6.8-4.1-10.2-12.1-8.7-19.9c3.8-18.9,9.9-53.4,3.5-49.9c-8.8,4.8-32,80.7-86.3,81.5s-75.2-4.8-99.9-60l-40,64.8
		c0,0,48.8,58.3,39.3,130.1S97.2,696.6,127,573.3s19-103,19-103S23,646.5,150.4,723.2c28.9,17.4,62.8,24.4,96.3,21.1
		c67.1-6.6,191.8-41.1,179.8-206.2c0,0,69.1,42,113.9-14.9c0,0,58.3,61,112.5-1.4c0,0,17.9,15.8,52.9,25.8
		c44.7,12.7,118.6,7,139.6-27.9L804.7,464.9z"/>
</g>
<g id="matam">
	<path class="st7" d="M20.7,549.4h-43.5c-16.3,0-41.7-10.6-76.1-31.7c0.9,60.1-14.8,90.1-47.1,90.1c-13,0-26.6-12.7-40.8-38
		c-13-23.8-19.5-43.6-19.5-59.3c0-2.1,0.2-3.9,0.5-5.4c-33.2,3-56.2,14-68.8,33.1l24.1,324.4l-22.7,57.5l-33.2-360.5
		c-0.6-14.8,6.3-35.5,20.8-62.1c12.7-22.9,25.7-41.7,38.9-56.2c5.7-6.3,19.2-13.8,40.3-22.4c21.1-8.6,36.1-12.9,44.8-12.9l-0.5-7.2
		c-0.9-13.6,5.6-21.9,19.5-24.9c11.2,36.1,32.6,60.1,64.3,72c20.2,7.6,53.1,11.4,98.7,11.4V549.4z"/>
	<path class="st7" d="M386.7,553.9l-55.1-4.5c-18.1,0-41.5-8.6-70.2-25.8c-25.1-14.8-45.4-30.3-61.1-46.6
		c-45,48.3-100.1,72.5-165.3,72.5H-9.4v-92.2h55.9c14.5,0,36.2-3.3,64.9-10c33.3-7.6,50-15.3,50-23.2c0-8.8-25.9-22.9-77.7-42.3
		c2.7-23.7,15.7-46,39-66.9s46.8-31.4,70.7-31.4c27.8,0,51.5,5,71.2,14.9c25.1,13,37.6,32.2,37.6,57.5c0,17.5-4.8,32.2-14.5,43.9
		c-4.2,5.1-15.7,15.1-34.4,29.9l-0.5,1.4c0,5.4,14.6,11.3,43.8,17.7c27.4,5.7,49.6,8.6,66.8,8.6c4.8,0,8.1,0,9.9,0L386.7,553.9z"/>
	<path class="st7" d="M845.4,519.6c0,0-19.2,20.4-56.8,27.2c-227.3,41.4-479.1-0.5-479.1-0.5l34.8-89.2H381l72.5-72.6V95
		c-16.1-13.3-24.1-26.3-24.1-39c0-8.2,8.4-26,25.1-53.5c16.8-27.5,27.7-41.3,32.8-41.3h0.5c0.3,1.5,0.5,3.5,0.5,5.9
		c0,3.6-0.5,8.9-1.4,15.7c-0.9,6.8-1.4,12-1.4,15.7c0,27.9,15.2,44.8,45.7,50.8L502,129.6h-11.3v227.8c0.6-7.2,24-24.8,70.1-52.5
		c48.2-29,81.5-43.5,99.9-43.5c19.9,0,38.6,6.8,56.1,20.4c18.7,14.8,28,31.9,28,51.2c0,37.4-26.6,91.7-76.5,143.4
		c37.3,13.2,77.5,3.9,80.9,3.9l55.5-15.3 M848.2,516.6 M689,382.8c0-8.8-11.6-17.5-34.9-26.3c-20.5-7.3-36.5-10.9-48-10.9
		c-30.2,0-69.6,19.2-118.2,57.7c-19.3,15.1-38.8,33-58.4,53.6c4.2,1.8,11.5,2.7,21.7,2.7c41.1,0,83.8-5.4,128.2-16.3
		c57.4-13.6,93.5-32.5,108.3-56.8C688.6,385.3,689,384.1,689,382.8z"/>
</g>
<g id="min">
	<path class="st7" d="M804.7,464.9c0,0-56.9,37.2-129.4-37.7c-16.5-17.1-44.3-95.8-44.3-95.8l-50,90.4c0,0,89.5,110.8,55.1,174.1
		c-34.4,63.3-315,122.9-346.2-23.5c0,0-22.3-91.3,27.4-186.1c1-2-1.5-4-3.2-2.4c-17.5,15.9-64.1,59.5-77.7,241.5
		C219,859.2,588.7,791,672.1,658.3c5.3-8.5,21.5-46.4,23-56.3c3.1-21.3,6.3-28.6,8.3-65.6c0,0,95.7,39.7,142.1-16.7L804.7,464.9z"/>
	<polygon class="st7" points="444,297 497,352.8 555.2,296.3 501.1,239.3 	"/>
</g>
<g id="mem">
	<path class="st8" d="M907.7,431.6c-1.9,2.5-7.6,10.1-13.8,18.5c-1.2,1.7-2.5,3.4-3.7,5.1l16.9-22.7L907.7,431.6z"/>
	<path class="st9" d="M893.9,450c-1.2,1.7-2.5,3.4-3.7,5.1l8.5-11.6C897.2,445.6,895.6,447.8,893.9,450z"/>
	<path class="st8" d="M1079.6,358.7c-11.1-17.6-34.8-40.7-52.8-51.2c-33.9-19.6-65.7-21.6-126.8,52.3
		c-43.1,52.2-95.3,105.1-95.3,105.1l16.9,22.8l23.8,32l40.3-58.5l4.5-6c1.2-1.7,2.5-3.4,3.7-5.1c1.7-2.3,3.3-4.5,4.8-6.5l10.5-14.3
		l14.3-21.2c13.7-18.7,39.9-57.1,63-47.5c46.9,19.4,81.8,89.4,72,107.8c-7.2,13.4-71.4,14.3-102.7,11.8l-8.6,12.6l-17.3,46.4
		c14.4,8.4,42.8,8.1,66,6.1c27.2-2.4,52.4-15.5,69.9-36.4c3.9-4.6,7.8-9.8,11.7-15.5C1120.5,430.6,1107,402.2,1079.6,358.7z"/>
	<path class="st10" d="M909.3,429.2l-10.5,14.3c4.1-5.6,7.6-10.1,9-12L909.3,429.2z"/>
	<path class="st11" d="M914.8,421.2c-1.9,13.4,5.6,33.7,26.1,53c1.6,1.5,5.5,5.1,11.2,5.6l-4.8,12.9l-17.3,46.4
		c-0.3-0.2-0.5-0.3-0.8-0.5c0,0-3.7-1.5-9.1-6.3c-2.9-2.1-5.8-4.5-8.4-7.1c-20.8-20.2-33.3-53.2-33.3-53.2s2.9-4.7,7.7-11.4
		C894.9,448,909.3,428.3,914.8,421.2z"/>
	<path class="st8" d="M947.2,492.7l8.6-12.6c-1.3-0.1-2.6-0.2-3.8-0.3L947.2,492.7z"/>
</g>
<g id="mem2">
	<path class="st8" d="M866.4,266.8c-1.9,13.4,5.6,33.7,26.1,53c1.6,1.5,5.5,5.1,11.2,5.6l-4.8,12.9l-17.3,46.4
		c-0.3-0.2-0.5-0.3-0.8-0.5c0,0-3.7-1.5-9.1-6.3c-2.9-2.1-5.8-4.5-8.4-7.1c-20.8-20.2-33.3-53.2-33.3-53.2s2.9-4.7,7.7-11.4
		C846.5,293.6,860.9,273.9,866.4,266.8z"/>
</g>
</svg>
