<?xml version="1.0" encoding="utf-8"?>
<!-- Generator: Adobe Illustrator 21.1.0, SVG Export Plug-In . SVG Version: 6.00 Build 0)  -->
<svg version="1.1" id="Layer_1" xmlns="http://www.w3.org/2000/svg" xmlns:xlink="http://www.w3.org/1999/xlink" x="0px" y="0px"
	 viewBox="0 0 1600 900" style="enable-background:new 0 0 1600 900;" xml:space="preserve">
<style type="text/css">
	.st0{fill:#58595B;}
	.st1{fill:#231F20;}
	.st2{fill:#6D6E71;}
	.st3{fill:#414042;}
	.st4{fill:#A7A9AC;}
	.st5{fill:#808285;}
	.st6{fill:#BCBEC0;}
	.st7{fill:#D1D3D4;}
	.st8{fill:#939598;}
</style>
<g id="Layer_2">
	<rect x="-41.3" y="-35" class="st0" width="1668.1" height="969.3"/>
</g>
<g id="Layer_1_2_">
	<g id="Layer_1_1_">
		<polygon id="rock1" class="st1" points="1647.7,435.4 1403.7,734 1439.8,965.5 1732,993.3 		"/>
	</g>
	<g id="stone11">
		<g>
			<path class="st2" d="M166.4,117.4l10.4-164.7c0,0,113.5-51,170.3,23.4c42.6,55.9,30,209.5,42,359.3L219,244.8L166.4,117.4z"/>
			<polygon class="st0" points="251.9,464 389.1,335.4 227.3,234.8 			"/>
			<polygon class="st3" points="-62,464 251.9,464 227.3,234.8 169.4,124.8 70.9,223 			"/>
			<polygon class="st0" points="-123.2,304.2 -62,464 80.3,206.9 			"/>
			<polygon class="st1" points="-123.2,304.2 -73.3,4.3 181.5,-46.1 169.4,124.8 76.2,218.8 			"/>
		</g>
	</g>
	<g id="stone8">
		<g>
			<path class="st2" d="M141.1,943.4L-6.4,1093.4c0,0-193.6-235,114.6-546.1l88.3,229.4L141.1,943.4z"/>
			<polygon class="st4" points="347.7,537.8 108.2,547.4 180.2,779.5 			"/>
			<polygon class="st0" points="650.4,799.7 347.7,537.8 180.2,779.5 144.3,933.8 321.2,921.3 			"/>
			<polygon class="st2" points="576,1004.9 650.4,799.7 298.7,929 			"/>
		</g>
	</g>
	<g id="stone9">
		<g>
			<polygon class="st5" points="719.6,671.5 525,679.4 583.5,868 			"/>
			<polygon class="st0" points="965.5,884.4 719.6,671.5 583.5,868 554.3,993.3 698.1,983.2 			"/>
			<polygon class="st2" points="905.1,1051 965.5,884.4 679.8,989.4 			"/>
		</g>
	</g>
	<g id="stone10">
		<polygon id="rock2" class="st5" points="1500.2,798.8 1694,808.2 1622.7,903.9 1436.5,942.2 		"/>
		<g>
			<path class="st1" d="M1086.4,915.5l-119.8,122c0,0-121.8-151.1,93.1-443.6l71.7,186.3L1086.4,915.5z"/>
			<polygon class="st2" points="1254.3,586 1059.7,593.8 1118.2,782.4 			"/>
			<polygon class="st0" points="1500.2,798.8 1254.3,586 1118.2,782.4 1089,907.7 1232.7,897.5 			"/>
			<polygon class="st2" points="1439.8,965.5 1500.2,798.8 1214.5,903.8 			"/>
			<polygon class="st2" points="1439.8,965.5 963.7,1033.3 1089,907.7 1225.6,897.3 			"/>
		</g>
	</g>
	<g id="stone4">
		<g>
			<path class="st3" d="M419.5,509l-170.9,4.4c0,0,7.5-95.5,116.1-170.3c55.7-38.4,138-63.2,259.3-83.8l-78,183.8L419.5,509z"/>
			<polygon class="st0" points="769.2,389 624,259.3 534.9,435.4 			"/>
			<polygon class="st2" points="798,713 769.2,389 534.9,435.4 426.8,505.2 537.1,598 			"/>
			<polygon class="st0" points="654.9,820.7 798,713 532.2,592.9 			"/>
			<polygon class="st1" points="638,789.4 248.6,513.5 426.8,505.2 532.2,592.9 			"/>
		</g>
	</g>
	<g id="stone1">
		<polygon class="st0" points="737.5,199.3 762,-35.6 426.8,-23.8 		"/>
		<polygon class="st1" points="496.5,400.3 737.5,199.3 571.8,39 456.9,-8.4 444.1,130.1 		"/>
		<polygon class="st2" points="347.3,309.4 496.5,400.3 441,111.7 		"/>
		<polygon class="st5" points="352.6,312.6 227.3,234.8 293,-55.6 456.9,-4.1 445.4,127.7 		"/>
	</g>
	<g id="stone2">
		<g>
			<path class="st1" d="M1349.8,681.3l14.5,117.5c0,0-176.2,74.3-285.2-271.9l188.2,38L1349.8,681.3z"/>
			<polygon class="st2" points="1148.5,329.2 1079,527 1261.1,577 			"/>
			<polygon class="st0" points="1500.1,278.4 1148.5,329.2 1261.1,577 1345,674.5 1421.8,552.7 			"/>
			<polygon class="st5" points="1706.5,347 1434.2,411.1 1416,571 			"/>
			<polygon class="st2" points="1706.5,347 1685.2,486 1364.3,798.8 1345,674.5 1417.4,558.2 			"/>
		</g>
	</g>
	<g id="stone3">
		<g>
			<path class="st1" d="M938.4,703.3L961,872c0,0-135.1,10.6-187.2-21.7c-19.8-17.8-58.8-114.5-101-241.4c-7.3-22-7.1-47.5-9.7-74.1
				L855.8,587L938.4,703.3z"/>
			<polygon class="st0" points="771.8,373.1 663.1,534.8 849.8,599 			"/>
			<polygon class="st2" points="1079,276.4 771.8,373.1 849.8,599 933.7,696.5 1010.5,574.7 			"/>
			<polygon class="st0" points="1186.2,421.7 1079,276.4 1004.7,593 			"/>
			<polygon class="st3" points="1186.2,421.7 961,872 933.7,696.5 1006,580.2 			"/>
		</g>
	</g>
	<g id="stone5">
		<g>
			<path class="st2" d="M60.3,686.2L-79,785.3c0,0-93.4-170.1,169.4-420.5l38,196L60.3,686.2z"/>
			<polygon class="st5" points="283.3,391.1 90.4,364.7 114.9,560.5 			"/>
			<polygon class="st0" points="488.2,643.7 283.3,391.1 114.9,560.5 64.2,678.9 207.5,694.2 			"/>
			<polygon class="st2" points="399.5,797.2 488.2,643.7 188.5,697 			"/>
			<polygon class="st1" points="399.5,797.2 -81.1,780.7 64.2,678.9 200.6,692.7 			"/>
		</g>
	</g>
	<g id="stone6">
		<g>
			<path class="st2" d="M1447.9,41.6l57.4-161c0,0,174.1,85.9,102.1,441.7l-143.4-139L1447.9,41.6z"/>
			<polygon class="st0" points="1434.2,411.1 1694.3,381.8 1475.1,175.8 			"/>
			<polygon class="st1" points="1148.5,329.2 1434.2,411.1 1475.1,175.8 1448.9,49.7 1322.7,119.4 			"/>
			<polygon class="st2" points="1106.3,144.9 1148.5,329.2 1336.6,106.1 			"/>
			<polygon class="st0" points="1106.3,144.9 1509.7,-117 1448.9,49.7 1329.2,116.6 			"/>
		</g>
	</g>
	<g id="stone7">
		<g>
			<path class="st2" d="M1167.1,47.3l143.5-137.2c0,0,135.8,179.9-124.4,511.6l-76.4-218.9L1167.1,47.3z"/>
			<polygon class="st1" points="990.6,438.6 1186.3,421.7 1125.3,200.8 			"/>
			<polygon class="st3" points="682.5,167.6 613.3,230.6 624.9,364.6 990.6,438.6 1125.3,200.8 1163.8,56.3 996.5,62.7 			"/>
			<polygon class="st2" points="758.7,-23.7 682.5,167.6 1004.8,63.3 			"/>
			<polygon class="st1" points="758.7,-23.7 1313.9,-85 1163.8,56.3 1004.8,63.3 			"/>
		</g>
	</g>
	<g id="lamedbottom">
		<g>
			<path class="st6" d="M755.5,675L733,722l75.2,16l148.1-61.6c0,0,31.3-70.3,34.9-106.9L867.8,617H796L755.5,675z"/>
			<polygon class="st6" points="678.8,683.2 728.6,823.5 772.5,761.7 799.9,714.3 			"/>
			<path class="st7" d="M678.8,683.2c0,0,76.2-11.1,117.3-66.1v97.3L678.8,683.2z"/>
			<path class="st8" d="M728.6,823.5c0,0,189-53.9,227.8-147.1l-95.6-23.7l-64.6,61.6"/>
		</g>
	</g>
	<g id="lamedmiddle2">
		<g>
			<polygon class="st6" points="693.2,389.7 821.3,382 753.6,276.4 665.1,218.3 			"/>
			<polygon class="st7" points="753.6,276.4 980.6,313.2 887.6,355.5 867.1,408.3 784.7,377.3 			"/>
			<polygon class="st4" points="857.5,433 867.1,408.3 784.7,377.3 693.2,382 718.3,433 			"/>
			<polygon class="st8" points="598.4,309.1 718.3,433 764.4,378.4 680.2,305.4 			"/>
			<polygon class="st7" points="598.4,309.1 598.4,413.1 718.3,433 			"/>
			<polygon class="st4" points="598.4,265.9 598.4,309.1 680.2,305.4 665.1,218.3 			"/>
		</g>
	</g>
	<g id="lamedupper">
		<g>
			<path class="st4" d="M574.7,125.5l140-51.7L598.4,203.8C598.4,203.8,603.4,163.8,574.7,125.5z"/>
			<polygon class="st7" points="714.7,73.8 598.4,203.8 612.2,256 665.1,218.3 			"/>
			<path class="st4" d="M665.1,218.3l49.5-144.5c0,0,29.3,31.7,22.9,192.1L665.1,218.3z"/>
		</g>
	</g>
	<g id="lamedmiddle1">
		<g>
			<path class="st4" d="M1021.2,382c0,0,11.2,150.2,5.6,183l-90.7,53.4L1021.2,382z"/>
			<polyline class="st6" points="887.6,355.5 1012.4,297.4 1021.2,319.8 1021.2,386.6 995.5,500.2 922.9,438.4 887.6,355.5 			"/>
			<path class="st7" d="M857.5,502.3c0,0,27.4,60.7-22.5,116.1h101.1l59.3-118.2l-72.5-61.8L857.5,502.3z"/>
			<polygon class="st8" points="857.5,433 857.5,502.3 922.9,438.4 887.6,355.5 			"/>
		</g>
	</g>
	<g id="Lamed">
	</g>
</g>
<polygon class="st5" points="665.1,924.8 770.6,844.9 952.2,803 973.2,920.5 873.3,953.4 "/>
</svg>
