<?xml version="1.0" encoding="utf-8"?>
<!-- Generator: Adobe Illustrator 21.0.2, SVG Export Plug-In . SVG Version: 6.00 Build 0)  -->
<svg version="1.1" xmlns="http://www.w3.org/2000/svg" xmlns:xlink="http://www.w3.org/1999/xlink" x="0px" y="0px" width="1920px"
	 height="1080px" viewBox="0 0 1920 1080" style="enable-background:new 0 0 1920 1080;" xml:space="preserve">
<style type="text/css">
	.st0{fill:#FFFFFF;}
	.st1{display:none;}
	.st2{display:inline;opacity:0.7;fill:#2E3192;enable-background:new    ;}
	.st3{display:inline;opacity:0.7;fill:#D4145A;enable-background:new    ;}
	.st4{display:inline;fill:#2E3192;}
	.st5{fill:#FF0000;}
	.st6{opacity:0.65;fill:#FFFFFF;enable-background:new    ;}
	.st7{stroke:#000000;stroke-miterlimit:10;}
</style>
<g id="Layer_2_3_">
	<rect x="-26.8" y="-7" class="st0" width="1972.3" height="1101.3"/>
</g>
<g id="Layer_1">
	<g id="Layer_1_3_">
		<g id="Layer_1_2_">
			<g id="Layer_2">
				<polygon id="zain6" points="-2142.1,843.8 -2413.8,823.6 -2413.7,760.5 -2043.5,689.9 				"/>
				<path id="zain5" d="M-1415.9,640.7c0,0-214,201.7-295.3,203.2l268.1,48.8L-1415.9,640.7z"/>
				<path id="zain4" d="M-1231.3,290.2l-103.4-39.4l-107.6-187.2c0,0,200,55.1,202,51.3C-1238.3,111.2-1230.3,266.3-1231.3,290.2z"
					/>
				<path id="zain3" d="M-2569.8,215.8c0,0,103.2,114,109.7,123.7l104.4-127.5c0,0-86.3-136.4-99.1-156.8L-2569.8,215.8z"/>
				<path id="zain2" d="M-1161.2,755.7l177.7-173.6c0,0,10.4,303.3-65.6,333C-1049.1,915.1-1127.7,959.9-1161.2,755.7z"/>
				<path id="zain1" d="M-2029.6,188.5c0,0,16.4,132,26.8,141.2c0,0,15.2,39.4,46.8,1.1c0,0,37.8-70.6,62.5-172.4l84.3-141.6
					l-14.4,215.5L-1983.9,422l-73.7-167.2L-2029.6,188.5z"/>
			</g>
			<g id="Layer_1_1_">
				<g id="block" class="st1">
					<path id="blue1" class="st2" d="M-551.6-906.1v40.8c0,0,154.9,43.8,194.7,54.3c32.4,8.6,93.9,22,93.9,22l5.3,135.7l0,0
						L-263-789c0,0-61.5-13.4-93.9-22c-39.7-10.5-194.7-54.3-194.7-54.3l17.4,148.7c0,0,64.6,3.8,124.6,13.5
						c16.2,49.4,33,104.6,33.6,133.1c0.3,14.2-5.3,24.5-17.5,25.2c-15.8,1-56.7-40.6-89.2-82.1l64.3,334.1l238.1,0.1l359.3,0.2
						l0.4-613.2L-551.6-906.1z M-336.2-685.8c4.4,5.5,8.8,11,13.1,16.5c60.7,78.3,149.4,197.2,92.5,226.8c-2.6,1.4-6.1,2-10.4,2.1
						c4.2-0.1,7.8-0.7,10.4-2.1c56.9-29.6-31.8-148.5-92.5-226.8C-327.4-674.8-331.8-680.3-336.2-685.8L-336.2-685.8z M-217-324.4
						c-101.5-92-147.1-168.8-140.5-174.4l0,0C-364.1-493.2-318.5-416.4-217-324.4c1.8,1.6,3.5,3.2,5.3,4.8
						C-213.5-321.2-215.3-322.8-217-324.4z M-206.2-314.7c2.8,2.4,5.5,4.9,8.4,7.3C-200.7-309.9-203.5-312.3-206.2-314.7z"/>
					<path id="red1" class="st3" d="M-355.8-498.9c25.8,33.4,106.1,67,126.8,56.2c56.9-29.7-31.8-148.5-92.6-226.8
						c-4.3-5.5-8.6-11-13.1-16.5c37.7,13,78.5,32.5,78.5,32.5l-5.4-135.7c0,0-61.5-13.4-93.9-21.9c-39.7-10.5-194.7-54.2-194.7-54.2
						l0,0l0.1-40.8h-359.4v613.2h492.8h238.1C-305.8-398.3-363.2-492.7-355.8-498.9z"/>
					<path id="zain" class="st4" d="M-78.6-693.4c0,0,130,167.6,124,200.4c0,0,13.4,68-58.8,41.5s-86.6-52.9-86.6-52.9
						s3.5,58.8,179,208.2l-242.5,0.1l-65-337.6c0,0,69.7,86.6,90.2,83s30.8-14.7-16.3-160c0,0-119.8-15-125.9-13.6L-298-874.6
						c0,0,290.1,81.2,291.7,77.1c0,0,6,87.7,6.9,134.2L-78.6-693.4"/>
				</g>
			</g>
		</g>
		<g id="spiral">
			<g id="spiral1">
				<path class="st5" d="M79.6-163.1C50-126.1,23.1-87.8-1.2-48.5l916.8,559.8L79.6-163.1z"/>
				<path class="st5" d="M924.1,502L281.9-359.3c-37.1,27.8-72.7,58.2-106.6,91.1L924.1,502z"/>
				<path class="st5" d="M910.3,559.2L-107.1,903.7c15,44.1,32.9,87.4,53.4,129.6L910.3,559.2z"/>
				<path class="st5" d="M906.9,534.5L-150.8,346.3c-8,46.2-13.2,92.8-15.4,139.4L906.9,534.5z"/>
				<path class="st5" d="M909.8,522.4L-67.9,77c-19.4,42.9-36,86.7-49.7,131.1L909.8,522.4z"/>
				<path class="st5" d="M934.6,495.2L526.8-498.7c-43.1,17.8-85.2,38.3-126,61.5L934.6,495.2z"/>
				<path class="st5" d="M199.7,1371.1c17.2,15.6,35,30.8,53.3,45.6c18.4,14.7,37,28.8,56,42.2l616.2-879.8L199.7,1371.1z"/>
				<path class="st5" d="M973.7,1664c46.8-0.7,93.5-4.4,139.8-10.9L960.4,589.9L973.7,1664z"/>
				<path class="st5" d="M907,547.1l-1071,80.7c3.7,46.6,10.2,93,19.6,138.8L907,547.1z"/>
				<path class="st5" d="M971.3,492.3l383.1-1003.8c-44-16.7-88.8-30.4-134-41.3L971.3,492.3z"/>
				<path class="st5" d="M958.9,490.1l121.4-1067.3c-46.6-5.1-93.4-7.3-140-6.6L958.9,490.1z"/>
				<path class="st5" d="M946.4,491.1L798.6-572.8c-46.3,6.6-92.1,16-137.3,28.2L946.4,491.1z"/>
				<path class="st5" d="M1483.9-452.8L982.7,497.5l620.5-876.7C1564.6-406.5,1524.7-431,1483.9-452.8z"/>
				<path class="st5" d="M1006.5,539.3l1072.8,54.2c2.2-46.8,1.4-93.6-2.2-140.2L1006.5,539.3z"/>
				<path class="st5" d="M1000.7,563.5l914,564.3c24.8-40.2,46.7-81.6,65.8-123.8L1000.7,563.5z"/>
				<path class="st5" d="M993.5,573.8l745,773.9c33.2-32.2,64.7-66.7,94.4-103.7L993.5,573.8z"/>
				<path class="st5" d="M992.5,505.3l819.2-695c-30.1-35.2-62.6-68.8-97.6-100.7L992.5,505.3z"/>
				<path class="st5" d="M1004.8,526.9l1052.5-214.3c-9.4-45.7-21.7-90.9-36.8-135.3L1004.8,526.9z"/>
				<path class="st5" d="M1000,515.3l966.4-469.4C1945.9,4.1,1922.8-36.6,1897-76L1000,515.3z"/>
				<path class="st5" d="M1005.2,551.8L2031,871.1c13.8-44.9,24.7-90.5,32.8-136.3L1005.2,551.8z"/>
				<path class="st5" d="M1011.9,539.4l1073,55.2c2.3-47,1.5-93.8-2.1-140.2L1011.9,539.4z"/>
				<path class="st5" d="M947.9,589.3L693.6,1633.1c45.7,10.9,91.8,19,138.1,24.1L947.9,589.3z"/>
				<path class="st5" d="M935.9,585.6l-505.8,947.8c41.7,22.1,84.3,41.4,127.7,57.9L935.9,585.6z"/>
				<path class="st5" d="M916.5,570.1L16.6,1156.9c25.5,38.8,53.5,76.3,84.2,112.1L916.5,570.1z"/>
				<path class="st5" d="M984,581.9l529.2,935c40.4-23,79.6-48.6,117.3-76.9L984,581.9z"/>
				<path class="st5" d="M972.7,587.4l280,1037c45-12.3,89.4-27.3,132.7-45.2L972.7,587.4z"/>
			</g>
		</g>
		<g id="Layer_2_1_">
			<polygon id="spiral2" class="st6" points="938.1,-691.8 962,483 1067,-687.3 967.9,483.5 1194.7,-669.4 973.8,484.7 
				1319.8,-638.3 979.5,486.4 1441,-594.2 985,488.7 1556.9,-537.7 990.2,491.6 1666.3,-469.4 995.1,495 1768,-390.1 999.6,499 
				1860.8,-300.5 1003.7,503.3 1943.7,-201.8 1007.3,508.1 2015.8,-94.9 1010.4,513.2 2076.4,19 1012.9,518.6 2124.7,138.5 
				1014.8,524.3 2160.3,262.5 1016.2,530.1 2182.8,389.5 1016.9,536 2191.8,518.1 1017,542 2187.3,647 1016.5,547.9 2169.4,774.7 
				1015.3,553.8 2138.3,899.8 1013.6,559.5 2094.2,1021 1011.3,565 2037.7,1136.9 1008.4,570.2 1969.4,1246.3 1005,575.1 
				1890.1,1348 1001,579.6 1800.5,1440.8 996.7,583.7 1701.8,1523.7 991.9,587.3 1594.9,1595.8 986.8,590.4 1481,1656.4 
				981.4,592.9 1361.5,1704.7 975.7,594.8 1237.5,1740.3 969.9,596.2 1110.5,1762.8 964,596.9 981.9,1771.8 958,597 853,1767.3 
				952.1,596.5 725.3,1749.4 946.2,595.3 600.2,1718.3 940.5,593.6 479,1674.2 935,591.3 363.1,1617.7 929.8,588.4 253.7,1549.4 
				924.9,585 152,1470.1 920.4,581 59.2,1380.5 916.3,576.7 -23.7,1281.8 912.7,571.9 -95.8,1174.9 909.6,566.8 -156.4,1061 
				907.1,561.4 -204.7,941.5 905.2,555.7 -240.3,817.5 903.8,549.9 -262.8,690.5 903.1,544 -271.8,561.9 903,538 -267.3,433 
				903.5,532.1 -249.4,305.3 904.7,526.2 -218.3,180.2 906.4,520.5 -174.2,59 908.7,515 -117.7,-56.9 911.6,509.8 -49.4,-166.3 
				915,504.9 29.9,-268 919,500.4 119.5,-360.8 923.3,496.3 218.2,-443.7 928.1,492.7 325.1,-515.8 933.2,489.6 439,-576.4 
				938.6,487.1 558.5,-624.7 944.3,485.2 682.5,-660.3 950.1,483.8 809.5,-682.8 956,483.1 			"/>
		</g>
		<polygon id="zain61" class="st7" points="1072,568 1036.9,903 945.2,903 925.5,631.2 		"/>
		<path id="zain51" class="st7" d="M945.2,903l-19.7-271.8C915.3,711.9,783.6,903,783.6,903H945.2z"/>
		<path id="zain41" class="st7" d="M818.5,150c2,3.8,186.7,47,186.7,47L897.6,384.2l-76.9-11.4C819.8,348.8,816.5,146.2,818.5,150z"
			/>
		<path id="zain31" class="st7" d="M1174.8,226.1c-23.2,6.5-169.6-29.1-169.6-29.1l-15.7,187.3c11.2-2.8,129.6,10.8,129.6,10.8
			L1174.8,226.1z"/>
		<path id="zain21" class="st7" d="M830,476l67.6-91.8L925.5,631C862.5,575.4,830,476,830,476z"/>
		<path id="zain11" class="st7" d="M1072,568l-146.5,63l-27.9-246.8L1005.2,197l-15.7,187.2c-16.8,57.8-50,111-50,111
			c29.3,32.8,135.8,55.2,135.8,55.2L1072,568z"/>
	</g>
	<g id="Layer_2_2_">
	</g>
</g>
</svg>
