<?xml version="1.0" encoding="utf-8"?>
<!-- Generator: Adobe Illustrator 19.0.0, SVG Export Plug-In . SVG Version: 6.00 Build 0)  -->
<svg version="1.1" id="Layer_1" xmlns="http://www.w3.org/2000/svg" xmlns:xlink="http://www.w3.org/1999/xlink" x="0px" y="0px"
	 viewBox="0 0 1440 899.9" style="enable-background:new 0 0 1440 899.9;" xml:space="preserve">
<style type="text/css">
	.st0{fill:#3DA08F;}
	.st1{fill:#8C263C;}
	.st2{fill:#B23449;}
	.st3{fill:#333333;stroke:#333333;stroke-width:8.5039;stroke-miterlimit:10;}
	.st4{fill:#333333;}
	.st5{fill:#333333;stroke:#333333;stroke-width:6.8365;stroke-miterlimit:10;}
	.st6{fill:#333333;stroke:#333333;stroke-width:5.573;stroke-miterlimit:10;}
	.st7{fill:#333333;stroke:#333333;stroke-miterlimit:10;}
	.st8{fill:#FF931E;stroke:#FF931E;stroke-miterlimit:10;}
	.st9{fill:#E29939;}
	.st10{fill:#FBB03B;}
	.st11{fill:#FF931E;stroke:#FF931E;stroke-width:0.5861;stroke-miterlimit:10;}
	.st12{fill:#FF931E;stroke:#FF931E;stroke-width:0.5821;stroke-miterlimit:10;}
	.st13{fill:none;stroke:#F7931E;stroke-width:4.252;stroke-miterlimit:10;}
	.st14{fill:#F7931E;}
	.st15{fill:#E08C9A;}
	.st16{fill:#D65161;}
	.st17{fill:#FF931E;stroke:#FF931E;stroke-width:0.5;stroke-miterlimit:10;}
	.st18{fill:#FF931E;stroke:#FF931E;stroke-width:4;stroke-miterlimit:10;}
	.st19{fill:#FFFFFF;}
	.st20{fill:#EDEDED;}
	.st21{opacity:0.5;}
	.st22{opacity:0.46;}
	.st23{opacity:0.64;}
</style>
<rect id="XMLID_88_" y="-0.2" class="st0" width="1440" height="900"/>
<path id="XMLID_26_" class="st1" d="M335.4,323.9c41-130.1,43.4-325.3,43.4-325.3L226.1-0.1c0,0-85.9,148.4-118.6,252.1
	C44.3,452.4,44.1,630.9,107,650.7S272.2,524.3,335.4,323.9z"/>
<path id="XMLID_28_" class="st1" d="M1083,321.5c-41.3-130.8-43.9-321.6-43.9-321.6h155.8c0,0,83.2,145.4,116.1,249.7
	c63.2,200.4,63.4,378.9,0.5,398.7C1248.5,668.2,1146.2,521.8,1083,321.5z"/>
<g id="beten_1_">
	<path id="beten" class="st1" d="M310.9-27.1c0,0-231.4,713-109,963H1225c0,0,140.4-144.6-100-963H310.9z"/>
	<path id="XMLID_64_" class="st2" d="M661.9-1.3c0,0-61.8,815.2-42.2,901.2l203.7-1.9c0,0-39.9-852.7-44.4-899.1L661.9-1.3z"/>
	<path id="XMLID_284_" class="st2" d="M479.7-12.7l23.6,90.2c0,0,15.4,43.4-5.9,53.2c-20.4,9.4-49.2,22.3-49.2,22.3s-16.8,1.9-7,34
		c9.3,30.4,173.6,623.4,173.6,623.4s52-771,56.9-823.5L479.7-12.7z"/>
	<path id="XMLID_36_" class="st2" d="M953.7-12.9l-13.9,90.5c0,0-15.4,43.4,5.9,53.2c20.4,9.4,49.2,22.3,49.2,22.3s16.8,1.9,7,34
		c-9.3,30.4-173.6,623.4-173.6,623.4s-52-771-66.6-823.7L953.7-12.9z"/>
	<circle id="XMLID_86_" class="st3" cx="723.7" cy="284.7" r="29.7"/>
	<path id="XMLID_92_" class="st4" d="M753.4,899.9H694c0,0,0-30.3,29.7-29.7C756,870.8,753.4,899.9,753.4,899.9z"/>
	<circle id="XMLID_91_" class="st3" cx="723.7" cy="780.7" r="29.7"/>
	<circle id="XMLID_89_" class="st5" cx="723.7" cy="150.2" r="23.9"/>
	<circle id="XMLID_90_" class="st6" cx="723.7" cy="26.2" r="19.5"/>
	<path id="XMLID_85_" class="st3" d="M619.7,899.5C592.2,598.2,675.9,0,675.9,0"/>
	<path id="XMLID_87_" class="st3" d="M823.4,898C850.9,596.7,767.2-1.5,767.2-1.5"/>
</g>
<polygon id="XMLID_8_" class="st7" points="424.5,338.4 487,338.4 613.5,0.4 595.5,0.4 "/>
<polygon id="XMLID_93_" class="st7" points="1011,338.4 948.5,338.4 822,0.4 840,0.4 "/>
<polygon id="XMLID_283_" class="st2" points="1311.1,330.6 1342.9,429.9 1095,489.2 1054.1,380 "/>
<circle id="XMLID_282_" class="st8" cx="1115.7" cy="441.8" r="11.9"/>
<polygon id="XMLID_280_" class="st2" points="113.9,322.6 82.1,421.9 330,481.2 370.9,372 "/>
<g id="left">
	<g id="left_stick">
		<polygon id="XMLID_35_" class="st9" points="43,341 743.2,254.9 43,360.6 		"/>
		
			<ellipse id="XMLID_34_" transform="matrix(0.9893 -0.1458 0.1458 0.9893 -29.7163 107.8078)" class="st9" cx="720.5" cy="256.6" rx="30.9" ry="12.9"/>
	</g>
	<g id="left_hand">
		<path id="XMLID_29_" class="st10" d="M336.7,247c0,0-10.2-25.6-25.5-19c-15.4,6.6-9.3,15.6-21.2,16.1c-11.2,0.4-14-16.1-31.5-9.5
			c-17.6,6.6-9.2,17.4-20.2,17.4c-11,0-5-9.7-24.8-7.5s-16.6,20.2-24.3,20.2c-7.7,0-7.5-4.8-20.7-0.4c-13.2,4.4-18.7,22-18.7,31.8
			c0,9.9-4.4,107.6,27.4,95.5c22-7.7,10.6-18.1,18.2-19.2c7.7-1.1-1.8,27.8,25.7,20.2s14.8-27.8,22.4-21.3
			c7.6,6.6,0.6,23.3,24.8,22.3c24.1-1,17.7-22.8,27.5-23.9c9.9-1.1,2.7,33.7,40.8,23.9c22.8-6.5,15.1-91,15.1-91s23.3,0.8,62.7-17.7
			s15.2-53.2,15-52.4C429.2,233.3,372.5,254.5,336.7,247z"/>
		<path id="XMLID_30_" class="st11" d="M351.7,302.6c0,0-9.4-45.5-15.1-55.6c-5.6-10.2,18.7,24.5,22.9,55.1L351.7,302.6z"/>
		<path id="XMLID_31_" class="st11" d="M301.4,375.2c0,0-11.2-75.9-11.9-86.1s-10.1-9.1,3.8,81.6
			C293.3,370.6,298.4,367.8,301.4,375.2z"/>
		<path id="XMLID_32_" class="st11" d="M246.3,375.2c0,0-9.8-65.3-8-81.2c1.8-15.9-9.2,2.8,2.1,78.7
			C240.4,372.7,243.9,367.8,246.3,375.2z"/>
		<path id="XMLID_33_" class="st11" d="M198.6,375.2c0,0-8.3-54.8-4.8-72.6c3.5-17.8-10.6,8.2-0.9,71.1
			C192.9,373.7,195.3,370.9,198.6,375.2z"/>
	</g>
</g>
<g id="right">
	<g id="right_stick">
		<polygon id="XMLID_66_" class="st9" points="1377.1,375.3 701,174.1 1373.9,394.7 		"/>
		
			<ellipse id="XMLID_65_" transform="matrix(-0.9513 -0.3081 0.3081 -0.9513 1356.864 573.64)" class="st9" cx="723.7" cy="179.7" rx="30.9" ry="12.9"/>
	</g>
	<g id="right_hand">
		<path id="XMLID_63_" class="st10" d="M1104,234.4c0,0,14.2-23.4,28.1-14.4c14,9,6.6,16.8,18.1,19.2c10.9,2.3,16.3-13.4,32.4-4.1
			c16.1,9.3,6.2,18.5,16.9,20.3c10.7,1.8,6.5-8.6,25.5-3.2s13,22.5,20.5,23.8c7.5,1.3,8.2-3.5,20.3,3c12.2,6.5,14.7,24.6,13,34.2
			c-1.6,9.7-13.4,106.1-42.6,89c-20.2-11.1-7.4-19.4-14.7-21.8s-2.9,27.5-28.5,15.5c-25.6-12-9.9-29.7-18.4-24.5
			c-8.6,5.2-4.5,22.7-28,17.8s-13.5-25.3-23-28c-9.5-2.7-8.2,32.6-43.9,16.7c-21.2-10.1,0.3-91.6,0.3-91.6s-22.9-3.1-58.5-27.7
			s-6.1-54.7-6-53.8C1015.7,205.8,1067.7,235.9,1104,234.4z"/>
		<path id="XMLID_62_" class="st12" d="M1080.1,286.4c0,0,16.7-43,23.9-52c7.2-9-22.3,20.9-31.5,50.2L1080.1,286.4z"/>
		<path id="XMLID_61_" class="st12" d="M1117.4,365.8c0,0,23.5-72.5,25.9-82.4c2.4-9.9,11.4-7.3-17.2,79.3
			C1126.1,362.7,1121.6,359.1,1117.4,365.8z"/>
		<path id="XMLID_60_" class="st12" d="M1171.4,374.9c0,0,20.4-62.3,21.2-78.2s8.6,4.3-15,76.8
			C1177.6,373.5,1175,368.1,1171.4,374.9z"/>
		<path id="XMLID_59_" class="st12" d="M1218.1,382.8c0,0,17.2-52.2,16.7-70.3s9,9.7-10.9,69.8
			C1223.9,382.3,1222.1,379.1,1218.1,382.8z"/>
	</g>
</g>
<polygon id="XMLID_67_" class="st8" points="198.2,-0.6 170.7,52.2 448.3,-0.6 "/>
<polyline id="XMLID_57_" class="st8" points="973,-0.6 1223.6,-0.6 1250.8,52.2 "/>
<g id="XMLID_68_">
	<line id="XMLID_70_" class="st13" x1="267" y1="26.7" x2="266" y2="69.6"/>
	<g id="XMLID_69_">
		<line id="XMLID_71_" class="st13" x1="203.6" y1="42.5" x2="171.1" y2="96.7"/>
		<line id="XMLID_72_" class="st13" x1="232.9" y1="33.5" x2="217.9" y2="89.7"/>
		<circle id="XMLID_73_" class="st14" cx="171.1" cy="96.7" r="7.4"/>
		<circle id="XMLID_74_" class="st14" cx="218.1" cy="89.7" r="7.4"/>
		<circle id="XMLID_75_" class="st14" cx="266.1" cy="77.2" r="7.4"/>
	</g>
</g>
<g id="XMLID_77_">
	<line id="XMLID_84_" class="st13" x1="1151.8" y1="22.7" x2="1152.8" y2="65.6"/>
	<g id="XMLID_78_">
		<line id="XMLID_83_" class="st13" x1="1215.2" y1="38.5" x2="1247.6" y2="92.7"/>
		<line id="XMLID_82_" class="st13" x1="1185.9" y1="29.5" x2="1200.9" y2="85.7"/>
		<circle id="XMLID_81_" class="st14" cx="1247.6" cy="92.7" r="7.4"/>
		<circle id="XMLID_80_" class="st14" cx="1200.6" cy="85.7" r="7.4"/>
		<circle id="XMLID_79_" class="st14" cx="1152.6" cy="73.2" r="7.4"/>
	</g>
</g>
<rect id="pink6" x="76" y="-72.8" transform="matrix(-0.7071 -0.7071 0.7071 -0.7071 181.0625 0.7481)" class="st15" width="29.3" height="71.4"/>
<rect id="pink5" x="149" y="-84.2" transform="matrix(-0.9733 0.2296 -0.2296 -0.9733 311.9251 -133.233)" class="st15" width="29.3" height="71.4"/>
<rect id="pink4" x="53.6" y="-84.2" transform="matrix(-0.913 -0.408 0.408 -0.913 150.315 -64.8826)" class="st15" width="29.3" height="71.4"/>
<rect id="pink3" x="1291.2" y="-84.2" transform="matrix(-0.7071 -0.7071 0.7071 -0.7071 2263.5469 840.6516)" class="st15" width="29.3" height="71.4"/>
<rect id="pink2" x="1362.5" y="-86.6" transform="matrix(-0.2718 0.9624 -0.9624 -0.2718 1702.3638 -1390.0576)" class="st15" width="29.3" height="71.4"/>
<rect id="pink1" x="1303.1" y="-86.6" transform="matrix(-0.925 0.38 -0.38 -0.925 2517.3411 -598.7787)" class="st15" width="29.3" height="71.4"/>
<g id="tof">
	<rect id="XMLID_1_" x="431.7" y="352.1" class="st16" width="576.6" height="398.7"/>
	<path id="XMLID_2_" class="st10" d="M1017.5,398H424.4c-7.3,0-13.2-5.9-13.2-13.2V351c0-7.3,5.9-13.2,13.2-13.2h593.2
		c7.3,0,13.2,5.9,13.2,13.2v33.8C1030.7,392.1,1024.8,398,1017.5,398z"/>
	<path id="XMLID_4_" class="st10" d="M1017.7,765.2H424.2c-7.2,0-13-5.8-13-13V718c0-7.2,5.8-13,13-13h593.5c7.2,0,13,5.8,13,13
		v34.1C1030.7,759.3,1024.9,765.2,1017.7,765.2z"/>
	<g id="XMLID_3_">
		<rect id="XMLID_5_" x="421.7" y="326.3" class="st17" width="19.6" height="83.2"/>
		<rect id="XMLID_6_" x="421.7" y="693.4" class="st17" width="19.6" height="83.2"/>
		<line id="XMLID_7_" class="st18" x1="432" y1="693.9" x2="432" y2="397.9"/>
	</g>
	<g id="XMLID_9_">
		<rect id="XMLID_12_" x="467.2" y="326.3" class="st17" width="19.6" height="83.2"/>
		<rect id="XMLID_11_" x="467.2" y="693.4" class="st17" width="19.6" height="83.2"/>
		<line id="XMLID_10_" class="st18" x1="478" y1="693.9" x2="478" y2="397.9"/>
	</g>
	<g id="XMLID_13_">
		<rect id="XMLID_16_" x="512.7" y="326.3" class="st17" width="19.6" height="83.2"/>
		<rect id="XMLID_15_" x="512.7" y="693.4" class="st17" width="19.6" height="83.2"/>
		<line id="XMLID_14_" class="st18" x1="523" y1="693.9" x2="523" y2="397.9"/>
	</g>
	<g id="XMLID_17_">
		<rect id="XMLID_20_" x="558.2" y="326.3" class="st17" width="19.6" height="83.2"/>
		<rect id="XMLID_19_" x="558.2" y="693.4" class="st17" width="19.6" height="83.2"/>
		<line id="XMLID_18_" class="st18" x1="569" y1="693.9" x2="569" y2="397.9"/>
	</g>
	<g id="XMLID_21_">
		<rect id="XMLID_24_" x="603.7" y="326.3" class="st17" width="19.6" height="83.2"/>
		<rect id="XMLID_23_" x="603.7" y="693.4" class="st17" width="19.6" height="83.2"/>
		<line id="XMLID_22_" class="st18" x1="614" y1="693.9" x2="614" y2="397.9"/>
	</g>
	<g id="XMLID_37_">
		<rect id="XMLID_40_" x="818.2" y="326.3" class="st17" width="19.6" height="83.2"/>
		<rect id="XMLID_39_" x="818.2" y="693.4" class="st17" width="19.6" height="83.2"/>
		<line id="XMLID_38_" class="st18" x1="829" y1="693.9" x2="829" y2="397.9"/>
	</g>
	<g id="XMLID_41_">
		<rect id="XMLID_44_" x="863.7" y="326.3" class="st17" width="19.6" height="83.2"/>
		<rect id="XMLID_43_" x="863.7" y="693.4" class="st17" width="19.6" height="83.2"/>
		<line id="XMLID_42_" class="st18" x1="874" y1="693.9" x2="874" y2="397.9"/>
	</g>
	<g id="XMLID_45_">
		<rect id="XMLID_48_" x="909.2" y="326.3" class="st17" width="19.6" height="83.2"/>
		<rect id="XMLID_47_" x="909.2" y="693.4" class="st17" width="19.6" height="83.2"/>
		<line id="XMLID_46_" class="st18" x1="920" y1="693.9" x2="920" y2="397.9"/>
	</g>
	<g id="XMLID_49_">
		<rect id="XMLID_52_" x="954.7" y="326.3" class="st17" width="19.6" height="83.2"/>
		<rect id="XMLID_51_" x="954.7" y="693.4" class="st17" width="19.6" height="83.2"/>
		<line id="XMLID_50_" class="st18" x1="965" y1="693.9" x2="965" y2="397.9"/>
	</g>
	<g id="XMLID_53_">
		<rect id="XMLID_56_" x="1000.2" y="326.3" class="st17" width="19.6" height="83.2"/>
		<rect id="XMLID_55_" x="1000.2" y="693.4" class="st17" width="19.6" height="83.2"/>
		<line id="XMLID_54_" class="st18" x1="1011" y1="693.9" x2="1011" y2="397.9"/>
	</g>
	<g id="highlights">
		<rect id="w_19_" x="1016.9" y="332" class="st19" width="3.2" height="66"/>
		<rect id="w_18_" x="971.2" y="332" class="st19" width="3.2" height="66"/>
		<rect id="w_17_" x="925.5" y="332" class="st19" width="3.2" height="66"/>
		<rect id="w_16_" x="880.1" y="332" class="st19" width="3.2" height="66"/>
		<rect id="w_15_" x="834.6" y="332" class="st19" width="3.2" height="66"/>
		<rect id="w_14_" x="620.3" y="332" class="st19" width="3.2" height="66"/>
		<rect id="w_13_" x="574.6" y="332" class="st19" width="3.2" height="66"/>
		<rect id="w_12_" x="528.9" y="332" class="st19" width="3.2" height="66"/>
		<rect id="w_11_" x="483.5" y="332" class="st19" width="3.2" height="66"/>
		<rect id="w_10_" x="438" y="332" class="st19" width="3.2" height="66"/>
		<rect id="w_9_" x="1016.9" y="702" class="st19" width="3.2" height="66"/>
		<rect id="w_8_" x="971.2" y="702" class="st19" width="3.2" height="66"/>
		<rect id="w_7_" x="925.5" y="702" class="st19" width="3.2" height="66"/>
		<rect id="w_6_" x="880.1" y="702" class="st19" width="3.2" height="66"/>
		<rect id="w_5_" x="834.6" y="702" class="st19" width="3.2" height="66"/>
		<rect id="w_4_" x="620.3" y="702" class="st19" width="3.2" height="66"/>
		<rect id="w_3_" x="574.6" y="702" class="st19" width="3.2" height="66"/>
		<rect id="w_2_" x="528.9" y="702" class="st19" width="3.2" height="66"/>
		<rect id="w_1_" x="483.5" y="702" class="st19" width="3.2" height="66"/>
		<rect id="w" x="438" y="702" class="st19" width="3.2" height="66"/>
	</g>
</g>
<g id="taf">
	<path id="XMLID_117_" class="st20" d="M806.6,680h-65.2V499.3H714V680h-80.8v-64.8h15.6V434.1h157.8V680z"/>
</g>
<path id="XMLID_170_" class="st0" d="M1185.9,291.6"/>
<g id="tof2" class="st21">
	<rect id="XMLID_213_" x="431.7" y="352.1" class="st16" width="576.6" height="398.7"/>
	<path id="XMLID_212_" class="st10" d="M1017.5,398H424.4c-7.3,0-13.2-5.9-13.2-13.2V351c0-7.3,5.9-13.2,13.2-13.2h593.2
		c7.3,0,13.2,5.9,13.2,13.2v33.8C1030.7,392.1,1024.8,398,1017.5,398z"/>
	<path id="XMLID_211_" class="st10" d="M1017.7,765.2H424.2c-7.2,0-13-5.8-13-13V718c0-7.2,5.8-13,13-13h593.5c7.2,0,13,5.8,13,13
		v34.1C1030.7,759.3,1024.9,765.2,1017.7,765.2z"/>
	<g id="XMLID_207_">
		<rect id="XMLID_210_" x="421.7" y="326.3" class="st17" width="19.6" height="83.2"/>
		<rect id="XMLID_209_" x="421.7" y="693.4" class="st17" width="19.6" height="83.2"/>
		<line id="XMLID_208_" class="st18" x1="432" y1="693.9" x2="432" y2="397.9"/>
	</g>
	<g id="XMLID_203_">
		<rect id="XMLID_206_" x="467.2" y="326.3" class="st17" width="19.6" height="83.2"/>
		<rect id="XMLID_205_" x="467.2" y="693.4" class="st17" width="19.6" height="83.2"/>
		<line id="XMLID_204_" class="st18" x1="478" y1="693.9" x2="478" y2="397.9"/>
	</g>
	<g id="XMLID_199_">
		<rect id="XMLID_202_" x="512.7" y="326.3" class="st17" width="19.6" height="83.2"/>
		<rect id="XMLID_201_" x="512.7" y="693.4" class="st17" width="19.6" height="83.2"/>
		<line id="XMLID_200_" class="st18" x1="523" y1="693.9" x2="523" y2="397.9"/>
	</g>
	<g id="XMLID_195_">
		<rect id="XMLID_198_" x="558.2" y="326.3" class="st17" width="19.6" height="83.2"/>
		<rect id="XMLID_197_" x="558.2" y="693.4" class="st17" width="19.6" height="83.2"/>
		<line id="XMLID_196_" class="st18" x1="569" y1="693.9" x2="569" y2="397.9"/>
	</g>
	<g id="XMLID_191_">
		<rect id="XMLID_194_" x="603.7" y="326.3" class="st17" width="19.6" height="83.2"/>
		<rect id="XMLID_193_" x="603.7" y="693.4" class="st17" width="19.6" height="83.2"/>
		<line id="XMLID_192_" class="st18" x1="614" y1="693.9" x2="614" y2="397.9"/>
	</g>
	<g id="XMLID_187_">
		<rect id="XMLID_190_" x="818.2" y="326.3" class="st17" width="19.6" height="83.2"/>
		<rect id="XMLID_189_" x="818.2" y="693.4" class="st17" width="19.6" height="83.2"/>
		<line id="XMLID_188_" class="st18" x1="829" y1="693.9" x2="829" y2="397.9"/>
	</g>
	<g id="XMLID_183_">
		<rect id="XMLID_186_" x="863.7" y="326.3" class="st17" width="19.6" height="83.2"/>
		<rect id="XMLID_185_" x="863.7" y="693.4" class="st17" width="19.6" height="83.2"/>
		<line id="XMLID_184_" class="st18" x1="874" y1="693.9" x2="874" y2="397.9"/>
	</g>
	<g id="XMLID_179_">
		<rect id="XMLID_182_" x="909.2" y="326.3" class="st17" width="19.6" height="83.2"/>
		<rect id="XMLID_181_" x="909.2" y="693.4" class="st17" width="19.6" height="83.2"/>
		<line id="XMLID_180_" class="st18" x1="920" y1="693.9" x2="920" y2="397.9"/>
	</g>
	<g id="XMLID_175_">
		<rect id="XMLID_178_" x="954.7" y="326.3" class="st17" width="19.6" height="83.2"/>
		<rect id="XMLID_177_" x="954.7" y="693.4" class="st17" width="19.6" height="83.2"/>
		<line id="XMLID_176_" class="st18" x1="965" y1="693.9" x2="965" y2="397.9"/>
	</g>
	<g id="taf_1_">
		<path id="XMLID_173_" class="st20" d="M806.6,680h-65.2V499.3H714V680h-80.8v-64.8h15.6V434.1h157.8V680z"/>
	</g>
	<g id="XMLID_25_">
		<rect id="XMLID_172_" x="1000.2" y="326.3" class="st17" width="19.6" height="83.2"/>
		<rect id="XMLID_171_" x="1000.2" y="693.4" class="st17" width="19.6" height="83.2"/>
		<line id="XMLID_116_" class="st18" x1="1011" y1="693.9" x2="1011" y2="397.9"/>
	</g>
	<g id="highlights_1_">
		<rect id="w_39_" x="1016.9" y="332" class="st19" width="3.2" height="66"/>
		<rect id="w_38_" x="971.2" y="332" class="st19" width="3.2" height="66"/>
		<rect id="w_37_" x="925.5" y="332" class="st19" width="3.2" height="66"/>
		<rect id="w_36_" x="880.1" y="332" class="st19" width="3.2" height="66"/>
		<rect id="w_35_" x="834.6" y="332" class="st19" width="3.2" height="66"/>
		<rect id="w_34_" x="620.3" y="332" class="st19" width="3.2" height="66"/>
		<rect id="w_33_" x="574.6" y="332" class="st19" width="3.2" height="66"/>
		<rect id="w_32_" x="528.9" y="332" class="st19" width="3.2" height="66"/>
		<rect id="w_31_" x="483.5" y="332" class="st19" width="3.2" height="66"/>
		<rect id="w_30_" x="438" y="332" class="st19" width="3.2" height="66"/>
		<rect id="w_29_" x="1016.9" y="702" class="st19" width="3.2" height="66"/>
		<rect id="w_28_" x="971.2" y="702" class="st19" width="3.2" height="66"/>
		<rect id="w_27_" x="925.5" y="702" class="st19" width="3.2" height="66"/>
		<rect id="w_26_" x="880.1" y="702" class="st19" width="3.2" height="66"/>
		<rect id="w_25_" x="834.6" y="702" class="st19" width="3.2" height="66"/>
		<rect id="w_24_" x="620.3" y="702" class="st19" width="3.2" height="66"/>
		<rect id="w_23_" x="574.6" y="702" class="st19" width="3.2" height="66"/>
		<rect id="w_22_" x="528.9" y="702" class="st19" width="3.2" height="66"/>
		<rect id="w_21_" x="483.5" y="702" class="st19" width="3.2" height="66"/>
		<rect id="w_20_" x="438" y="702" class="st19" width="3.2" height="66"/>
	</g>
</g>
<g id="tof3" class="st21">
	<rect id="XMLID_279_" x="431.7" y="352.1" class="st16" width="576.6" height="398.7"/>
	<path id="XMLID_278_" class="st10" d="M1017.5,398H424.4c-7.3,0-13.2-5.9-13.2-13.2V351c0-7.3,5.9-13.2,13.2-13.2h593.2
		c7.3,0,13.2,5.9,13.2,13.2v33.8C1030.7,392.1,1024.8,398,1017.5,398z"/>
	<path id="XMLID_277_" class="st10" d="M1017.7,765.2H424.2c-7.2,0-13-5.8-13-13V718c0-7.2,5.8-13,13-13h593.5c7.2,0,13,5.8,13,13
		v34.1C1030.7,759.3,1024.9,765.2,1017.7,765.2z"/>
	<g id="XMLID_273_">
		<rect id="XMLID_276_" x="421.7" y="326.3" class="st17" width="19.6" height="83.2"/>
		<rect id="XMLID_275_" x="421.7" y="693.4" class="st17" width="19.6" height="83.2"/>
		<line id="XMLID_274_" class="st18" x1="432" y1="693.9" x2="432" y2="397.9"/>
	</g>
	<g id="XMLID_269_">
		<rect id="XMLID_272_" x="467.2" y="326.3" class="st17" width="19.6" height="83.2"/>
		<rect id="XMLID_271_" x="467.2" y="693.4" class="st17" width="19.6" height="83.2"/>
		<line id="XMLID_270_" class="st18" x1="478" y1="693.9" x2="478" y2="397.9"/>
	</g>
	<g id="XMLID_265_">
		<rect id="XMLID_268_" x="512.7" y="326.3" class="st17" width="19.6" height="83.2"/>
		<rect id="XMLID_267_" x="512.7" y="693.4" class="st17" width="19.6" height="83.2"/>
		<line id="XMLID_266_" class="st18" x1="523" y1="693.9" x2="523" y2="397.9"/>
	</g>
	<g id="XMLID_244_">
		<rect id="XMLID_247_" x="558.2" y="326.3" class="st17" width="19.6" height="83.2"/>
		<rect id="XMLID_246_" x="558.2" y="693.4" class="st17" width="19.6" height="83.2"/>
		<line id="XMLID_245_" class="st18" x1="569" y1="693.9" x2="569" y2="397.9"/>
	</g>
	<g id="XMLID_240_">
		<rect id="XMLID_243_" x="603.7" y="326.3" class="st17" width="19.6" height="83.2"/>
		<rect id="XMLID_242_" x="603.7" y="693.4" class="st17" width="19.6" height="83.2"/>
		<line id="XMLID_241_" class="st18" x1="614" y1="693.9" x2="614" y2="397.9"/>
	</g>
	<g id="XMLID_236_">
		<rect id="XMLID_239_" x="818.2" y="326.3" class="st17" width="19.6" height="83.2"/>
		<rect id="XMLID_238_" x="818.2" y="693.4" class="st17" width="19.6" height="83.2"/>
		<line id="XMLID_237_" class="st18" x1="829" y1="693.9" x2="829" y2="397.9"/>
	</g>
	<g id="XMLID_232_">
		<rect id="XMLID_235_" x="863.7" y="326.3" class="st17" width="19.6" height="83.2"/>
		<rect id="XMLID_234_" x="863.7" y="693.4" class="st17" width="19.6" height="83.2"/>
		<line id="XMLID_233_" class="st18" x1="874" y1="693.9" x2="874" y2="397.9"/>
	</g>
	<g id="XMLID_225_">
		<rect id="XMLID_231_" x="909.2" y="326.3" class="st17" width="19.6" height="83.2"/>
		<rect id="XMLID_227_" x="909.2" y="693.4" class="st17" width="19.6" height="83.2"/>
		<line id="XMLID_226_" class="st18" x1="920" y1="693.9" x2="920" y2="397.9"/>
	</g>
	<g id="XMLID_220_">
		<rect id="XMLID_223_" x="954.7" y="326.3" class="st17" width="19.6" height="83.2"/>
		<rect id="XMLID_222_" x="954.7" y="693.4" class="st17" width="19.6" height="83.2"/>
		<line id="XMLID_221_" class="st18" x1="965" y1="693.9" x2="965" y2="397.9"/>
	</g>
	<g id="taf_2_">
		<path id="XMLID_218_" class="st20" d="M806.6,680h-65.2V499.3H714V680h-80.8v-64.8h15.6V434.1h157.8V680z"/>
	</g>
	<g id="XMLID_214_">
		<rect id="XMLID_217_" x="1000.2" y="326.3" class="st17" width="19.6" height="83.2"/>
		<rect id="XMLID_216_" x="1000.2" y="693.4" class="st17" width="19.6" height="83.2"/>
		<line id="XMLID_215_" class="st18" x1="1011" y1="693.9" x2="1011" y2="397.9"/>
	</g>
	<g id="highlights_2_">
		<rect id="w_59_" x="1016.9" y="332" class="st19" width="3.2" height="66"/>
		<rect id="w_58_" x="971.2" y="332" class="st19" width="3.2" height="66"/>
		<rect id="w_57_" x="925.5" y="332" class="st19" width="3.2" height="66"/>
		<rect id="w_56_" x="880.1" y="332" class="st19" width="3.2" height="66"/>
		<rect id="w_55_" x="834.6" y="332" class="st19" width="3.2" height="66"/>
		<rect id="w_54_" x="620.3" y="332" class="st19" width="3.2" height="66"/>
		<rect id="w_53_" x="574.6" y="332" class="st19" width="3.2" height="66"/>
		<rect id="w_52_" x="528.9" y="332" class="st19" width="3.2" height="66"/>
		<rect id="w_51_" x="483.5" y="332" class="st19" width="3.2" height="66"/>
		<rect id="w_50_" x="438" y="332" class="st19" width="3.2" height="66"/>
		<rect id="w_49_" x="1016.9" y="702" class="st19" width="3.2" height="66"/>
		<rect id="w_48_" x="971.2" y="702" class="st19" width="3.2" height="66"/>
		<rect id="w_47_" x="925.5" y="702" class="st19" width="3.2" height="66"/>
		<rect id="w_46_" x="880.1" y="702" class="st19" width="3.2" height="66"/>
		<rect id="w_45_" x="834.6" y="702" class="st19" width="3.2" height="66"/>
		<rect id="w_44_" x="620.3" y="702" class="st19" width="3.2" height="66"/>
		<rect id="w_43_" x="574.6" y="702" class="st19" width="3.2" height="66"/>
		<rect id="w_42_" x="528.9" y="702" class="st19" width="3.2" height="66"/>
		<rect id="w_41_" x="483.5" y="702" class="st19" width="3.2" height="66"/>
		<rect id="w_40_" x="438" y="702" class="st19" width="3.2" height="66"/>
	</g>
</g>
<circle id="XMLID_281_" class="st8" cx="309.2" cy="433.8" r="11.9"/>
<path id="XMLID_58_" class="st19" d="M303.6,423.3c2.7-0.4,23.5-2.6,15.2,17.5C318.8,440.8,315.3,425.4,303.6,423.3z"/>
<path id="XMLID_27_" class="st19" d="M1109.6,431.3c2.7-0.4,23.5-2.6,15.2,17.5C1124.8,448.8,1121.3,433.4,1109.6,431.3z"/>
<g id="taf1" class="st22">
	<path id="XMLID_76_" class="st20" d="M807.4,680h-65.2V499.3h-27.5V680h-65.3v-64.8h0.2V434.1h157.8V680z"/>
</g>
<g id="taf2" class="st23">
	<path id="XMLID_95_" class="st20" d="M807.4,680.7h-65.2V499.9h-27.5v180.8h-65.3V616h0.2V434.8h157.8V680.7z"/>
</g>
</svg>
