<?xml version="1.0" encoding="utf-8"?>
<!-- Generator: Adobe Illustrator 21.0.2, SVG Export Plug-In . SVG Version: 6.00 Build 0)  -->
<svg version="1.1" id="hand" xmlns:svg="http://www.w3.org/2000/svg"
	 xmlns="http://www.w3.org/2000/svg" xmlns:xlink="http://www.w3.org/1999/xlink" x="0px" y="0px" viewBox="0 0 75 165"
	 style="enable-background:new 0 0 75 165;" xml:space="preserve">
<style type="text/css">
	.st0{fill:#FFFFFF;}
	.st1{fill:#FF0000;}
	.st2{fill:#FC0000;}
</style>
<polygon id="fill" class="st0" points="45,44.8 40,44.8 40,40 20,40 20,44.8 15,44.8 15,65 20,65 20,71.2 40,71.2 40,65 45,65 "/>
<g id="circle">
	<rect x="10" y="45" class="st1" width="5" height="20"/>
	<rect x="45" y="45" class="st1" width="5" height="20"/>
	<rect x="15" y="65" class="st1" width="5" height="5"/>
	<rect x="40" y="65" class="st1" width="5" height="5"/>
	<rect x="15" y="40" transform="matrix(6.123234e-17 -1 1 6.123234e-17 -24.9992 60)" class="st1" width="5" height="5"/>
	<rect x="40" y="40" transform="matrix(6.123234e-17 -1 1 6.123234e-17 7.696021e-04 85)" class="st1" width="5" height="5"/>
	<rect x="27.5" y="27.5" transform="matrix(6.123234e-17 -1 1 6.123234e-17 -7.4992 67.5)" class="st1" width="5" height="20"/>
	<rect x="27.5" y="62.5" transform="matrix(6.123234e-17 -1 1 6.123234e-17 -42.4992 102.5)" class="st1" width="5" height="20"/>
</g>
<g id="hand_1_">
	<polygon class="st2" points="0,85 5,85 5,80 15,80 15,85 20,85 20,55 25,55 25,50 35,50 35,55 40,55 40,70 60,70 60,75 70,75 
		70,80 75,80 75,105 70,105 70,115 65,115 65,130 55,130 55,125 50,125 50,130 25,130 25,120 20,120 20,115 15,115 15,110 10,110 
		10,100 5,100 5,95 0,95 	"/>
	<polygon class="st0" points="5,85 15,85 15,90 20,90 20,95 25,95 25,55 35,55 35,85 40,85 40,75 50,75 50,85 55,85 55,75 60,75 
		60,85 65,85 65,80 70,80 70,105 65,105 65,115 60,115 60,125 55,125 55,120 50,120 50,125 30,125 30,120 25,120 25,115 20,115 
		20,110 15,110 15,100 10,100 10,95 5,95 	"/>
	<rect x="35" y="95" class="st2" width="5" height="20"/>
	<rect x="45" y="95" class="st2" width="5" height="20"/>
	<rect x="55" y="95" class="st2" width="5" height="20"/>
</g>
<g id="arrow">
	<rect x="28" class="st1" width="5" height="25"/>
	<rect x="33" y="5" class="st1" width="5" height="5"/>
	<rect x="23" y="5" class="st1" width="5" height="5"/>
	<rect x="38" y="10" class="st1" width="5" height="5"/>
	<rect x="18" y="10" class="st1" width="5" height="5"/>
</g>
<g id="arrow_1_">
	<rect x="28" y="140" transform="matrix(-1 -1.224647e-16 1.224647e-16 -1 61.0007 305)" class="st1" width="5" height="25"/>
	<rect x="23" y="155" transform="matrix(-1 -1.224647e-16 1.224647e-16 -1 51.0007 315)" class="st1" width="5" height="5"/>
	<rect x="33" y="155" transform="matrix(-1 -1.224647e-16 1.224647e-16 -1 71.0007 315)" class="st1" width="5" height="5"/>
	<rect x="18" y="150" transform="matrix(-1 -1.224647e-16 1.224647e-16 -1 41.0007 305)" class="st1" width="5" height="5"/>
	<rect x="38" y="150" transform="matrix(-1 -1.224647e-16 1.224647e-16 -1 81.0007 305)" class="st1" width="5" height="5"/>
</g>
</svg>
