<?xml version="1.0" encoding="utf-8"?>
<!-- Generator: Adobe Illustrator 21.0.2, SVG Export Plug-In . SVG Version: 6.00 Build 0)  -->
<svg version="1.1" id="hand" xmlns:svg="http://www.w3.org/2000/svg"
	 xmlns="http://www.w3.org/2000/svg" xmlns:xlink="http://www.w3.org/1999/xlink" x="0px" y="0px" viewBox="0 0 75 185"
	 style="enable-background:new 0 0 75 185;" xml:space="preserve">
<style type="text/css">
	.st0{fill:#FFFFFF;}
	.st1{fill:#FF0000;}
	.st2{fill:#FC0000;}
</style>
<polygon id="fill" class="st0" points="45,54.8 40,54.8 40,50 20,50 20,54.8 15,54.8 15,75 20,75 20,81.2 40,81.2 40,75 45,75 "/>
<g id="circle">
	<rect x="10" y="55" class="st1" width="5" height="20"/>
	<rect x="45" y="55" class="st1" width="5" height="20"/>
	<rect x="15" y="75" class="st1" width="5" height="5"/>
	<rect x="40" y="75" class="st1" width="5" height="5"/>
	<rect x="15" y="50" class="st1" width="5" height="5"/>
	<rect x="40" y="50" class="st1" width="5" height="5"/>
	<rect x="20" y="45" class="st1" width="20" height="5"/>
	<rect x="20" y="80" class="st1" width="20" height="5"/>
</g>
<g id="hand_1_">
	<polygon class="st2" points="0,95 5,95 5,90 15,90 15,95 20,95 20,65 25,65 25,60 35,60 35,65 40,65 40,80 60,80 60,85 70,85 
		70,90 75,90 75,115 70,115 70,125 65,125 65,140 55,140 55,135 50,135 50,140 25,140 25,130 20,130 20,125 15,125 15,120 10,120 
		10,110 5,110 5,105 0,105 	"/>
	<polygon class="st0" points="5,95 15,95 15,100 20,100 20,105 25,105 25,65 35,65 35,95 40,95 40,85 50,85 50,95 55,95 55,85 
		60,85 60,95 65,95 65,90 70,90 70,115 65,115 65,125 60,125 60,135 55,135 55,130 50,130 50,135 30,135 30,130 25,130 25,125 
		20,125 20,120 15,120 15,110 10,110 10,105 5,105 	"/>
	<rect x="35" y="105" class="st2" width="5" height="20"/>
	<rect x="45" y="105" class="st2" width="5" height="20"/>
	<rect x="55" y="105" class="st2" width="5" height="20"/>
</g>
<g id="arrow">
	<rect x="28" class="st1" width="5" height="25"/>
	<rect x="33" y="5" class="st1" width="5" height="5"/>
	<rect x="23" y="5" class="st1" width="5" height="5"/>
	<rect x="38" y="10" class="st1" width="5" height="5"/>
	<rect x="18" y="10" class="st1" width="5" height="5"/>
</g>
<g id="arrow_1_">
	<rect x="28" y="160" class="st1" width="5" height="25"/>
	<rect x="23" y="175" class="st1" width="5" height="5"/>
	<rect x="33" y="175" class="st1" width="5" height="5"/>
	<rect x="18" y="170" class="st1" width="5" height="5"/>
	<rect x="38" y="170" class="st1" width="5" height="5"/>
</g>
</svg>
