<?xml version="1.0" encoding="utf-8"?>
<!-- Generator: Adobe Illustrator 17.0.0, SVG Export Plug-In . SVG Version: 6.00 Build 0)  -->
<!DOCTYPE svg PUBLIC "-//W3C//DTD SVG 1.1//EN" "http://www.w3.org/Graphics/SVG/1.1/DTD/svg11.dtd">
<svg version="1.1" xmlns="http://www.w3.org/2000/svg" xmlns:xlink="http://www.w3.org/1999/xlink" x="0px" y="0px" width="1920px"
	 height="1080px" viewBox="7 -17 1920 1080" enable-background="new 7 -17 1920 1080" xml:space="preserve">
<g id="Layer_1">
	<g id="Layer1">
		<g id="window">
			<path id="windowwhite" fill="#FFFFFF" d="M1211.352,268.686H721.659c-133.003,0-123.933,145.098-123.933,241.828
				c0,51.387,3.026,102.774,12.088,151.135c21.159,129.984,60.457,142.073,184.397,142.073h350.639
				c208.574,0,190.441-205.548,190.441-356.69C1335.292,353.327,1326.222,268.686,1211.352,268.686z"/>
			<path id="windowyellow" opacity="0.4" fill="#CA9E67" enable-background="new    " d="M1210.872,270.921H721.179
				c-133.003,0-123.933,145.098-123.933,241.828c0,51.387,3.026,102.774,12.088,151.135
				c21.159,129.984,60.457,142.073,184.397,142.073h350.639c208.574,0,190.441-205.548,190.441-356.691
				C1334.812,355.563,1325.742,270.921,1210.872,270.921z"/>
			<g id="flower1">
				<path fill="#CA9E67" d="M1103.532,568.014c0,10.111-5.044,18.308-11.267,18.308s-11.267-8.197-11.267-18.308
					c0-10.111,11.267-18.308,11.267-18.308S1103.532,557.903,1103.532,568.014z"/>
				<path fill="#CA9E67" d="M1113.178,554.685c7.15,7.15,9.379,16.513,4.979,20.913s-13.763,2.171-20.913-4.979
					s-4.979-20.913-4.979-20.913S1106.028,547.535,1113.178,554.685z"/>
				<path fill="#CA9E67" d="M1110.574,538.439c10.111,0,18.308,5.044,18.308,11.267s-8.197,11.267-18.308,11.267
					s-18.308-11.267-18.308-11.267S1100.462,538.439,1110.574,538.439z"/>
				<path fill="#CA9E67" d="M1097.245,528.793c7.15-7.15,16.513-9.379,20.913-4.979s2.171,13.763-4.979,20.913
					s-20.913,4.979-20.913,4.979S1090.095,535.943,1097.245,528.793z"/>
				<path fill="#CA9E67" d="M1080.999,531.397c0-10.111,5.044-18.308,11.267-18.308s11.267,8.197,11.267,18.308
					c0,10.111-11.267,18.308-11.267,18.308S1080.999,541.509,1080.999,531.397z"/>
				<path fill="#CA9E67" d="M1071.353,544.727c-7.15-7.15-9.379-16.513-4.979-20.913s13.763-2.171,20.913,4.979
					s4.979,20.913,4.979,20.913S1078.503,551.876,1071.353,544.727z"/>
				<path fill="#CA9E67" d="M1073.957,560.972c-10.111,0-18.308-5.044-18.308-11.267s8.197-11.267,18.308-11.267
					s18.308,11.267,18.308,11.267S1084.068,560.972,1073.957,560.972z"/>
				<path fill="#CA9E67" d="M1087.286,570.618c-7.15,7.15-16.513,9.379-20.913,4.979s-2.171-13.763,4.979-20.913
					s20.913-4.979,20.913-4.979S1094.436,563.469,1087.286,570.618z"/>
			</g>
			<path id="flower2" fill="none" stroke="#CA9E67" stroke-width="6" stroke-miterlimit="10" d="M1092.265,549.706
				c0,0,110.901-73.268,88.392,117.016"/>
			<g id="vase">
				<polygon fill="#CA9E67" points="1197.75,750.185 1146.136,750.185 1112.043,632.877 1229.351,632.877 				"/>
				<polygon fill="#CA9E67" points="1229.829,671.545 1115.133,671.545 1099.194,632.877 1242.199,632.877 				"/>
			</g>
			<rect id="shelf" x="625.49" y="452.752" fill="#CA9E67" width="205.583" height="17.998"/>
			<rect id="book1" x="670.466" y="396.634" fill="#CA9E67" width="17.998" height="68.3"/>
			<rect id="book2" x="688.011" y="382.919" fill="#CA9E67" width="17.998" height="82.015"/>
			
				<rect id="book3" x="694.414" y="422.537" transform="matrix(-0.4221 -0.9065 0.9065 -0.4221 639.8422 1270.9421)" fill="#CA9E67" width="61.186" height="17.996"/>
		</g>
		<g id="shelf">
			<path id="shelf" fill="#CA9E67" d="M794.473,808.419h350.639c78.792,0,125.226-29.338,152.512-73.991H626.737
				C651.849,800.921,696.963,808.419,794.473,808.419z"/>
		</g>
		<g id="bigshade">
			<g id="pinguin">
				<path id="leftleg" fill="#EE9828" d="M915.069,535.443c6.32,2.984,17.77-2.957,25.575-13.269s9.009-21.091,2.689-24.075
					c-6.32-2.984-17.77,2.957-25.575,13.269C909.954,521.68,908.75,532.459,915.069,535.443z"/>
				<path id="rightleg" fill="#EE9828" d="M1023.619,535.443c-6.32,2.984-17.77-2.957-25.575-13.269s-9.009-21.091-2.689-24.075
					c6.32-2.984,17.77,2.957,25.575,13.269C1028.735,521.68,1029.939,532.459,1023.619,535.443z"/>
				
					<ellipse id="leftarm" transform="matrix(0.2386 -0.9711 0.9711 0.2386 356.7229 1185.3894)" cx="934.31" cy="365.205" rx="55.092" ry="11.717"/>
				
					<ellipse id="rightarm" transform="matrix(-0.2386 -0.9711 0.9711 -0.2386 886.9968 1425.8281)" cx="1002.453" cy="365.193" rx="55.092" ry="11.717"/>
				<ellipse id="headblack" cx="968.233" cy="389.006" rx="45.934" ry="48.263"/>
				<path id="bodyblack" d="M1031.667,476.762c0,54.794-126.867,54.794-126.867,0s28.4-99.213,63.434-99.213
					C1003.267,377.549,1031.667,421.968,1031.667,476.762z"/>
				<path id="bodywhite" fill="#FFFFFF" d="M1027.888,480.28c0,46.666-119.309,46.666-119.309,0s26.708-84.495,59.654-84.495
					C1001.18,395.785,1027.888,433.614,1027.888,480.28z"/>
				<ellipse id="righteyewhite" fill="#FFFFFF" cx="986.794" cy="382.042" rx="15.698" ry="21.357"/>
				<ellipse id="lefteyewhite" fill="#FFFFFF" cx="950.115" cy="382.042" rx="15.818" ry="21.357"/>
				<ellipse id="nose" fill="#EE9828" cx="968.233" cy="395.785" rx="10.921" ry="5.995"/>
				<ellipse id="righteyeblack" cx="986.451" cy="383.099" rx="4.852" ry="7.94"/>
				<circle id="righteyeshine" fill="#FFFFFF" cx="983.318" cy="383.321" r="2.291"/>
				<ellipse id="lefteyeblack" cx="951.354" cy="383.099" rx="4.852" ry="7.94"/>
				<circle id="lefteyeshine" fill="#FFFFFF" cx="954.486" cy="383.321" r="2.291"/>
				<path id="tie" d="M952.463,409.724c-5.643,1.789-6.082,17.023,0,17.755c9.006,1.083,18.582-20.403,26.939-17.755
					c5.643,1.789,6.082,17.023,0,17.755C970.396,428.562,960.82,407.075,952.463,409.724z"/>
			</g>
			<rect id="shade" x="332.437" y="-277.743" fill="#931B33" width="1269.127" height="591.059"/>
			<ellipse id="handle" fill="#CA9E67" cx="968.233" cy="311.316" rx="50.393" ry="13.71"/>
		</g>
		<g id="backrond">
			<g id="backround">
				<g>
					<g>
						<defs>
							<path id="cliping" d="M6.833-16.5L7.5,1063H1927V-16.5H6.833z M1144.141,805.957H793.502
								c-123.94,0-163.238-12.088-184.397-142.073c-9.063-48.361-12.088-99.748-12.088-151.135
								c0-96.73-9.07-241.828,123.933-241.828h489.693c114.87,0,123.94,84.641,123.94,178.345
								C1334.582,600.409,1352.714,805.957,1144.141,805.957z"/>
						</defs>
						<clipPath id="cliping">
							<use xlink:href="#cliping"  overflow="visible"/>
						</clipPath>
						<g clip-path="url(#cliping)">
							<polygon id="backround" fill="#931B33" points="-366.453,-226.977 2307.453,-226.977 2307.453,1276.448 -366.453,1271.632 
															"/>
							<g id="briks" opacity="0.6">
								<rect x="-24.797" y="985.967" opacity="0.3" fill="#FFFFFF" width="141.104" height="82.5"/>
								<rect x="135.203" y="985.967" opacity="0.3" fill="#FFFFFF" width="141.104" height="82.5"/>
								<rect x="295.203" y="985.967" opacity="0.3" fill="#FFFFFF" width="141.104" height="82.5"/>
								<rect x="455.203" y="985.967" opacity="0.3" fill="#FFFFFF" width="141.104" height="82.5"/>
								<rect x="615.203" y="985.967" opacity="0.3" fill="#FFFFFF" width="141.104" height="82.5"/>
								<rect x="775.203" y="985.967" opacity="0.3" fill="#FFFFFF" width="141.104" height="82.5"/>
								<rect x="935.203" y="985.967" opacity="0.3" fill="#FFFFFF" width="141.104" height="82.5"/>
								<rect x="1095.203" y="985.967" opacity="0.3" fill="#FFFFFF" width="141.104" height="82.5"/>
								<rect x="1255.203" y="985.967" opacity="0.3" fill="#FFFFFF" width="141.104" height="82.5"/>
								<rect x="1415.203" y="985.967" opacity="0.3" fill="#FFFFFF" width="141.104" height="82.5"/>
								<rect x="1575.203" y="985.967" opacity="0.3" fill="#FFFFFF" width="141.104" height="82.5"/>
								<rect x="1735.203" y="985.967" opacity="0.3" fill="#FFFFFF" width="141.104" height="82.5"/>
								<rect x="1895.203" y="985.967" opacity="0.3" fill="#FFFFFF" width="141.104" height="82.5"/>
								<rect x="-101.351" y="885.471" opacity="0.3" fill="#FFFFFF" width="141.104" height="82.5"/>
								<rect x="58.649" y="885.471" opacity="0.3" fill="#FFFFFF" width="141.104" height="82.5"/>
								<rect x="218.649" y="885.471" opacity="0.3" fill="#FFFFFF" width="141.104" height="82.5"/>
								<rect x="378.649" y="885.471" opacity="0.3" fill="#FFFFFF" width="141.104" height="82.5"/>
								<rect x="538.649" y="885.471" opacity="0.3" fill="#FFFFFF" width="141.104" height="82.5"/>
								<rect x="698.649" y="885.471" opacity="0.3" fill="#FFFFFF" width="141.104" height="82.5"/>
								<rect x="858.649" y="885.471" opacity="0.3" fill="#FFFFFF" width="141.104" height="82.5"/>
								<rect x="1018.649" y="885.471" opacity="0.3" fill="#FFFFFF" width="141.104" height="82.5"/>
								<rect x="1178.649" y="885.471" opacity="0.3" fill="#FFFFFF" width="141.104" height="82.5"/>
								<rect x="1338.649" y="885.471" opacity="0.3" fill="#FFFFFF" width="141.104" height="82.5"/>
								<rect x="1498.649" y="885.471" opacity="0.3" fill="#FFFFFF" width="141.104" height="82.5"/>
								<rect x="1658.649" y="885.471" opacity="0.3" fill="#FFFFFF" width="141.104" height="82.5"/>
								<rect x="1818.649" y="885.471" opacity="0.3" fill="#FFFFFF" width="141.104" height="82.5"/>
								<rect x="-24.797" y="1189.967" opacity="0.3" fill="#FFFFFF" width="141.104" height="82.5"/>
								<rect x="135.203" y="1189.967" opacity="0.3" fill="#FFFFFF" width="141.104" height="82.5"/>
								<rect x="295.203" y="1189.967" opacity="0.3" fill="#FFFFFF" width="141.104" height="82.5"/>
								<rect x="455.203" y="1189.967" opacity="0.3" fill="#FFFFFF" width="141.104" height="82.5"/>
								<rect x="615.203" y="1189.967" opacity="0.3" fill="#FFFFFF" width="141.104" height="82.5"/>
								<rect x="775.203" y="1189.967" opacity="0.3" fill="#FFFFFF" width="141.104" height="82.5"/>
								<rect x="935.203" y="1189.967" opacity="0.3" fill="#FFFFFF" width="141.104" height="82.5"/>
								<rect x="1095.203" y="1189.967" opacity="0.3" fill="#FFFFFF" width="141.104" height="82.5"/>
								<rect x="1255.203" y="1189.967" opacity="0.3" fill="#FFFFFF" width="141.104" height="82.5"/>
								<rect x="1415.203" y="1189.967" opacity="0.3" fill="#FFFFFF" width="141.104" height="82.5"/>
								<rect x="1575.203" y="1189.967" opacity="0.3" fill="#FFFFFF" width="141.104" height="82.5"/>
								<rect x="1735.203" y="1189.967" opacity="0.3" fill="#FFFFFF" width="141.104" height="82.5"/>
								<rect x="1895.203" y="1189.967" opacity="0.3" fill="#FFFFFF" width="141.104" height="82.5"/>
								<rect x="-101.351" y="1089.471" opacity="0.3" fill="#FFFFFF" width="141.104" height="82.5"/>
								<rect x="58.649" y="1089.471" opacity="0.3" fill="#FFFFFF" width="141.104" height="82.5"/>
								<rect x="218.649" y="1089.471" opacity="0.3" fill="#FFFFFF" width="141.104" height="82.5"/>
								<rect x="378.649" y="1089.471" opacity="0.3" fill="#FFFFFF" width="141.104" height="82.5"/>
								<rect x="538.649" y="1089.471" opacity="0.3" fill="#FFFFFF" width="141.104" height="82.5"/>
								<rect x="698.649" y="1089.471" opacity="0.3" fill="#FFFFFF" width="141.104" height="82.5"/>
								<rect x="858.649" y="1089.471" opacity="0.3" fill="#FFFFFF" width="141.104" height="82.5"/>
								<rect x="1018.649" y="1089.471" opacity="0.3" fill="#FFFFFF" width="141.104" height="82.5"/>
								<rect x="1178.649" y="1089.471" opacity="0.3" fill="#FFFFFF" width="141.104" height="82.5"/>
								<rect x="1338.649" y="1089.471" opacity="0.3" fill="#FFFFFF" width="141.104" height="82.5"/>
								<rect x="1498.649" y="1089.471" opacity="0.3" fill="#FFFFFF" width="141.104" height="82.5"/>
								<rect x="1658.649" y="1089.471" opacity="0.3" fill="#FFFFFF" width="141.104" height="82.5"/>
								<rect x="1818.649" y="1089.471" opacity="0.3" fill="#FFFFFF" width="141.104" height="82.5"/>
								<rect x="-24.797" y="781.65" opacity="0.3" fill="#FFFFFF" width="141.104" height="82.5"/>
								<rect x="135.203" y="781.65" opacity="0.3" fill="#FFFFFF" width="141.104" height="82.5"/>
								<rect x="295.203" y="781.65" opacity="0.3" fill="#FFFFFF" width="141.104" height="82.5"/>
								<rect x="455.203" y="781.65" opacity="0.3" fill="#FFFFFF" width="141.104" height="82.5"/>
								<rect x="615.203" y="781.65" opacity="0.3" fill="#FFFFFF" width="141.104" height="82.5"/>
								<rect x="775.203" y="781.65" opacity="0.3" fill="#FFFFFF" width="141.104" height="82.5"/>
								<rect x="935.203" y="781.65" opacity="0.3" fill="#FFFFFF" width="141.104" height="82.5"/>
								<rect x="1095.203" y="781.65" opacity="0.3" fill="#FFFFFF" width="141.104" height="82.5"/>
								<rect x="1255.203" y="781.65" opacity="0.3" fill="#FFFFFF" width="141.104" height="82.5"/>
								<rect x="1415.203" y="781.65" opacity="0.3" fill="#FFFFFF" width="141.104" height="82.5"/>
								<rect x="1575.203" y="781.65" opacity="0.3" fill="#FFFFFF" width="141.104" height="82.5"/>
								<rect x="1735.203" y="781.65" opacity="0.3" fill="#FFFFFF" width="141.104" height="82.5"/>
								<rect x="1895.203" y="781.65" opacity="0.3" fill="#FFFFFF" width="141.104" height="82.5"/>
								<rect x="-101.351" y="681.154" opacity="0.3" fill="#FFFFFF" width="141.104" height="82.5"/>
								<rect x="58.649" y="681.154" opacity="0.3" fill="#FFFFFF" width="141.104" height="82.5"/>
								<rect x="218.649" y="681.154" opacity="0.3" fill="#FFFFFF" width="141.104" height="82.5"/>
								<rect x="378.649" y="681.154" opacity="0.3" fill="#FFFFFF" width="141.104" height="82.5"/>
								<rect x="538.649" y="681.154" opacity="0.3" fill="#FFFFFF" width="141.104" height="82.5"/>
								<rect x="698.649" y="681.154" opacity="0.3" fill="#FFFFFF" width="141.104" height="82.5"/>
								<rect x="858.649" y="681.154" opacity="0.3" fill="#FFFFFF" width="141.104" height="82.5"/>
								<rect x="1018.649" y="681.154" opacity="0.3" fill="#FFFFFF" width="141.104" height="82.5"/>
								<rect x="1178.649" y="681.154" opacity="0.3" fill="#FFFFFF" width="141.104" height="82.5"/>
								<rect x="1338.649" y="681.154" opacity="0.3" fill="#FFFFFF" width="141.104" height="82.5"/>
								<rect x="1498.649" y="681.154" opacity="0.3" fill="#FFFFFF" width="141.104" height="82.5"/>
								<rect x="1658.649" y="681.154" opacity="0.3" fill="#FFFFFF" width="141.104" height="82.5"/>
								<rect x="1818.649" y="681.154" opacity="0.3" fill="#FFFFFF" width="141.104" height="82.5"/>
								<rect x="-24.797" y="577.333" opacity="0.3" fill="#FFFFFF" width="141.104" height="82.5"/>
								<rect x="135.203" y="577.333" opacity="0.3" fill="#FFFFFF" width="141.104" height="82.5"/>
								<rect x="295.203" y="577.333" opacity="0.3" fill="#FFFFFF" width="141.104" height="82.5"/>
								<rect x="455.203" y="577.333" opacity="0.3" fill="#FFFFFF" width="141.104" height="82.5"/>
								<rect x="615.203" y="577.333" opacity="0.3" fill="#FFFFFF" width="141.104" height="82.5"/>
								<rect x="775.203" y="577.333" opacity="0.3" fill="#FFFFFF" width="141.104" height="82.5"/>
								<rect x="935.203" y="577.333" opacity="0.3" fill="#FFFFFF" width="141.104" height="82.5"/>
								<rect x="1095.203" y="577.333" opacity="0.3" fill="#FFFFFF" width="141.104" height="82.5"/>
								<rect x="1255.203" y="577.333" opacity="0.3" fill="#FFFFFF" width="141.104" height="82.5"/>
								<rect x="1415.203" y="577.333" opacity="0.3" fill="#FFFFFF" width="141.104" height="82.5"/>
								<rect x="1575.203" y="577.333" opacity="0.3" fill="#FFFFFF" width="141.104" height="82.5"/>
								<rect x="1735.203" y="577.333" opacity="0.3" fill="#FFFFFF" width="141.104" height="82.5"/>
								<rect x="1895.203" y="577.333" opacity="0.3" fill="#FFFFFF" width="141.104" height="82.5"/>
								<rect x="-101.351" y="476.837" opacity="0.3" fill="#FFFFFF" width="141.104" height="82.5"/>
								<rect x="58.649" y="476.837" opacity="0.3" fill="#FFFFFF" width="141.104" height="82.5"/>
								<rect x="218.649" y="476.837" opacity="0.3" fill="#FFFFFF" width="141.104" height="82.5"/>
								<rect x="378.649" y="476.837" opacity="0.3" fill="#FFFFFF" width="141.104" height="82.5"/>
								<rect x="538.649" y="476.837" opacity="0.3" fill="#FFFFFF" width="141.104" height="82.5"/>
								<rect x="698.649" y="476.837" opacity="0.3" fill="#FFFFFF" width="141.104" height="82.5"/>
								<rect x="858.649" y="476.837" opacity="0.3" fill="#FFFFFF" width="141.104" height="82.5"/>
								<rect x="1018.649" y="476.837" opacity="0.3" fill="#FFFFFF" width="141.104" height="82.5"/>
								<rect x="1178.649" y="476.837" opacity="0.3" fill="#FFFFFF" width="141.104" height="82.5"/>
								<rect x="1338.649" y="476.837" opacity="0.3" fill="#FFFFFF" width="141.104" height="82.5"/>
								<rect x="1498.649" y="476.837" opacity="0.3" fill="#FFFFFF" width="141.104" height="82.5"/>
								<rect x="1658.649" y="476.837" opacity="0.3" fill="#FFFFFF" width="141.104" height="82.5"/>
								<rect x="1818.649" y="476.837" opacity="0.3" fill="#FFFFFF" width="141.104" height="82.5"/>
								<rect x="-24.797" y="373.016" opacity="0.3" fill="#FFFFFF" width="141.104" height="82.5"/>
								<rect x="135.203" y="373.016" opacity="0.3" fill="#FFFFFF" width="141.104" height="82.5"/>
								<rect x="295.203" y="373.016" opacity="0.3" fill="#FFFFFF" width="141.104" height="82.5"/>
								<rect x="455.203" y="373.016" opacity="0.3" fill="#FFFFFF" width="141.104" height="82.5"/>
								<rect x="615.203" y="373.016" opacity="0.3" fill="#FFFFFF" width="141.104" height="82.5"/>
								<rect x="775.203" y="373.016" opacity="0.3" fill="#FFFFFF" width="141.104" height="82.5"/>
								<rect x="935.203" y="373.016" opacity="0.3" fill="#FFFFFF" width="141.104" height="82.5"/>
								<rect x="1095.203" y="373.016" opacity="0.3" fill="#FFFFFF" width="141.104" height="82.5"/>
								<rect x="1255.203" y="373.016" opacity="0.3" fill="#FFFFFF" width="141.104" height="82.5"/>
								<rect x="1415.203" y="373.016" opacity="0.3" fill="#FFFFFF" width="141.104" height="82.5"/>
								<rect x="1575.203" y="373.016" opacity="0.3" fill="#FFFFFF" width="141.104" height="82.5"/>
								<rect x="1735.203" y="373.016" opacity="0.3" fill="#FFFFFF" width="141.104" height="82.5"/>
								<rect x="1895.203" y="373.016" opacity="0.3" fill="#FFFFFF" width="141.104" height="82.5"/>
								<rect x="-101.351" y="272.52" opacity="0.3" fill="#FFFFFF" width="141.104" height="82.5"/>
								<rect x="58.649" y="272.52" opacity="0.3" fill="#FFFFFF" width="141.104" height="82.5"/>
								<rect x="218.649" y="272.52" opacity="0.3" fill="#FFFFFF" width="141.104" height="82.5"/>
								<rect x="378.649" y="272.52" opacity="0.3" fill="#FFFFFF" width="141.104" height="82.5"/>
								<rect x="538.649" y="272.52" opacity="0.3" fill="#FFFFFF" width="141.104" height="82.5"/>
								<rect x="698.649" y="272.52" opacity="0.3" fill="#FFFFFF" width="141.104" height="82.5"/>
								<rect x="858.649" y="272.52" opacity="0.3" fill="#FFFFFF" width="141.104" height="82.5"/>
								<rect x="1018.649" y="272.52" opacity="0.3" fill="#FFFFFF" width="141.104" height="82.5"/>
								<rect x="1178.649" y="272.52" opacity="0.3" fill="#FFFFFF" width="141.104" height="82.5"/>
								<rect x="1338.649" y="272.52" opacity="0.3" fill="#FFFFFF" width="141.104" height="82.5"/>
								<rect x="1498.649" y="272.52" opacity="0.3" fill="#FFFFFF" width="141.104" height="82.5"/>
								<rect x="1658.649" y="272.52" opacity="0.3" fill="#FFFFFF" width="141.104" height="82.5"/>
								<rect x="1818.649" y="272.52" opacity="0.3" fill="#FFFFFF" width="141.104" height="82.5"/>
								<rect x="-24.797" y="168.699" opacity="0.3" fill="#FFFFFF" width="141.104" height="82.5"/>
								<rect x="135.203" y="168.699" opacity="0.3" fill="#FFFFFF" width="141.104" height="82.5"/>
								<rect x="295.203" y="168.699" opacity="0.3" fill="#FFFFFF" width="141.104" height="82.5"/>
								<rect x="455.203" y="168.699" opacity="0.3" fill="#FFFFFF" width="141.104" height="82.5"/>
								<rect x="615.203" y="168.699" opacity="0.3" fill="#FFFFFF" width="141.104" height="82.5"/>
								<rect x="775.203" y="168.699" opacity="0.3" fill="#FFFFFF" width="141.104" height="82.5"/>
								<rect x="935.203" y="168.699" opacity="0.3" fill="#FFFFFF" width="141.104" height="82.5"/>
								<rect x="1095.203" y="168.699" opacity="0.3" fill="#FFFFFF" width="141.104" height="82.5"/>
								<rect x="1255.203" y="168.699" opacity="0.3" fill="#FFFFFF" width="141.104" height="82.5"/>
								<rect x="1415.203" y="168.699" opacity="0.3" fill="#FFFFFF" width="141.104" height="82.5"/>
								<rect x="1575.203" y="168.699" opacity="0.3" fill="#FFFFFF" width="141.104" height="82.5"/>
								<rect x="1735.203" y="168.699" opacity="0.3" fill="#FFFFFF" width="141.104" height="82.5"/>
								<rect x="1895.203" y="168.699" opacity="0.3" fill="#FFFFFF" width="141.104" height="82.5"/>
								<rect x="-101.351" y="68.203" opacity="0.3" fill="#FFFFFF" width="141.104" height="82.5"/>
								<rect x="58.649" y="68.203" opacity="0.3" fill="#FFFFFF" width="141.104" height="82.5"/>
								<rect x="218.649" y="68.203" opacity="0.3" fill="#FFFFFF" width="141.104" height="82.5"/>
								<rect x="378.649" y="68.203" opacity="0.3" fill="#FFFFFF" width="141.104" height="82.5"/>
								<rect x="538.649" y="68.203" opacity="0.3" fill="#FFFFFF" width="141.104" height="82.5"/>
								<rect x="698.649" y="68.203" opacity="0.3" fill="#FFFFFF" width="141.104" height="82.5"/>
								<rect x="858.649" y="68.203" opacity="0.3" fill="#FFFFFF" width="141.104" height="82.5"/>
								<rect x="1018.649" y="68.203" opacity="0.3" fill="#FFFFFF" width="141.104" height="82.5"/>
								<rect x="1178.649" y="68.203" opacity="0.3" fill="#FFFFFF" width="141.104" height="82.5"/>
								<rect x="1338.649" y="68.203" opacity="0.3" fill="#FFFFFF" width="141.104" height="82.5"/>
								<rect x="1498.649" y="68.203" opacity="0.3" fill="#FFFFFF" width="141.104" height="82.5"/>
								<rect x="1658.649" y="68.203" opacity="0.3" fill="#FFFFFF" width="141.104" height="82.5"/>
								<rect x="1818.649" y="68.203" opacity="0.3" fill="#FFFFFF" width="141.104" height="82.5"/>
								<rect x="-24.797" y="-35.618" opacity="0.3" fill="#FFFFFF" width="141.104" height="82.5"/>
								<rect x="135.203" y="-35.618" opacity="0.3" fill="#FFFFFF" width="141.104" height="82.5"/>
								<rect x="295.203" y="-35.618" opacity="0.3" fill="#FFFFFF" width="141.104" height="82.5"/>
								<rect x="455.203" y="-35.618" opacity="0.3" fill="#FFFFFF" width="141.104" height="82.5"/>
								<rect x="615.203" y="-35.618" opacity="0.3" fill="#FFFFFF" width="141.104" height="82.5"/>
								<rect x="775.203" y="-35.618" opacity="0.3" fill="#FFFFFF" width="141.104" height="82.5"/>
								<rect x="935.203" y="-35.618" opacity="0.3" fill="#FFFFFF" width="141.104" height="82.5"/>
								<rect x="1095.203" y="-35.618" opacity="0.3" fill="#FFFFFF" width="141.104" height="82.5"/>
								<rect x="1255.203" y="-35.618" opacity="0.3" fill="#FFFFFF" width="141.104" height="82.5"/>
								<rect x="1415.203" y="-35.618" opacity="0.3" fill="#FFFFFF" width="141.104" height="82.5"/>
								<rect x="1575.203" y="-35.618" opacity="0.3" fill="#FFFFFF" width="141.104" height="82.5"/>
								<rect x="1735.203" y="-35.618" opacity="0.3" fill="#FFFFFF" width="141.104" height="82.5"/>
								<rect x="1895.203" y="-35.618" opacity="0.3" fill="#FFFFFF" width="141.104" height="82.5"/>
								<rect x="-101.351" y="-136.114" opacity="0.3" fill="#FFFFFF" width="141.104" height="82.5"/>
								<rect x="58.649" y="-136.114" opacity="0.3" fill="#FFFFFF" width="141.104" height="82.5"/>
								<rect x="218.649" y="-136.114" opacity="0.3" fill="#FFFFFF" width="141.104" height="82.5"/>
								<rect x="378.649" y="-136.114" opacity="0.3" fill="#FFFFFF" width="141.104" height="82.5"/>
								<rect x="538.649" y="-136.114" opacity="0.3" fill="#FFFFFF" width="141.104" height="82.5"/>
								<rect x="698.649" y="-136.114" opacity="0.3" fill="#FFFFFF" width="141.104" height="82.5"/>
								<rect x="858.649" y="-136.114" opacity="0.3" fill="#FFFFFF" width="141.104" height="82.5"/>
								<rect x="1018.649" y="-136.114" opacity="0.3" fill="#FFFFFF" width="141.104" height="82.5"/>
								<rect x="1178.649" y="-136.114" opacity="0.3" fill="#FFFFFF" width="141.104" height="82.5"/>
								<rect x="1338.649" y="-136.114" opacity="0.3" fill="#FFFFFF" width="141.104" height="82.5"/>
								<rect x="1498.649" y="-136.114" opacity="0.3" fill="#FFFFFF" width="141.104" height="82.5"/>
								<rect x="1658.649" y="-136.114" opacity="0.3" fill="#FFFFFF" width="141.104" height="82.5"/>
								<rect x="1818.649" y="-136.114" opacity="0.3" fill="#FFFFFF" width="141.104" height="82.5"/>
							</g>
						</g>
					</g>
				</g>
			</g>
		</g>
		<path id="leftwindow" fill="#931B33" d="M219.914,261.22H6.833v535.036h146.578c208.574,0,190.441-205.548,190.441-356.69
			C343.853,345.862,334.783,261.22,219.914,261.22z"/>
		<path id="rightwindow" fill="#931B33" d="M1712.138,261.22c-133.003,0-123.933,145.098-123.933,241.828
			c0,51.387,3.026,102.774,12.089,151.135c21.158,129.984,60.457,142.073,184.397,142.073H1927V261.22H1712.138z"/>
	</g>
	<g id="lights">
		<defs>
			<filter id="Adobe_OpacityMaskFilter" filterUnits="userSpaceOnUse" x="6.833" y="-16.5" width="1920.167" height="1079.5">
				<feFlood  style="flood-color:white;flood-opacity:1" result="back"/>
				<feBlend  in="SourceGraphic" in2="back" mode="normal"/>
			</filter>
		</defs>
		<mask maskUnits="userSpaceOnUse" x="6.833" y="-16.5" width="1920.167" height="1079.5" id="SVGID">
			<g filter="url(#Adobe_OpacityMaskFilter)">
				<image overflow="visible" width="1925" height="1084" xlink:href="3B9C5678.jpg"  transform="matrix(1 0 0 1 4.4999 -18.5)">
				</image>
			</g>
		</mask>
		<g mask="url(#SVGID)">
			<g>
				<path id="leftlight_10_" opacity="0.4" fill="#CA9E67" d="M1483.29-16.5c2.73,15.523,4.023,32.179,4.023,49.731v843.201
					c0,71.205-14.371,135.22-43.65,186.569H1927V-16.5H1483.29z"/>
				<path id="rightlight_10_" opacity="0.4" fill="#CA9E67" d="M440.163,849.033c0-97.407-12.177-194.819-12.177-292.226
					c0-94.367,9.133-222.216,85.234-289.185c6.088-6.088,15.22-12.175,15.22-21.308c0-39.573-149.158-45.661-149.158-152.203
					c0-21.327,7.117-63.662,19.426-110.612H6.833V1063h433.45c-4.059-15.244-6.209-30.944-6.209-46.544
					C434.075,961.663,440.163,903.827,440.163,849.033z"/>
			</g>
		</g>
	</g>
	<g id="lightClip">
		<g>
			<rect id="lightclip2" x="1229.351" y="-168.456" fill="none" width="855.506" height="1799.912"/>
			<rect id="lightclip1" x="-393.844" y="-168.456" fill="none" width="966.549" height="1799.912"/>
		</g>
	</g>
	<g id="clipper">
		<path id="clipper" fill="none" d="M1295.35,734.43H626.94c-7.27-18.44-12.89-41.56-17.61-70.55
			c-9.06-48.36-12.08-99.74-12.08-151.13c0-96.73-9.07-241.83,123.93-241.83h489.69c114.87,0,123.94,84.64,123.94,178.35
			C1334.81,544.37,1341.99,661.01,1295.35,734.43z"/>
	</g>
	<g id="lightClip">
		<g>
			<rect id="lightclip2" x="1229.351" y="35.544" fill="none" width="855.506" height="1799.912"/>
			<rect id="lightclip1" x="-393.844" y="35.544" fill="none" width="966.549" height="1799.912"/>
		</g>
	</g>
</g>
<g id="Layer_2">
</g>
</svg>
