<?xml version="1.0" encoding="utf-8"?>
<!-- Generator: Adobe Illustrator 21.1.0, SVG Export Plug-In . SVG Version: 6.00 Build 0)  -->
<svg version="1.1" id="Layer_1" xmlns="http://www.w3.org/2000/svg" xmlns:xlink="http://www.w3.org/1999/xlink" x="0px" y="0px"
	 viewBox="0 0 1920 1080" style="enable-background:new 0 0 1920 1080;" xml:space="preserve">
<style type="text/css">
	.st0{fill:#72CBD3;}
	.st1{fill:#B7E6EE;}
	.st2{fill:#FFFFFF;}
	.st3{fill:none;stroke:#F17AA9;stroke-width:85.0394;stroke-linecap:round;stroke-miterlimit:10;}
	.st4{fill:#A95677;}
	.st5{fill:none;stroke:#F6EB0F;stroke-width:28.3465;stroke-linecap:round;stroke-miterlimit:10;}
	.st6{fill:#F27BAA;}
	.st7{fill:#F6EB0F;}
	.st8{fill:none;stroke:#F8BDD5;stroke-width:28.3465;stroke-linecap:round;stroke-miterlimit:10;}
	.st9{display:none;}
	.st10{display:inline;fill:none;stroke:#B7E6EE;stroke-width:28.3465;stroke-miterlimit:10;}
	.st11{fill:none;}
</style>
<rect x="0.8" y="705" class="st0" width="1920" height="375"/>
<g id="sky">
	<rect x="0.8" class="st1" width="1920" height="705"/>
</g>
<g id="bubble">
	<circle class="st1" cx="799.3" cy="733.3" r="14.2"/>
	<circle class="st1" cx="810.5" cy="886.4" r="14.2"/>
	<circle class="st1" cx="785.1" cy="1014.1" r="14.2"/>
	<circle class="st1" cx="789.1" cy="764.5" r="7.1"/>
	<circle class="st1" cx="796.3" cy="858.7" r="7.1"/>
	<circle class="st1" cx="775" cy="912.3" r="7.1"/>
	<circle class="st1" cx="794.5" cy="1045.1" r="7.1"/>
	<circle class="st1" cx="803.4" cy="954" r="7.1"/>
</g>
<g id="cloudFar">
	<g>
		<circle class="st2" cx="253.6" cy="487.9" r="113.4"/>
		<circle class="st2" cx="140.2" cy="487.9" r="56.7"/>
		<circle class="st2" cx="366.9" cy="487.9" r="56.7"/>
	</g>
</g>
<g id="cloudNear">
	<g>
		<circle class="st2" cx="538.7" cy="220.1" r="170.1"/>
		<circle class="st2" cx="368.6" cy="234.2" r="85"/>
		<circle class="st2" cx="708.8" cy="234.2" r="85"/>
	</g>
</g>
<g id="head">
	<line class="st3" x1="795.8" y1="705" x2="795.8" y2="540"/>
	<circle class="st4" cx="824.1" cy="540" r="14.2"/>
	<circle class="st4" cx="767.4" cy="540" r="14.2"/>
</g>
<g id="mouth">
	<circle class="st4" cx="795.8" cy="705" r="14.2"/>
</g>
<g id="arm">
	<line class="st3" x1="1125.8" y1="705" x2="1125.8" y2="375"/>
</g>
<g id="hand">
	<g>
		<polyline class="st5" points="866.6,497.3 847.5,497.3 744.1,497.3 724.9,497.3 		"/>
		<line class="st3" x1="1125.8" y1="375" x2="795.8" y2="375"/>
		<circle class="st6" cx="781.6" cy="403.3" r="28.3"/>
		<path class="st7" d="M852.5,474c0,8.3-1.8,16.2-5,23.3H744.1c-3.2-7.1-5-15-5-23.3c0-31.3,25.4-56.7,56.7-56.7
			S852.5,442.7,852.5,474z"/>
		<circle class="st6" cx="824.1" cy="403.3" r="28.3"/>
	</g>
</g>
<g id="hideMan">
	<path class="st0" d="M1168.5,705h13.5v375h-112V705h13.5c0,23.5,19,42.5,42.5,42.5S1168.5,728.5,1168.5,705z"/>
	<path class="st0" d="M838.5,705H867v375H725V705h28.5c0,23.5,19,42.5,42.5,42.5S838.5,728.5,838.5,705z"/>
</g>
<g id="nose">
	<line class="st8" x1="795.8" y1="554.2" x2="795.8" y2="596.7"/>
</g>
<g id="hideNose">
	<path class="st0" d="M838.5,705v165h-85V705c0,18.6,11.9,34.4,28.6,40.2c-0.1,0.8-0.2,1.6-0.2,2.4c0,7.8,6.4,14.2,14.2,14.2
		s14.2-6.4,14.2-14.2c0-0.8-0.1-1.6-0.2-2.4C826.6,739.4,838.5,723.6,838.5,705z"/>
</g>
<g id="ship">
	<polygon class="st2" points="1659.5,705 1574.4,705 1574.4,620 	"/>
	<polygon class="st0" points="1602.8,620 1574.4,591.6 1574.4,620 	"/>
</g>
<g id="waves" class="st9">
	<path class="st10" d="M880.7,705c0,47-38.1,85-85,85c-47,0-85-38.1-85-85"/>
	<path class="st10" d="M938,705c-0.6,78.3-64,141.7-142.3,141.7S654,783.3,654.6,705"/>
	<path class="st10" d="M994.1,705c0,109.6-88.8,198.4-198.4,198.4S597.3,814.6,597.3,705"/>
</g>
<rect id="rippleClipper" x="532.3" y="705" class="st11" width="821.9" height="287.7"/>
</svg>
